<?xml version="1.0" encoding="UTF-8"?>
<svg width="74px" height="80px" viewBox="0 0 74 80" version="1.1" xmlns="http://www.w3.org/2000/svg" xmlns:xlink="http://www.w3.org/1999/xlink">
    <title>编组</title>
    <g id="页面-1" stroke="none" stroke-width="1" fill="none" fill-rule="evenodd">
        <g id="Tracing" transform="translate(-428.000000, -3463.000000)">
            <g id="编组" transform="translate(428.000000, 3463.000000)">
                <path d="M40.3206951,0.745982352 C43.5700757,1.90053227 46.0113491,3.96982819 47.3176992,7.23215903 C47.7724828,8.36792362 48.0090567,9.55921299 48.0145411,10.7867431 C48.0235985,12.8205464 48.029249,14.8543497 48.0188621,16.8880698 C48.0087244,18.8720005 47.3319917,20.6390687 46.2168452,22.2551061 C46.1313395,22.3791225 46.0422608,22.5005622 45.9373107,22.6476032 C46.3743949,22.8470935 46.8012584,23.0307907 47.2186489,23.2341046 C51.1322979,25.1405666 53.7315365,28.1184575 54.6942852,32.4268654 C54.7567732,32.7064012 54.7278559,33.0887575 54.901277,33.2404533 C55.1196529,33.4314652 55.508957,33.3028771 55.823641,33.3032927 C58.7836819,33.3075319 61.7436396,33.3052876 64.7036805,33.3053707 C66.0084517,33.3053707 66.5214025,33.738514 66.7804954,35.0084357 C67.9823109,40.8988015 69.1920205,46.7876711 70.3967443,52.6775381 C71.3665561,57.4192555 72.3352877,62.1613054 73.2999476,66.9041034 C73.507521,67.9242467 72.7230961,68.8235322 71.6158437,68.8258596 C68.4069307,68.8325093 65.1979347,68.8285195 61.9889386,68.8286026 L54.0286042,68.8286026 L54.0286042,68.8286026 C54.6376969,69.9522315 55.0763599,71.0594856 55.3453413,72.2328209 C55.602606,73.3554524 55.7390495,74.4901364 55.7323187,75.6411952 C55.7275822,76.4588559 55.3142634,77.0306449 54.5349904,77.2849119 C51.9355856,78.1333274 49.2753546,78.7335437 46.57906,79.1676013 C42.7362087,79.7861874 38.865271,80.0615671 34.9735593,79.9885037 C29.441286,79.8846857 23.9956817,79.1673519 18.6734748,77.612824 C18.3301227,77.5125802 17.9881001,77.4067672 17.6484873,77.294637 C16.811795,77.0182599 16.3885047,76.4324235 16.420829,75.5504271 C16.5035094,73.2911999 16.9407598,71.1168391 18.0089571,69.0991613 C18.0465165,69.0282591 18.0783422,68.9542815 18.1380881,68.8286857 L17.6660205,68.8286857 C12.3822869,68.8285195 7.09855336,68.8300988 1.81481978,68.826857 C0.471408954,68.8260258 -0.193025571,68.0062871 0.0490326797,66.6678736 C0.0833512713,66.4779423 0.116007946,66.2875122 0.154564426,66.098412 L3.95894235,47.4544673 L3.95894235,47.4544673 C4.8217267,43.2258555 5.68284913,38.9969112 6.54746159,34.7686318 C6.74473117,33.8035977 7.36620513,33.306285 8.36485122,33.3058694 C11.5737642,33.3047057 14.7828433,33.2975573 17.9916732,33.3155946 C18.3901179,33.317922 18.5079478,33.2131065 18.5848115,32.8147078 C19.3696519,28.7452726 21.6039335,25.7105269 25.2003225,23.6704895 C25.7637124,23.3508895 26.3390682,23.0513216 26.9440061,22.8180011 C27.1906346,22.7229108 27.2163943,22.6505955 27.0512828,22.4273327 C26.0236363,21.0382986 25.3578722,19.4954076 25.1630955,17.7680712 C25.1183068,17.3709194 25.109748,16.9680322 25.108917,16.5676386 C25.1046791,14.5476334 25.0478415,12.5253008 25.1238743,10.5081217 C25.2356382,7.54195079 26.2788237,4.96727953 28.599608,3.0062902 C28.8196459,2.82034865 32.9801727,0.575916899 33.2563833,0.485315069 C35.6428965,-0.298099834 38.0055612,-0.0765825166 40.3206951,0.745982352 Z M63.4234308,36.5804023 C45.5814194,36.5919562 27.739408,36.5919562 9.89747964,36.582148 C9.57872391,36.5819817 9.47659909,36.6922832 9.4220882,36.973897 C9.173133,38.2598611 8.913957,39.5438303 8.65195574,40.8272177 C6.98920751,48.9734028 5.32670857,57.1195879 3.6526593,65.2634455 C3.59407672,65.5487166 3.65797744,65.5805519 3.91366341,65.580222 C9.44610291,65.5741516 14.9784593,65.5748997 20.5108988,65.5787233 C20.7013545,65.5788895 20.8510102,65.5339211 20.9986715,65.4076604 C22.3858739,64.2206933 23.9547238,63.3365358 25.6516244,62.6814596 C26.0061114,62.5446425 25.9683027,62.443235 25.7701191,62.1867238 C24.5853383,60.6534748 23.8348995,58.9393547 23.7866208,56.9801109 C23.7351014,54.8919465 23.7414998,52.8023691 23.7158232,50.7135398 C23.7010321,49.5135227 23.8806023,48.3427642 24.294669,47.2202989 C25.2962234,44.505652 27.0175542,42.5137417 29.9130296,41.72908 C30.0285328,41.6978265 30.1444516,41.6343221 30.2373527,41.5580171 C31.5279146,40.4988069 33.0528068,40.0532786 34.6752535,39.9413978 C37.4150072,39.7526302 40.0084291,40.338051 42.3964381,41.6836959 C46.0059562,43.7176655 48.1001381,46.7381975 48.1760046,50.9791112 C48.2099078,52.8739362 48.1844804,54.769925 48.1804087,56.6653319 C48.1784975,57.5977826 48.0047441,58.500393 47.7055159,59.3839686 C47.3211144,60.5188189 46.7204975,61.5304008 45.9800303,62.4705818 C46.0452605,62.5095655 46.0895506,62.5459725 46.1403222,62.5649241 C47.9771562,63.2483445 49.6775469,64.170987 51.1761808,65.4447323 C51.3038991,65.5532883 51.4362709,65.5778921 51.5938206,65.5778089 C57.5272807,65.5756478 63.460824,65.5752322 69.3942841,65.5789726 C69.6162332,65.5791389 69.70016,65.5672526 69.641245,65.2887974 C69.1507301,62.9686425 68.6807399,60.6441653 68.2077583,58.3202699 C66.7584002,51.2003791 65.3097069,44.080239 63.8646699,36.9594339 C63.8126519,36.7033383 63.7417711,36.5804023 63.4234308,36.5804023 Z M36.3184493,27.2831253 C36.0581099,27.2750625 35.9578132,27.3556067 35.9106979,27.5989849 C35.559701,29.4088603 35.2031366,31.2176552 34.8396753,33.025037 C34.794388,33.2507104 34.8528044,33.3154616 35.078659,33.30956 C35.5889507,33.2964269 36.099741,33.305404 36.6103651,33.3052377 C37.0934013,33.3050715 37.5776009,33.2844575 38.0589752,33.3121368 C38.3921897,33.3312546 38.4701336,33.2445594 38.3944332,32.9124913 C38.2730579,32.3806834 38.1541939,31.848303 38.0366286,31.3156271 L38.0366286,31.3156271 L37.3371215,28.1182414 C37.1558063,27.2948453 37.1533965,27.3089759 36.3184493,27.2831253 Z" id="形状结合" fill="#15263A"></path>
                <path d="M33.2951309,12.5110788 C34.357013,13.732458 35.7265159,14.3741516 37.31722,14.5596776 C38.2937626,14.6736364 39.2774514,14.6538536 40.2589798,14.6581759 C41.6419442,14.6642437 43.0249918,14.6728883 44.4078731,14.662332 C44.6865767,14.6602539 44.789117,14.7176074 44.7808074,15.020417 C44.7489817,16.1777099 44.8693045,17.3463904 44.4972012,18.4746741 C43.7588944,20.7131211 42.1961936,22.2076357 40.130929,23.2070819 C35.8753406,25.2665696 31.4430903,23.1583731 29.4545232,20.1868824 C28.7209529,19.0907665 28.3492651,17.8826867 28.3562452,16.5604819 C28.3589043,16.0486231 28.3723658,15.5360162 28.3498468,15.0251549 C28.3372993,14.7422943 28.4136644,14.648617 28.7090702,14.6468715 C29.2327404,14.643796 29.7563274,14.6095502 30.2785849,14.5367362 C31.4602081,14.3721567 32.356397,13.7695299 33.0378661,12.8133065 C33.0939558,12.7346741 33.1503779,12.656208 33.209376,12.5797367 C33.2257459,12.558624 33.251838,12.5451584 33.2951309,12.5110788" id="Fill-7" fill="#1CD2A9"></path>
                <path d="M44.6392619,58.1865699 C43.8025696,61.2325369 39.7592911,64.0229901 35.6852671,63.8664734 C31.3664427,63.700564 27.9420622,60.6645715 27.3695317,58.3095057 C33.1238371,60.2932702 38.8671739,60.2767291 44.6392619,58.1865699" id="Fill-9" fill="#1CD2A9"></path>
            </g>
        </g>
    </g>
</svg>