<?xml version="1.0" encoding="UTF-8"?>
<svg width="80px" height="80px" viewBox="0 0 80 80" version="1.1" xmlns="http://www.w3.org/2000/svg" xmlns:xlink="http://www.w3.org/1999/xlink">
    <title>编组</title>
    <g id="页面-1" stroke="none" stroke-width="1" fill="none" fill-rule="evenodd">
        <g id="Tracing" transform="translate(-674.000000, -3463.000000)">
            <g id="编组" transform="translate(674.000000, 3463.000000)">
                <path d="M53.7339813,24.3660255 C57.3027274,27.3688311 59.5356547,31.2243026 60.552055,35.7746347 C60.8361865,37.0469194 61.0011097,38.3398056 61.0006926,39.6469543 C61.0006926,39.9035965 61.0467409,39.9964281 61.3334585,39.9954272 C64.6937359,39.9839171 68.0540966,39.9846678 71.414374,39.9946766 C71.6671393,39.9954272 71.7650754,39.9165246 71.8341479,39.6823187 C72.416259,37.7088345 74.1899542,36.5022741 76.2543712,36.6614974 C78.1294229,36.8062079 79.7436173,38.3862631 79.9899592,40.3251336 C80.0108144,40.4889443 79.9927121,40.6577593 79.9927121,40.8242389 C80.0073108,42.9174951 78.4872985,44.6518526 76.3718279,44.9698821 C74.424784,45.2624725 72.4164258,43.9725056 71.8547529,42.0337185 C71.7617386,41.7124361 71.6345217,41.6463781 71.3249468,41.6475458 C67.9924486,41.6596397 64.659867,41.6574712 61.3273688,41.6502982 C61.0659277,41.6497143 60.9414637,41.6854124 60.9165209,41.995268 C60.657499,45.2207692 59.6792221,48.2245756 57.973932,50.9677363 C54.9226457,55.8759663 50.5796701,59.0490047 44.9594371,60.4305522 C42.5553302,61.0214881 40.1167704,61.1209923 37.6528506,60.830487 C29.4177061,59.8597172 22.3107458,53.8881361 20.0461186,45.5584827 C19.7266165,44.3831998 19.4954572,43.1868151 19.4328081,41.9661591 C19.4197945,41.7121025 19.3306175,41.648213 19.0820232,41.6487969 C15.5829335,41.6571375 12.083677,41.6591393 8.58458724,41.6454606 C8.30554433,41.6443763 8.24581496,41.7669007 8.18241507,41.9801714 C7.64151395,43.7986862 6.04083369,44.9921517 4.1610271,44.9867302 C2.25519318,44.9813088 0.59620171,43.6833348 0.123622303,41.8281211 C-0.337611861,40.0168627 0.523458684,38.0604768 2.17861279,37.1592682 C4.50797463,35.8909035 7.41752883,37.082117 8.1717372,39.627187 C8.25774415,39.9175254 8.37753656,39.9968451 8.67242945,39.9958443 C12.102113,39.9845844 15.5317965,39.984918 18.9615634,39.9953438 C19.2554553,39.9961779 19.3471349,39.9479689 19.3561443,39.6220157 C19.4934551,34.6815908 21.1771392,30.3235944 24.3945165,26.5788035 C27.3250093,23.1679727 30.9867698,20.8802956 35.3759606,19.8939288 C42.2103848,18.3581625 48.3720194,19.8545609 53.7339813,24.3660255 Z M52.4265421,45.0769011 C52.0080195,44.8815628 51.5901642,45.0322786 51.3389839,45.472749 C51.2776695,45.5803436 51.2301196,45.6958617 51.1705571,45.804624 C48.8259292,50.0853025 45.2242318,52.3834054 40.3435251,52.6468869 C39.6023304,52.6869221 39.1810548,52.9559085 39.1803869,53.4820375 C39.1798035,54.0265994 39.624854,54.3339528 40.3810645,54.3112662 C40.7547067,54.2854936 41.1285992,54.262807 41.5018243,54.2321968 C41.6255375,54.2221046 41.7470818,54.1879078 41.8704613,54.1705593 C45.6492613,53.6396761 48.7214028,51.863365 51.1214221,48.9111873 C51.7962138,48.0812914 52.3541328,47.1734936 52.805273,46.2038915 C53.0175792,45.7474904 52.8423953,45.2709884 52.4265421,45.0769011 Z M40.8431913,30.1876582 C40.6162864,30.001578 40.1264389,30.149875 39.7542148,30.1228513 C39.4794264,30.1028337 39.4313759,30.222272 39.4396346,30.4626499 C39.4558182,30.9340642 39.4325438,31.4069798 39.4495617,31.8783106 C39.4599893,32.1670644 39.4272049,32.3423851 39.0625721,32.3375475 C38.7929558,32.333961 38.5189181,32.4293782 38.2521381,32.5003573 C35.5863397,33.2098975 34.1283926,35.5275175 34.6778027,38.194945 C34.9404117,39.4694817 35.834934,40.1978718 36.9397604,40.7209982 C37.7271703,41.0937424 38.5578757,41.3502178 39.3966728,41.5809206 C39.5339002,41.6186204 39.6853926,41.6278785 39.6820557,41.8544109 C39.6688752,42.7406063 39.6767168,43.6272188 39.6767168,44.5421062 C38.1229191,44.2694499 36.7206137,43.7288915 35.4463595,42.8356065 C34.9934674,43.735147 34.5582605,44.6453636 34.0769219,45.5306415 C33.9157528,45.8269853 34.0248673,45.9269899 34.24977,46.0597732 C35.7495944,46.9453848 37.3786378,47.441404 39.0981094,47.6409961 C39.4003433,47.6761103 39.4644106,47.7715275 39.448644,48.0403471 C39.4291236,48.3723889 39.4441393,48.7064324 39.4438891,49.0396419 L39.4438891,49.0396419 L39.4443198,49.3054057 C39.4507659,50.2397955 39.5396729,50.230345 40.653659,50.1889853 C40.8799799,50.1805612 40.9292816,50.1081642 40.9251106,49.8994809 C40.9129311,49.2889443 40.9350377,48.6774069 40.9143493,48.0672874 C40.9050061,47.7891263 40.9751631,47.6666019 41.2708902,47.6638495 C41.5460958,47.6613473 41.82322,47.6179759 42.095339,47.5694332 C44.3537096,47.1665792 45.8206662,45.8219809 46.04974,43.8088785 C46.2810661,41.7766759 45.6068584,40.1788551 43.6670722,39.2974972 C42.8095053,38.907738 41.9151498,38.6299106 41.0031091,38.408883 C40.7641917,38.3509154 40.6615005,38.273514 40.6690918,38.003777 C40.6908647,37.2408565 40.6916989,36.4764348 40.6688416,35.7135143 C40.659415,35.3973198 40.7710322,35.3775524 41.0303878,35.4407746 C42.0446191,35.6880753 43.0079637,36.056399 43.8852179,36.6263165 C44.0593173,36.7394159 44.1373158,36.7726117 44.2482656,36.5531689 C44.6594472,35.739287 45.086312,34.9330785 45.5219359,34.1319578 C45.6181202,33.9552191 45.6038553,33.8753156 45.423833,33.7813163 C44.2823013,33.1847087 43.1151595,32.6611653 41.8415726,32.4053571 C41.5387547,32.3446371 41.1111392,32.4570692 40.9623163,32.2012611 C40.8226697,31.9611334 40.9326185,31.5800485 40.9187706,31.2616854 C40.9026704,30.8908595 41.0811077,30.3826629 40.8431913,30.1876582 Z M40.6766247,42.000239 C41.140445,42.1315211 41.534859,42.3185188 41.8990746,42.5694893 C42.25353,42.8137873 42.3830827,43.1630109 42.3367841,43.5782091 C42.2909026,43.9914889 42.0372196,44.2462128 41.6653293,44.3980129 L41.6653293,44.3980129 L41.5853286,44.419782 L41.4623701,44.4628596 C40.7598936,44.7051762 40.682133,44.6498109 40.6767732,43.91884 L40.6767732,43.91884 Z M29.2657382,39.1485246 C29.0153921,39.1439373 29.0049645,39.2550349 29.0083013,39.4432003 C29.0163932,39.9010193 29.0108874,40.3589217 29.0113045,40.8168241 C29.0116382,41.288572 29.0201471,41.7605701 29.0074671,42.2319844 C29.002295,42.425738 29.0506791,42.4945484 29.2574796,42.4922131 C30.2010534,42.4813702 31.144794,42.4824545 32.0884513,42.4914624 C32.2821546,42.4932973 32.3504763,42.4469233 32.348224,42.2407421 C32.3374627,41.2973297 32.3386306,40.3537505 32.3477234,39.4102547 C32.3496421,39.2160006 32.3024259,39.1489417 32.0965431,39.1512771 C31.1530527,39.1618697 30.2090618,39.1657898 29.2657382,39.1485246 Z M49.2595594,39.1509101 C49.0597663,39.1487415 49.0021225,39.2052078 49.0042914,39.4055505 C49.0145522,40.3489629 49.014719,41.2926255 49.0050422,42.2359545 C49.0029567,42.4351296 49.0584316,42.4940981 49.2593091,42.4919295 C50.2027995,42.4819207 51.1466236,42.4819207 52.0901974,42.4916793 C52.2897402,42.4937644 52.3516385,42.4373815 52.3457991,42.2367052 C52.3318678,41.7652909 52.3412943,41.2932928 52.3413777,40.8215449 C52.3414612,40.349797 52.332118,39.8777989 52.3458825,39.4063846 C52.3518054,39.2057916 52.2903242,39.1494922 52.0904477,39.1515773 C51.1468739,39.1614193 50.2030498,39.1610857 49.2595594,39.1509101 Z M39.45165,35.3778525 L39.5603363,35.3879449 C39.7265107,35.4155525 39.6726208,35.5178924 39.6739556,35.5967117 C39.6801287,35.9695393 39.6767084,36.3424504 39.6767919,36.715278 C39.6767919,37.0191283 39.6515988,37.3254809 39.682965,37.625995 C39.7247589,38.0260966 39.5643405,38.0054118 39.2749534,37.8878084 C38.4298997,37.5445067 38.1145686,37.1411522 38.1794701,36.4430387 C38.23336,35.8621116 38.9913223,35.2935286 39.5603363,35.3879449 Z M53.0218337,34.5978088 C50.5363914,28.7525054 44.583309,25.3829609 38.3928941,26.0955037 C34.7204558,26.5182919 31.6569066,28.1589838 29.2368663,30.9687863 C28.5106873,31.811944 27.8952913,32.7317523 27.4019401,33.7292122 C27.1210619,34.2971279 27.3970183,34.8667118 27.9831335,34.9721378 C28.3639499,35.0407815 28.6710223,34.8340998 28.9378023,34.3295731 C31.4707946,29.5398639 36.686603,26.926067 42.0166981,27.8233555 C46.1406938,28.5177157 49.1627828,30.7720301 51.1391074,34.4430895 C51.3152089,34.7702938 51.442676,35.1236042 51.6131884,35.4542281 C51.7907915,35.7986975 52.1822023,35.9735178 52.5191393,35.8869417 C52.8920308,35.7910241 53.1794158,35.4302904 53.1689882,35.0031651 C53.1345353,34.9072474 53.0862346,34.7491085 53.0218337,34.5978088 Z" id="形状结合" fill="#1CD2A9"></path>
                <path d="M66.0475403,51.6536474 C68.6696261,51.6712462 71.1900218,53.8660917 71.5891908,56.4637912 C71.6484196,56.8492132 71.6765325,57.2334676 71.6748641,57.6228097 C71.6699422,58.7331188 71.6731122,59.8435113 71.6731122,60.9539038 C71.6731122,62.0503673 71.6731122,63.1468309 71.6731957,64.2432944 C71.6731957,66.6167135 71.6790351,68.9901326 71.6651872,71.3633849 C71.6636022,71.634373 71.7441034,71.7357121 71.9946998,71.8113619 C73.9575936,72.4041328 75.1385833,74.1374894 75.0014394,76.1992179 C74.8773091,78.0653579 73.3207585,79.6756897 71.3649554,79.961274 C69.3133018,80.2607872 67.2088427,78.7883265 66.7646264,76.7424453 C66.2965517,74.5864673 67.5573752,72.4081363 69.6348893,71.8236227 C69.9276133,71.7413003 70.0142042,71.6334555 70.0134534,71.3314401 C70.0030258,66.7790228 70.0099497,62.2265221 70.0051113,57.6741048 C70.0029424,55.5876045 68.7374473,53.9425756 66.7604553,53.4443044 C66.3844773,53.3495544 65.9972375,53.3151909 65.607078,53.3166088 C64.6076121,53.3204455 63.6080629,53.3197783 62.6085971,53.3174429 C62.0298229,53.316025 61.678454,53.0028331 61.6745842,52.4936356 C61.6706959,51.9804346 62.0220647,51.6541478 62.5909953,51.6528967 C63.7431213,51.6503945 64.8954142,51.6458906 66.0475403,51.6536474 Z M17.4464313,51.6531053 C17.987833,51.6546066 18.3380339,51.9778907 18.3450678,52.47024 C18.3522155,52.9838581 17.9997622,53.3155662 17.4342519,53.3170675 C16.3792277,53.3199034 15.3241202,53.3073924 14.2691794,53.3205706 C12.2454718,53.3459262 10.6178466,54.6325569 10.1364246,56.5792677 C10.0500005,56.9289083 10.0123777,57.2873066 10.0124611,57.6494582 C10.013629,62.2297333 10.0159648,66.8100084 10.0059543,71.3902835 C10.0053703,71.6472593 10.092712,71.7380892 10.3205345,71.8074835 C12.2332923,72.3896618 13.3655642,73.957206 13.3456266,75.9763137 C13.3282751,77.7251005 12.0676184,79.3125789 10.2848303,79.8305341 C8.13724266,80.4544991 5.80195794,79.1576094 5.17863696,76.9948755 C4.54155154,74.7838491 5.78919454,72.4442097 7.96122455,71.8283351 C8.27997582,71.7380058 8.35605568,71.6186509 8.354137,71.3042913 C8.33953834,68.9448845 8.34612859,66.5853109 8.34646228,64.2257374 C8.34687938,61.9633325 8.34471044,59.701011 8.34737991,57.4386062 C8.35088359,54.303351 10.9884856,51.6581931 14.1146839,51.6525214 C15.2252664,51.6505197 16.3357654,51.6500192 17.4464313,51.6531053 Z M39.171061,64.9819786 C39.6968629,64.9793246 40.0092742,65.3334692 40.0093576,65.9421707 C40.0101918,70.310593 40.0101084,74.6790153 40.0089405,79.0474376 C40.0088571,79.6206079 39.6897722,79.9749193 39.1817389,79.9769303 C38.6693677,79.9790062 38.3446935,79.6273639 38.3442764,79.0580302 L38.3432128,75.7713085 L38.3432128,75.7713085 L38.3438593,65.9527634 L38.3438593,65.9527634 C38.3441096,65.3401417 38.649013,64.9846626 39.171061,64.9819786 Z M44.1725361,64.9819961 C44.697921,64.9803338 45.0087472,65.3343116 45.0088307,65.9442642 C45.0096649,70.3126031 45.0095814,74.6810254 45.0084136,79.0494477 C45.0082467,79.6219508 44.687827,79.9758451 44.1791264,79.9769319 C43.6670889,79.9780137 43.3441666,79.6265382 43.343666,79.0559534 L43.3427067,75.769263 L43.3427067,75.769263 L43.3429987,72.48251 C43.3429153,70.3052633 43.3424147,68.1280167 43.3433324,65.9506866 C43.3435826,65.3391491 43.6499876,64.9836701 44.1725361,64.9819961 Z M23.2582237,59.9231229 C23.6892595,62.1012037 22.4809078,64.1738584 20.3828721,64.8008261 C20.0598664,64.8974109 20.0036407,65.0346149 20.0046417,65.3375477 C20.0157367,68.8085147 20.0098138,72.2797318 20.014402,75.7507822 C20.0149025,76.1216914 19.8779254,76.3965163 19.546661,76.561578 C19.2308294,76.7187995 18.9247581,76.6774298 18.6508039,76.4627412 C18.4157238,76.2784959 18.340645,76.0267747 18.3419797,75.7280956 C18.349571,73.9787249 18.3457337,72.2292708 18.3456502,70.4798167 C18.3455668,68.7442916 18.3354729,67.0085996 18.3551602,65.2732412 C18.3585805,64.9724769 18.2538038,64.8851502 17.9916954,64.8096672 C16.0665078,64.2551799 14.8086874,62.3559275 15.0217444,60.351833 C15.2242904,58.4469924 16.8389853,56.8394964 18.7318056,56.6585874 C20.8630428,56.4547416 22.8563852,57.8924217 23.2582237,59.9231229 Z M64.914526,59.8789257 C65.3836851,62.041326 64.157815,64.1686122 62.0479335,64.8004174 C61.7277641,64.8962516 61.6654487,65.0286179 61.6665332,65.3345534 C61.6780453,68.8056872 61.6718721,72.2768209 61.6767105,75.7478713 C61.677211,76.1186137 61.542236,76.3944395 61.2115556,76.5604187 C60.896308,76.7185576 60.589903,76.6786893 60.315198,76.4645844 C60.0797008,76.2811733 60.0027867,76.0301193 60.0041214,75.7310231 C60.0117127,73.9816525 60.0078754,72.2321984 60.007792,70.4827443 C60.0077085,68.7332902 60.0007846,66.9838362 60.0152998,65.2344655 C60.0173854,64.9754045 59.9259561,64.8849083 59.6972994,64.818183 C57.7319029,64.2445956 56.5150422,62.4541889 56.6805493,60.3962137 C56.8315411,58.5198147 58.4255477,56.8975557 60.3495674,56.6621822 C62.4285831,56.4079588 64.4743139,57.8494756 64.914526,59.8789257 Z M30.8402577,61.6495996 C31.3512941,61.6477719 31.6760517,61.999164 31.6764688,62.5690815 C31.6782206,65.2856355 31.677887,68.0022728 31.6764688,70.7189102 C31.6762185,71.290746 31.3559657,71.6447238 30.8475987,71.6458948 C30.3358115,71.6471426 30.0127223,71.295667 30.0118047,70.7260832 L30.010616,68.6886573 L30.010616,68.6886573 L30.0110539,66.6511688 C30.0110539,65.2928918 30.0097192,63.9346148 30.0117213,62.5762545 C30.0126389,62.0024168 30.3298886,61.6513583 30.8402577,61.6495996 Z M52.5028973,61.649601 C53.0142674,61.6470295 53.3396924,61.9983383 53.3407768,62.5674217 L53.3421533,64.6256471 L53.3421533,64.6256471 L53.3415276,66.6838725 C53.3414442,68.028304 53.3426955,69.3728189 53.3408603,70.7172504 C53.340026,71.2897535 53.0214416,71.6438981 52.5135752,71.6459917 C52.0015377,71.647985 51.6764464,71.296426 51.6761127,70.7277596 C51.6745277,68.0112057 51.6746946,65.2945683 51.6760293,62.5779309 C51.6762796,62.0025086 51.992278,61.6521173 52.5028973,61.649601 Z M9.13569908,1.4717628e-05 C11.2747778,-0.00539191519 12.9916634,1.47932952 13.3265149,3.62396421 C13.6289157,5.56008232 12.3512412,7.55650343 10.4017781,8.14760622 C10.0983763,8.23960374 10.0029428,8.34536335 10.0039438,8.66848063 C10.0168741,13.2070524 10.0096999,17.7456242 10.0141212,22.2841126 C10.0162901,24.4009729 11.2724421,26.026735 13.2827189,26.5337639 C13.7842454,26.6602917 14.2967834,26.6634612 14.8104893,26.6600415 C15.6850741,26.654203 16.5595754,26.6567887 17.4342435,26.6598747 C17.9994201,26.6618765 18.3517066,26.992834 18.3451261,27.5066188 C18.3386095,27.9987179 17.9881583,28.3225025 17.4465064,28.323837 C16.2942969,28.3268396 15.1420874,28.3315104 13.9898779,28.3231697 C11.3570309,28.3042364 8.85223486,26.137499 8.43229404,23.5306247 C8.37031231,23.1456197 8.34395131,22.7614488 8.3447021,22.3719398 C8.34887314,20.1512383 8.3467042,17.9305367 8.3467042,15.7098352 C8.3467042,13.3641905 8.33994711,11.0185459 8.3547126,8.67298459 C8.35663129,8.358625 8.28038458,8.23901989 7.96246753,8.14777304 C6.0370297,7.59578796 4.739501,5.57242651 5.03105705,3.62955245 C5.34555384,1.53346042 7.07386808,0.00520072689 9.13569908,1.4717628e-05 Z M70.8060687,0.000104259349 C72.9390578,-0.0040574091 74.6674554,1.49784579 74.9882088,3.63413982 C75.2802654,5.57943266 74.0035919,7.56451047 72.0514594,8.14877392 C71.7359615,8.24327363 71.6642196,8.36779973 71.6649704,8.67882305 C71.6762322,13.2867058 71.6728119,17.8946719 71.6728119,22.502638 C71.6728119,25.6858521 69.0367114,28.324671 65.8568735,28.3249213 C64.7740702,28.3249213 63.6912669,28.3267562 62.6084636,28.3243374 C62.0298562,28.3231697 61.678404,28.0096442 61.6745355,27.5005301 C61.6707292,26.9873291 62.0220147,26.661376 62.5910286,26.6598747 C63.6045092,26.6572057 64.6178229,26.6627105 65.63122,26.6583734 C68.1718035,26.6471969 69.9967192,24.8200912 70.0059789,22.2782742 C70.0100665,21.1541196 70.0067297,20.0298816 70.0067297,18.9056437 L70.0067297,15.5745496 C70.0067297,13.2844538 70.0004731,10.9942745 70.0139039,8.70426208 C70.0157391,8.38589897 69.9539242,8.24344044 69.6125659,8.14468699 C67.6860436,7.58778092 66.3900999,5.55240891 66.6925841,3.61937684 C67.0220132,1.5143603 68.7385651,0.00403303407 70.8060687,0.000104259349 Z M19.9663098,3.86625213 C20.0276242,4.01555 20.0106063,4.16676622 20.0107731,4.31764881 C20.0127753,6.03932848 20.0120245,7.76092474 20.0121079,9.48260441 C20.0121913,11.218213 20.0196992,12.9538216 20.0046834,14.6891799 C20.0022642,14.969593 20.0718372,15.0836099 20.351047,15.1663493 C22.2437838,15.7272588 23.3853989,17.3585257 23.3435216,19.4022384 C23.3082345,21.1225836 21.977838,22.7396713 20.2111502,23.2097511 C18.0429575,23.7866747 15.7777463,22.4656805 15.1615161,20.26508 C14.5554633,18.1005111 15.8162868,15.785143 17.9598703,15.1775257 C18.2786216,15.0871964 18.3539506,14.9678415 18.3528662,14.6534819 C18.3406867,11.1823481 18.3448577,7.7112978 18.3464427,4.24016405 C18.346693,3.74781471 18.613473,3.40134357 19.0299102,3.3362864 C19.4392566,3.27231351 19.8112304,3.48783625 19.9663098,3.86625213 Z M60.8271938,3.33244486 C61.3683452,3.3257021 61.6734988,3.68234885 61.6739159,4.32791617 C61.674917,6.06344134 61.6742496,7.79904992 61.6742496,9.53457508 C61.674333,11.2562548 61.6842601,12.9780178 61.664823,14.6994473 C61.6614862,14.9969587 61.7616747,15.0877051 62.02395,15.1662742 C63.9080945,15.7310205 65.0510443,17.370211 65.0054965,19.4125892 C64.9672063,21.129181 63.6237961,22.754526 61.8636985,23.2138463 C59.7045153,23.7772581 57.4462281,22.4670234 56.8331678,20.2948645 C56.2186895,18.1183685 57.4487307,15.8065869 59.5925644,15.1877097 C59.9625361,15.0808658 60.0141737,14.9278146 60.013256,14.6015279 C60.0038295,11.1720975 60.0073332,7.74266703 60.0080839,4.3131532 C60.0082508,3.69444281 60.3068976,3.33904716 60.8271938,3.33244486 Z M30.8601619,8.33113417 C31.3650252,8.33830714 31.6758515,8.69195126 31.6766857,9.27054305 L31.6777493,11.3079585 L31.6777493,11.3079585 L31.6771862,13.345374 C31.6771028,14.6898055 31.6780204,16.0342369 31.6766023,17.3786684 C31.6760183,17.9796132 31.355265,18.3356761 30.8277112,18.3274188 C30.3221805,18.3194952 30.0117714,17.9656843 30.0116045,17.3877597 C30.01052,14.6850513 30.01052,11.9822594 30.0115211,9.27955097 C30.0117714,8.67835598 30.3321076,8.32362758 30.8601619,8.33113417 Z M52.5283407,8.33108413 C53.0321195,8.33992523 53.3401929,8.69381957 53.3410271,9.27432972 L53.3420907,11.3117869 L53.3420907,11.3117869 L53.3415276,13.3492441 C53.3413608,14.6936755 53.3423618,16.038107 53.3409437,17.3825385 C53.3402763,17.9810645 53.0162695,18.3375444 52.4882152,18.3274522 C51.9833519,18.317777 51.6761127,17.9642163 51.6758625,17.383873 C51.6748614,14.6811645 51.674778,11.9783727 51.6758625,9.27566422 C51.6761127,8.67688802 51.9997024,8.32182599 52.5283407,8.33108413 Z M39.1769589,0.000112907668 C39.7021769,0.000112907668 40.0089989,0.353006376 40.0093326,0.966128518 L40.0091658,14.0297754 L40.0091658,14.0297754 C40.0089989,14.6387272 39.6990069,14.9957076 39.1758744,14.9950413 C38.6528253,14.9943731 38.3439177,14.6378932 38.3438343,14.0286077 L38.3438343,0.965044232 L38.3438343,0.965044232 C38.3439177,0.35342341 38.6514072,0.000112907668 39.1769589,0.000112907668 Z M44.171752,0.000128783576 C44.6973036,-0.00194722135 45.0084636,0.352030519 45.0087973,0.961566175 C45.0100486,3.13881286 45.0092978,5.31614295 45.009131,7.49338964 L45.0087139,14.0252131 L45.0087139,14.0252131 C45.0084636,14.6365837 44.701725,14.9935641 44.1799272,14.9950696 C43.6539584,14.9964833 43.3433824,14.6420885 43.343299,14.0333035 C43.3426316,9.67872676 43.3426316,5.32414999 43.3432156,0.969656618 C43.343299,0.357618763 43.6492869,0.00213970355 44.171752,0.000128783576 Z" id="形状结合" fill="#15263A"></path>
            </g>
        </g>
    </g>
</svg>