<?xml version="1.0" encoding="UTF-8"?>
<svg width="80px" height="80px" viewBox="0 0 80 80" version="1.1" xmlns="http://www.w3.org/2000/svg" xmlns:xlink="http://www.w3.org/1999/xlink">
    <title>编组</title>
    <g id="页面-1" stroke="none" stroke-width="1" fill="none" fill-rule="evenodd">
        <g id="Tracing" transform="translate(-920.000000, -3463.000000)">
            <g id="编组" transform="translate(920.000000, 3463.000000)">
                <path d="M48.2076194,6.67047941 C48.2566035,6.90039304 48.3313866,7.13889922 48.311658,7.36639358 C48.2680697,7.86542961 48.5126533,8.02743695 48.9659044,8.15932862 C57.4335052,10.6231417 63.9056544,15.6461204 68.4455848,23.1172286 C69.9859303,25.6522015 71.1199855,28.3653657 71.8952169,31.2216838 C71.9864404,31.5577948 72.1376927,31.6434702 72.4819309,31.685849 C75.6202901,32.0720972 77.8984333,33.6979269 79.2165375,36.5278833 C81.5021843,41.4348206 78.5705535,47.1162565 73.2289184,48.2267827 C72.9965597,48.2750846 72.7553485,48.3397374 72.5240859,48.3221351 C72.1266481,48.291936 71.9936911,48.4578642 71.8845938,48.8248417 C68.8224509,59.122486 62.3492056,66.4484383 52.3633486,70.6972521 C51.1843561,71.1988742 49.9678457,71.6040594 48.7228384,71.9163949 C48.4522873,71.9842178 48.3490074,72.1086848 48.326328,72.3901538 C48.0136218,76.2734082 45.0121822,79.3871695 41.0890646,79.9312539 C40.7248449,79.9817248 40.3638291,79.9933206 40.0596382,80 C35.9148693,80.0033313 32.3744352,77.0334746 31.7318237,73.0657128 C31.7163106,72.9701101 31.6596542,72.8710036 31.6745771,72.7821582 C31.7915152,72.0841585 31.3465265,71.9572722 30.7915974,71.7825011 C19.3996165,68.194981 11.9432311,60.7048523 8.27220067,49.4788776 C8.24568983,49.3977905 8.22710206,49.3098689 8.21109609,49.2199639 L8.16548236,48.9491499 C8.12502334,48.7265984 8.06731776,48.5219701 7.90890845,48.411064 C7.62697547,48.2136853 7.1514665,48.3041158 6.7692045,48.2277003 C3.38508133,47.5511403 0.782512808,44.9286568 0.149681186,41.5699658 C-0.675799017,37.1890935 1.98646106,33.0097711 6.32489026,31.8837282 C6.74348991,31.7750281 7.16858145,31.65882 7.60404312,31.6780073 C7.91556895,31.691772 8.00738265,31.5367722 8.07381901,31.2834168 C8.59730043,29.2868555 9.31140699,27.3571161 10.2412631,25.5122178 C14.5454624,16.9726285 21.2739144,11.215528 30.4694485,8.30123104 C30.84016,8.18368812 31.3298331,8.17759825 31.5522431,7.93183427 C31.7608263,7.70125326 31.6822493,7.22057028 31.7400017,6.85150719 C32.2759611,3.42933135 35.3422351,0.545567168 38.8293009,0.0770639371 C43.2365272,-0.514988667 47.2890608,2.36368672 48.2076194,6.67047941 Z M40.7287654,66.2905271 C38.6907373,65.882422 36.3942144,67.0062959 35.301134,68.90934 C34.0959211,71.0075938 34.4086272,73.5510758 36.0735831,75.3794564 C37.4177391,76.8555419 39.7416627,77.3166204 40.607949,76.9518119 C38.0580743,76.2742508 36.3548416,74.1011666 36.3905891,71.5711157 C36.426168,69.0490734 38.1829375,66.8767401 40.7287654,66.2905271 Z M30.9230284,11.2376601 C20.7754646,14.7003795 14.1999512,21.5675057 11.0260974,31.6780323 C10.9473518,31.9288851 10.9806543,32.0390868 11.2589619,32.1431986 C15.0481108,33.5601372 17.2766797,37.2629478 16.659867,41.2277899 C16.1614257,44.4319816 14.3293672,46.6388521 11.2869529,47.8454815 C11.0171605,47.9525131 10.9327661,48.0410248 11.0258445,48.3350907 C14.3029781,58.6948851 21.0880865,65.6284159 31.5670733,68.970172 C31.9036392,69.0776207 32.0243713,69.0302365 32.1486444,68.6953768 C33.7122595,64.4825184 38.3241907,62.2582125 42.6198747,63.681241 C45.1768314,64.5282341 46.902322,66.2720238 47.8728155,68.7554413 C47.9177528,68.870565 47.8912794,69.0410815 48.0446395,69.0690282 C48.1582052,69.0389959 48.2394802,69.0193915 48.3195748,68.9959497 C49.8197887,68.5565611 51.2893981,68.0337495 52.6949318,67.3516835 C60.8975459,63.3708243 66.2841183,57.0271771 68.9355866,48.3880643 C69.029761,48.0812347 68.9973016,47.9550158 68.6671433,47.8343862 C65.2335301,46.5796218 62.7905606,43.1430972 63.2691047,39.087491 C63.6656994,35.7267978 65.5459833,33.3872015 68.7462262,32.1359408 C69.0183792,32.0295766 69.0274003,31.9239631 68.9577602,31.6912965 C68.55695,30.3536931 68.1114554,29.0311893 67.5231395,27.7624932 C63.6424299,19.3930867 57.2889892,13.7863978 48.3963813,11.0191755 C48.099694,10.9268263 47.9665684,10.9606125 47.8351289,11.2872968 C46.5241912,14.5462974 44.092182,16.4155552 40.5649846,16.7263056 C37.097563,17.031717 33.7721197,14.9908582 32.3482907,11.8478989 C32.3205358,11.7865831 32.2982004,11.7180928 32.2778547,11.6470766 L32.2193569,11.4310979 C32.1599689,11.2168378 32.0876207,11.0216781 31.9097095,10.9711238 C31.6294628,10.8915384 31.2520064,11.1253729 30.9230284,11.2376601 Z M72.3536193,34.6007717 C69.8953054,34.4375964 68.0666193,35.3013575 66.9135943,37.3131851 C65.8032303,39.2502658 65.8953812,41.2363157 67.1527821,43.0797959 C68.3541167,44.8411044 70.1020338,45.5748091 72.3349868,45.4007889 C69.608651,44.5125014 68.0266563,42.7840615 68.04453,39.962948 C68.0621509,37.1810432 69.6423751,35.479966 72.3536193,34.6007717 Z M9.12860582,34.6058688 C6.85434084,34.4230892 5.07758976,35.1854914 3.87886873,37.0174592 C2.65654088,38.8857159 2.61312118,40.8741017 3.75434271,42.7891587 C4.9235552,44.751016 6.74760425,45.5712303 9.04109194,45.3878667 C6.49872083,44.587507 4.92836088,42.9250546 4.82229877,40.2619441 C4.70620376,37.3468963 6.29460607,35.5122591 9.12860582,34.6058688 Z M40.6620339,3.04314154 C39.3483139,2.70069037 37.0767469,3.28323276 35.7440571,5.00282982 C34.3342236,6.82186702 34.1860064,9.29869411 35.3858235,11.2356914 C36.5160004,13.0604013 38.7207938,14.1010191 40.6709708,13.7302041 C37.6345425,12.9006464 36.4111186,10.5057406 36.3969545,8.39564078 C36.3884392,7.14137688 36.7776989,5.99856603 37.564818,5.00341378 C38.3554782,4.00400696 39.382038,3.35731233 40.6620339,3.04314154 Z" id="形状结合" fill="#15263A"></path>
                <path d="M46.4970517,24.6046346 C50.1352855,27.8657207 51.0243356,33.973865 46.9822564,38.408545 C48.0551867,38.4332382 49.0811563,38.5884049 50.0551066,38.9929227 C52.7774798,40.1237207 54.2684196,42.1894395 54.5420902,45.0540164 C54.6808272,46.5064098 54.6851624,47.9638755 54.665124,49.4223082 L54.6364204,51.1726288 C54.6276473,51.7560486 54.6220162,52.3393603 54.626569,52.9223013 C54.6333138,53.7828089 53.9606035,54.364517 53.0184381,54.3725256 C51.5730257,54.3847888 50.1273604,54.3778647 48.6818637,54.3778647 C41.524189,54.3776144 34.3665986,54.3769471 27.2090083,54.3764465 C25.879438,54.3763631 25.3423826,53.8488799 25.3428042,52.5439782 C25.3437316,50.3360233 25.3172582,48.1276512 25.35309,45.9201968 C25.3852121,43.947578 25.9687224,42.1549858 27.3727385,40.6939999 C28.7866189,39.2225861 30.5684286,38.5576218 32.5827655,38.4278157 C32.7070386,38.4198905 32.8322391,38.4268146 33.0233701,38.4268146 C29.0584346,34.0906571 29.7437072,28.0531721 33.4221569,24.6519354 C37.1070142,21.2447757 42.7108537,21.2108225 46.4970517,24.6046346 Z M41.0833231,41.3486948 C40.3548838,41.3717195 39.6248426,41.3713858 38.8964033,41.3487782 C38.5912008,41.3393514 38.5288113,41.4430461 38.5304132,41.7241814 C38.5423009,43.721994 38.5364835,45.71989 38.539603,47.717786 C38.5399402,47.9097422 38.5400245,48.1000299 38.6121097,48.2898171 C38.8620891,48.9481075 39.5090005,49.3469526 40.198067,49.2496814 C40.8993584,49.1508252 41.4266338,48.5710358 41.4368353,47.8439215 C41.4510837,46.8313338 41.4404607,45.8184125 41.4404607,44.8055746 L41.4404607,44.8055746 C41.4417253,43.7788884 41.4324512,42.7521189 41.4477956,41.725683 C41.4520111,41.4464665 41.3908863,41.3389343 41.0833231,41.3486948 Z M33.6730637,29.5767336 C33.3158418,30.6353707 33.2471291,31.694842 33.4063909,32.7815092 C33.9735449,36.6524171 37.8828357,39.2120831 41.6847998,38.1938227 C44.3692334,37.4748838 46.3302864,35.2075317 46.6369222,32.4682561 C46.7328671,31.6105848 46.5720877,31.4249688 45.6854827,31.24611 C44.7320198,31.0538201 43.8195315,31.2872375 42.9019004,31.4639273 C41.4360006,31.7461471 39.9686676,31.9208348 38.4851471,31.611002 C36.7583076,31.2503646 35.1640036,30.5772249 33.6730637,29.5767336 Z" id="形状结合" fill="#1CD2A9"></path>
            </g>
        </g>
    </g>
</svg>