<?xml version="1.0" encoding="UTF-8"?>
<svg width="80px" height="64px" viewBox="0 0 80 64" version="1.1" xmlns="http://www.w3.org/2000/svg" xmlns:xlink="http://www.w3.org/1999/xlink">
    <title>编组</title>
    <g id="页面-1" stroke="none" stroke-width="1" fill="none" fill-rule="evenodd">
        <g id="Tracing" transform="translate(-1169.000000, -3471.000000)">
            <g id="编组" transform="translate(1169.000000, 3471.000000)">
                <path d="M39.1951302,7.63126769 C40.0404701,7.62935982 40.6611479,8.26312646 40.6644015,9.14348261 C40.6686561,10.3473316 40.6813367,11.5515963 40.6546408,12.7549465 C40.6472995,13.0881666 40.7752726,13.174132 41.0600002,13.199905 C43.2883506,13.4018491 45.3906466,14.0377773 47.3778168,15.0536496 C47.5917171,15.1629771 47.6568716,15.09763 47.7378767,14.9141428 C48.1547487,13.9698529 48.5676162,13.0232352 49.0086813,12.0900028 C49.2759732,11.5244931 49.7619206,11.2519643 50.3863526,11.2729984 C51.0035266,11.2937831 51.5062423,11.6776347 51.6958661,12.2536199 C51.8211696,12.6343122 51.7913036,13.0125935 51.6237039,13.3818126 C51.1513547,14.4221277 50.6906015,15.4677637 50.2089088,16.5038387 C50.1173922,16.700545 50.1268191,16.8023899 50.3035955,16.9415642 C53.8727435,19.7520694 56.1546523,23.3885581 56.9289146,27.8413029 C57.9275886,33.5842779 56.8665966,38.8793844 52.951404,43.4095314 C52.2610667,44.2082453 51.477878,44.9142595 50.6239454,45.5370519 C50.430067,45.678554 50.4037048,45.7922047 50.5043981,46.0083654 C50.9694894,47.0069449 51.4188135,48.0128405 51.8677204,49.0187362 C52.2528911,49.8817163 51.9648265,50.7281519 51.1766323,51.0740922 C50.4016192,51.4142128 49.5999103,51.0693533 49.2063138,50.2144376 C48.8034572,49.3393192 48.4009342,48.4637019 48.0218535,47.5781912 C47.914236,47.3266965 47.845828,47.2536175 47.5639368,47.3907964 C45.4663959,48.4114076 43.2409655,48.9762523 40.9188461,49.1629819 C40.6793345,49.1821869 40.6598132,49.2753855 40.6608977,49.4661889 C40.6670711,50.531695 40.6664871,51.5972012 40.6628164,52.6627073 C40.6597297,53.562601 40.0266216,54.2324499 39.1907921,54.2293018 C38.3667255,54.2262145 37.7462144,53.5768178 37.7398742,52.691889 C37.7322826,51.6263829 37.7341179,50.5607936 37.7407918,49.4952874 C37.7420432,49.2905999 37.7265263,49.1833509 37.4642398,49.1624831 C35.5642481,49.0110874 33.7197336,48.5986361 31.9535547,47.8808162 C31.6160194,47.7436373 31.5257542,47.8340091 31.4009512,48.1269069 C31.0018487,49.0641299 30.5802215,49.9922077 30.1466647,50.9142995 C29.8498405,51.5454057 29.2763809,51.8333983 28.5779514,51.747516 C28.0022393,51.6767649 27.517293,51.2062828 27.3712168,50.5877305 C27.2901283,50.2444507 27.3841476,49.930685 27.5211306,49.6253996 C27.9551045,48.6584129 28.3893287,47.6914261 28.8350656,46.7299266 C28.9455195,46.4915678 28.964874,46.3567999 28.6954965,46.1792155 C24.6635931,43.5206879 22.2834937,39.7615696 21.442909,35.0555011 C20.5642827,30.1373456 21.3487228,25.4995339 24.101062,21.2621184 C25.3743693,19.30179 26.9762021,17.6480772 28.9138182,16.3294968 C29.1882847,16.1427671 29.2559419,16.0077498 29.099521,15.6873331 C28.6406866,14.747699 28.2248992,13.7871971 27.7990174,12.8317667 C27.4159323,11.9722784 27.7119223,11.1240969 28.5054556,10.781981 C29.2907299,10.44344 30.0797583,10.7857222 30.4706852,11.6447948 C30.8812169,12.5468502 31.2909978,13.4495707 31.6829258,14.3597737 C31.7883743,14.6047004 31.8826439,14.6573272 32.1417603,14.5438428 C33.785055,13.8245264 35.4993439,13.3606122 37.2908004,13.2068887 C37.6430184,13.1767093 37.7744953,13.0527495 37.7508028,12.6801216 C37.7130949,12.0874255 37.7407084,11.4906556 37.7410421,10.8956316 C37.7413758,10.3006076 37.7355361,9.70550052 37.742794,9.11055967 C37.7533055,8.24666499 38.3603018,7.63310106 39.1951302,7.63126769 Z M39.6689143,20.2234993 C38.6367036,19.9947015 37.9205048,20.559463 37.9261776,21.5974502 C37.9279296,21.9295895 37.9270953,22.2616456 37.9308494,22.5937018 C37.9323511,22.7281371 37.9095762,22.8062044 37.7466482,22.8561708 C35.7597283,23.4658272 34.7656426,24.8625581 34.6339988,26.8839935 C34.4847525,29.1759624 35.4704123,31.0224739 37.9674727,31.6822629 C38.7636756,31.892604 39.5793999,31.9322611 40.3828607,32.0703546 C41.1986683,32.2106097 41.6162077,32.5646976 41.7846416,33.2758664 C41.9654224,34.0395789 41.7336693,34.6711008 41.0824581,35.1203825 C40.2266067,35.7105845 39.2652234,35.8498419 38.2640466,35.6764145 C37.4392292,35.533499 36.8120442,35.0986002 36.4890247,34.2871661 C36.4191985,34.1119927 36.2952298,33.9512024 36.1701765,33.8061253 C35.71251,33.2752844 35.0613822,33.1687837 34.4914264,33.5178001 C33.9168823,33.8696433 33.7343496,34.4727317 33.9756965,35.1321882 C34.5674261,36.7490705 35.6531118,37.8335323 37.3523843,38.2478126 C37.6088311,38.310333 37.6794081,38.4156698 37.6705652,38.6635064 C37.6527957,39.1610086 37.6777397,39.6599242 37.6629735,40.1575927 C37.649709,40.605378 37.8681142,40.8877172 38.253118,41.0662161 C38.5864821,41.220771 38.9402852,41.2748112 39.3050169,41.235154 C40.1383436,41.1445327 40.4211525,40.8302683 40.4198177,40.0066128 C40.4192337,39.6884408 40.4485157,39.3665276 40.4103073,39.052762 C40.3554975,38.6022331 40.463699,38.3345264 40.9712533,38.2874698 C41.210598,38.2652718 41.4450207,38.1464665 41.6728529,38.0505244 C44.6253274,36.8067688 45.6010597,33.1778458 43.6191452,30.7838657 C42.8418796,29.8448967 41.7732959,29.4159839 40.6151978,29.1568405 C39.9008342,28.9969647 39.1536849,29.0214075 38.4578416,28.7585227 C37.6887517,28.4678697 37.4075279,28.0770345 37.4050251,27.2656003 C37.4020219,26.3051816 37.9226738,25.6445611 38.8612822,25.4177586 C40.1244952,25.1124732 41.3827027,25.7553019 42.074625,27.0594162 C42.4491173,27.7655136 43.1094218,27.9839191 43.8200312,27.6368148 C44.51479,27.2976087 44.7526331,26.620028 44.4197696,25.9007116 C43.8592407,24.6894632 42.9711041,23.8014583 41.7753815,23.1985361 C41.4164061,23.01746 40.867223,23.0673432 40.7133049,22.6901427 C40.5676458,22.3333112 40.6786838,21.8725563 40.6764313,21.4575277 C40.6725104,20.7120226 40.407304,20.3871995 39.6689143,20.2234993 Z" id="形状结合" fill="#1CD2A9"></path>
                <path d="M6.41318608,46.5264195 C6.9419302,46.7285298 7.27429319,47.1152913 7.34228411,47.6922741 C7.36480871,47.8837427 7.37148267,48.078121 7.37156609,48.2711692 C7.37315116,52.2550115 7.38141018,56.2388538 7.36055407,60.2225299 C7.35821818,60.6619181 7.49077962,60.727764 7.88813025,60.7264338 C12.2048447,60.7121339 16.5215592,60.7162077 20.838357,60.718203 C21.7400919,60.7186187 22.3978102,61.31198 22.4170812,62.1284856 C22.4369362,62.9744223 21.8164252,63.6236527 20.9413028,63.6296387 C19.2063246,63.6416938 17.4713465,63.6337956 15.7362849,63.6341282 L6.15899179,63.6342945 L6.15899179,63.6342945 C4.98028782,63.6337956 4.4256106,63.0815881 4.4256106,61.9153178 C4.42601581,57.2813305 4.42451417,52.6474264 4.4276843,48.0134391 C4.42851854,46.8851632 5.41442863,46.1444802 6.41318608,46.5264195 Z M75.8258944,47.9551588 C75.8297319,51.0680397 75.8277298,54.1809205 75.82798,57.2938013 C75.8280634,58.8433412 75.8282826,60.3928811 75.8282826,61.9423379 C75.8280634,63.0851631 75.2755434,63.6331305 74.1166944,63.6337956 C71.6872077,63.6350427 69.2578045,63.6342113 66.8283178,63.6343776 C64.3711342,63.634627 61.9138672,63.6367886 59.4566836,63.6333799 C58.6754971,63.6322991 58.1417475,63.2873565 57.9253445,62.6648136 C57.5903954,61.7007367 58.2869895,60.724771 59.3327149,60.7206972 C61.5539742,60.7120508 63.7752334,60.7174548 65.9964092,60.7172054 C68.1621078,60.7170391 70.3278898,60.7072287 72.4934216,60.7266001 C72.8550665,60.7298425 72.9131299,60.6214296 72.9122123,60.2898722 C72.9004494,56.1947072 72.9032859,52.0995421 72.9066228,48.004377 C72.9073736,47.1105524 73.4724074,46.4718805 74.273866,46.4361309 C75.1521586,46.3968894 75.8247265,47.0469512 75.8258944,47.9551588 Z M19.7542564,18.7388077 C20.0785272,19.5292077 19.7202192,20.3418058 18.8596961,20.6850025 C15.4956053,22.0266124 12.3173843,23.7045185 9.4008657,25.8561492 C7.20496748,27.4761908 5.22080049,29.3202081 3.48707369,31.4301031 C3.30087033,31.6565731 3.29853444,31.7805329 3.47230756,32.0111598 C5.84047726,35.1538043 8.87821156,37.4961553 12.3065391,39.3705182 C14.3925673,40.5109324 16.5750342,41.435934 18.8184844,42.2232579 C19.5588763,42.4830665 19.9063391,43.0407612 19.8416852,43.7840216 C19.7853737,44.4316724 19.3095207,44.9203619 18.6203513,45.0644414 C18.3753337,45.115738 18.1431635,45.0724227 17.9253423,44.9963507 C13.1746539,43.3362363 8.7367237,41.109947 4.90729143,37.796785 C3.13802581,36.2659513 1.58716539,34.5398247 0.306600168,32.5790806 C0.0463993255,32.1805966 0,32.0327759 0.00118327661,31.654744 C-0.0168364034,31.2571745 0.173454754,30.9443235 0.401286912,30.6402019 C2.90343627,27.300768 5.96636475,24.56409 9.44299505,22.2702089 C12.0571,20.5453294 14.8404732,19.1462706 17.7438941,17.9778387 C18.5948235,17.6353903 19.4327386,17.9550587 19.7542564,18.7388077 Z M62.1803082,18.0624906 C67.7222775,20.2879485 72.738339,23.3246742 76.9459343,27.6014143 C77.9084856,28.5797079 78.8108043,29.611626 79.6448819,30.701575 C79.8677921,30.99281 80.0272996,31.3099011 79.9960989,31.6764599 C80.0164544,32.1234969 79.7917924,32.4541397 79.5488604,32.7779651 C77.7469758,35.1788457 75.5891192,37.2140821 73.1574634,38.9701387 C69.7863651,41.4045242 66.091997,43.214621 62.1867319,44.6172547 C61.3252076,44.9266971 60.5144889,44.5716115 60.2209183,43.7721494 C59.9307681,42.9819156 60.336628,42.1846982 61.2080797,41.8694361 C64.4143314,40.7094843 67.4820985,39.2710178 70.3275394,37.383602 C72.6154548,35.8659874 74.6775403,34.0951322 76.4501428,31.9934679 C76.6714679,31.731082 76.637681,31.5966467 76.4299541,31.3537984 C72.6993798,26.9914254 68.0748292,23.8574273 62.8677256,21.5208129 C62.27658,21.2555172 61.6730876,21.0176573 61.0771033,20.762837 C60.2916622,20.4269565 59.9378591,19.6056288 60.2496997,18.851311 C60.5626248,18.0944159 61.3908627,17.7455657 62.1803082,18.0624906 Z M20.8778752,0.00399065969 C21.7629251,0.00640168325 22.3987028,0.597185594 22.4163054,1.40088783 C22.4351593,2.26328601 21.7921237,2.91559259 20.9041539,2.91659026 C17.8222046,2.92016523 14.7403388,2.91833617 11.6583896,2.91841931 C10.3673963,2.91850245 9.07598589,2.93388312 7.78540974,2.90802697 C7.42026094,2.90071076 7.36428314,3.0181858 7.36528423,3.34758151 C7.37679681,7.40117722 7.36828751,11.4549392 7.37704708,15.5085349 C7.37854872,16.2223642 7.15363642,16.789703 6.47422774,17.0896676 C5.49957996,17.5198274 4.4339161,16.7918646 4.42891064,15.6892786 C4.41898313,13.4618253 4.42549024,11.2343721 4.42557366,9.00691891 C4.42557366,6.55815036 4.42523996,4.10938181 4.42665818,1.66053012 C4.42724215,0.575569521 4.99636371,0.00415693717 6.09297803,0.00224474607 C8.55016162,-0.00207846859 11.0074286,0.000914526178 13.4646122,0.00124708115 C15.9357277,0.00157963613 18.4068432,-0.00290985602 20.8778752,0.00399065969 Z M74.1277982,0.00171265812 C75.2891499,0.00287660052 75.8271541,0.543943543 75.827321,1.70273135 C75.8280935,6.36581719 75.8289895,11.0288199 75.8264867,15.6919057 C75.826153,16.3954258 75.4413995,16.9205301 74.7947766,17.1322845 C74.2163115,17.3216745 73.5814515,17.122391 73.1980328,16.633452 C72.944339,16.3099592 72.9010417,15.9367493 72.9017091,15.5401775 C72.906798,12.0809407 72.9045456,8.62170386 72.904629,5.16246702 C72.904629,4.53984097 72.8853579,3.91630039 72.9132217,3.29483829 C72.9273204,2.98015814 72.8357204,2.90982277 72.5259654,2.91057101 C68.1523555,2.92154533 63.7787456,2.91855233 59.4051357,2.91747153 C58.714715,2.91730525 58.1899752,2.58616364 57.9533001,2.01134236 C57.563541,1.06447522 58.2234284,0.0199200429 59.2576412,0.012437556 C61.7844842,-0.0057698288 64.3114941,0.00645156649 66.8384205,0.00645156649 L66.8384205,0.000881270681 C69.2682409,0.000881270681 71.6979778,-0.000864642932 74.1277982,0.00171265812 Z" id="形状结合" fill="#15263A"></path>
            </g>
        </g>
    </g>
</svg>