<?xml version="1.0" encoding="UTF-8"?>
<svg width="80px" height="80px" viewBox="0 0 80 80" version="1.1" xmlns="http://www.w3.org/2000/svg" xmlns:xlink="http://www.w3.org/1999/xlink">
    <title>编组</title>
    <g id="页面-1" stroke="none" stroke-width="1" fill="none" fill-rule="evenodd">
        <g id="Tracing" transform="translate(-1421.000000, -3463.000000)">
            <g id="编组" transform="translate(1421.000000, 3463.000000)">
                <path d="M72.1290706,61.8850558 C73.8899593,63.3670823 75.6856544,64.8086777 77.4197149,66.3211252 C78.8493566,67.567995 79.672742,69.1766322 79.9258507,71.0657838 C79.9343763,71.1292847 79.9349238,71.1965394 80,71.2355627 L80,72.8758722 C79.8362146,73.5642938 79.7235046,74.2620998 79.4676583,74.9309707 C78.2136127,78.2090871 74.9332896,80.297031 71.4537491,79.9655282 C69.3501937,79.7651719 67.571628,78.8717018 66.1961903,77.2520379 C64.756928,75.5572991 63.3484829,73.8363623 61.9178243,72.1342724 C61.7664754,71.9542489 61.7466084,71.8601706 61.9283054,71.6792087 C65.1926722,68.4289326 68.4500779,65.17154 71.7025558,61.909377 C71.8625869,61.7489043 71.9487033,61.7333419 72.1290706,61.8850558 Z M47.5095026,8.74842141 C49.5829446,8.74857781 51.2426211,10.4074214 51.2490349,12.484886 C51.2535714,13.9683201 51.2498953,15.451676 51.2498953,16.9805461 C50.4130566,16.6638237 49.6044541,16.3585971 48.7748114,16.1177316 C45.8957391,15.281819 42.9642618,14.9074609 39.9622331,15.0537006 C35.2586821,15.282601 30.9392524,16.6833744 26.9841554,19.2238013 C26.7942456,19.3457981 26.6101239,19.3726999 26.3996433,19.3726217 C20.5796295,19.3705885 14.7596157,19.3707449 8.93960188,19.3715269 C8.26373284,19.3716051 7.78817634,19.654231 7.59036673,20.1655227 C7.28336685,20.9593621 7.8372181,21.8033297 8.71293038,21.8669088 C8.92012596,21.8819237 9.12935518,21.8701933 9.33772402,21.8701933 L23.5589753,21.8706625 L23.5589753,21.8706625 C21.2281227,24.0196048 19.3837769,26.4192661 17.9793991,29.1512122 C17.8707564,29.3624387 17.7334864,29.3710411 17.5468617,29.3708847 C14.669432,29.3685386 11.7920023,29.3684604 8.91457259,29.3693988 C8.23393234,29.3696334 7.7543868,29.6792394 7.57472343,30.2261917 C7.2968201,31.0722707 7.90643973,31.863764 8.85520624,31.8660319 C11.3421008,31.8719753 13.8289172,31.868378 16.3158118,31.8686126 L16.744673,31.8686126 L16.744673,31.8686126 C16.4367345,32.7127366 16.1623509,33.5323048 15.9358359,34.3662624 C15.571425,35.7074451 15.3176906,37.0712285 15.1746326,38.4524512 C15.1453014,38.7357809 15.033921,38.7458691 14.8161662,38.7452435 C12.8371316,38.739691 10.8580969,38.7405513 8.87898407,38.7428974 C8.23127298,38.7436794 7.75227495,39.0618095 7.57527094,39.5958583 C7.29517755,40.4409207 7.9044061,41.2356985 8.8516865,41.2390613 C10.7787072,41.2459431 12.7057278,41.2468816 14.632592,41.2358549 C14.9145626,41.2342127 15.0261776,41.2773026 15.0311835,41.6017671 C15.0644255,43.7900455 15.3512455,45.9463389 15.9439704,48.1153011 L15.5160477,48.1153011 C13.2896142,48.1153011 11.0631025,48.1102179 8.83666893,48.117569 C7.88008076,48.1206971 7.26670673,48.9657595 7.58903705,49.8105091 C7.77918144,50.3087409 8.2663922,50.6129509 8.89400164,50.6134983 C11.3938802,50.6153752 13.8937587,50.6195981 16.393559,50.6074766 C16.6703673,50.6061472 16.7869099,50.6901373 16.8881221,50.9467216 C17.754292,53.1428985 18.9032146,55.1827474 20.3301969,57.064939 C20.4226489,57.1868576 20.5135365,57.3101056 20.6467392,57.4884087 L8.90362228,57.4887997 L8.90362228,57.4887997 C8.26435858,57.4889561 7.78739417,57.7801843 7.5916182,58.2805276 C7.27593628,59.0871923 7.85239211,59.9460966 8.74906641,59.9836341 C9.2169577,60.0032631 9.68641331,59.9877789 10.1550868,59.9877789 C14.2954788,59.9878571 18.4358708,59.9902032 22.576341,59.9819919 C22.8187341,59.9815226 22.9825977,60.0565976 23.1537355,60.2195728 C26.543327,63.4476392 30.510313,65.6213719 35.0640012,66.7188738 C35.1743647,66.7454629 35.2823817,66.7818273 35.3937621,66.8612816 L34.968577,66.8612816 C26.3231475,66.8612816 17.6777962,66.8616726 9.0324449,66.8595611 C8.77034131,66.8594829 8.51222676,66.8673814 8.26740902,66.96928 C7.75180565,67.1837129 7.41766464,67.7762576 7.51762536,68.2928671 C7.641755,68.9347579 8.13772601,69.3533007 8.81484651,69.3580711 C9.9995923,69.3664389 11.1844945,69.3609646 12.3693185,69.3609646 C22.3297243,69.3610428 32.2901301,69.361121 42.250536,69.3609646 C43.0839331,69.3609646 43.570127,69.0135866 43.7235879,68.3202381 C43.7989886,67.9795073 43.662579,67.686715 43.5106825,67.3567763 C46.182872,67.1183351 48.7457148,66.4969335 51.2502081,65.4883484 L51.2502081,65.8903122 C51.2500517,69.3268681 51.2513012,72.7635022 51.2491131,76.2001362 C51.2479398,78.3309354 49.602968,79.9827407 47.4768863,79.9829753 C32.9073368,79.9838746 18.3377873,79.9838746 3.76823777,79.9828971 C1.64536293,79.9827407 7.82165299e-05,78.3281982 -2.31240916e-13,76.1961479 L-2.31240916e-13,12.5410359 L-2.31240916e-13,12.5410359 C7.82165299e-05,10.3870104 1.6405135,8.74865602 3.80085407,8.74849961 C18.3704036,8.7476098 32.9399531,8.7476098 47.5095026,8.74842141 Z M55.7930086,68.7827937 C56.3190929,68.9795526 56.5875321,69.6346598 56.9801008,70.0790096 C57.2186613,70.3490448 57.440718,70.6335476 57.6996147,70.9471419 C57.1841678,71.1568044 56.7071251,71.2460341 56.2064611,71.238292 C55.4792821,71.2270307 54.7517119,71.2271089 54.024611,71.2405599 C53.8063869,71.2446264 53.7395118,71.1866779 53.7445958,70.9637992 C53.759457,70.3018884 53.7554679,69.6393519 53.7462384,68.9772065 C53.7438137,68.7994509 53.781123,68.7024791 53.9779158,68.73595 C53.9905086,68.7380615 54.0038836,68.7361846 54.0168676,68.7362628 C54.6142072,68.7375141 55.2684885,68.5866604 55.7930086,68.7827937 Z M67.6794886,58.1774247 C68.3781187,58.7806832 69.0932524,59.3648601 69.8018159,59.9566228 C69.858914,60.0042484 69.9133527,60.0551586 69.9751438,60.1101354 C69.9135091,60.1801272 69.865406,60.2409691 69.8109673,60.2953985 C66.6457007,63.4607461 63.4783223,66.6239822 60.3182963,69.7944912 C60.1475496,69.9657559 60.0766072,69.9290787 59.9434045,69.7653997 C59.3687476,69.0595387 58.7875206,68.3589174 58.1937789,67.6692445 C58.0473576,67.499231 58.0729344,67.4131294 58.2204507,67.2660294 C61.243285,64.2526304 64.2615827,61.2346174 67.2762824,58.2130853 C67.417385,58.0716941 67.5025628,58.0246158 67.6794886,58.1774247 Z M63.957821,55.0774626 C64.4091303,55.4890454 64.8929778,55.8648112 65.3625898,56.256374 C65.4221126,56.3060329 65.476786,56.3614007 65.5465551,56.4259964 C65.4897699,56.4874641 65.4412757,56.5439267 65.3887142,56.5964791 C62.4614605,59.5236984 59.5331901,62.4498228 56.6087522,65.3799355 C56.4848572,65.504122 56.4187643,65.540721 56.2894723,65.3792317 C55.8749247,64.8615274 55.4514604,64.3503921 55.0134479,63.8523949 C54.8120403,63.6233381 55.0012461,63.5787623 55.1389072,63.4929736 C57.2164164,62.1983999 59.0759362,60.6431754 60.7182487,58.8283949 C61.7499247,57.6884287 62.6770253,56.4683043 63.4797615,55.157308 C63.6347867,54.9040864 63.7255961,54.8656887 63.957821,55.0774626 Z M41.2993291,17.4977499 C54.3743953,17.5127806 65.0874006,28.2022805 65.0744285,41.2207461 C65.0612763,54.3422052 54.3680598,64.9956534 41.2204868,64.9858848 C28.134392,64.9761809 17.4992122,54.317884 17.5075764,41.2214499 C17.5159506,28.1125034 28.1761597,17.4828288 41.2993291,17.4977499 Z M56.8748292,0 C57.1146411,0.0797671348 57.3571123,0.152574196 57.5938738,0.24047445 C58.984329,0.756692938 59.9961381,2.16395724 59.9973113,3.62291378 C60.0027865,9.97542763 60.0001271,16.3279415 60.0001271,22.6803771 C60.0001271,22.7191658 59.9948866,22.7579546 59.9872214,22.864389 C59.7586727,22.6441691 59.5666511,22.4467845 59.3615673,22.264024 C58.8372037,21.7966042 58.3173767,21.3230846 57.7740064,20.8785783 C57.5734593,20.7146647 57.4938348,20.5559906 57.4941477,20.2970603 C57.5018129,14.9079301 57.5000139,9.51872168 57.4999357,4.12951329 C57.4998575,2.93769845 57.0661468,2.49937022 55.8878148,2.49937022 L12.7260563,2.49960483 L12.7260563,2.49960483 C11.7386508,2.49960483 11.2491718,2.99361365 11.2495628,3.98945158 C11.2497975,4.64025756 11.2419758,5.29129814 11.2541776,5.94194771 C11.2582449,6.15943046 11.2336849,6.26547383 10.9684526,6.25632407 C10.3182386,6.23403619 9.66669492,6.25116267 9.01577696,6.2468615 C8.90236299,6.24607947 8.73982904,6.31137903 8.74827643,6.08388629 C8.78527284,5.0839818 8.63134271,4.07242504 8.81929703,3.08495484 C9.12926914,1.45598482 10.1425643,0.463353209 11.7509308,0.0721814367 C11.7953578,0.0613894126 11.8334492,0.0246339681 11.8744347,0 L56.8748292,0 Z" id="形状结合" fill="#15263A"></path>
                <path d="M41.2620354,20.0142232 C52.8680388,20.0629437 62.3582851,29.231472 62.4828058,41.0143291 C62.6083433,52.8998668 53.1664349,62.3320177 41.5203846,62.4551875 C29.4953753,62.5822675 20.0920276,52.940376 20.0459462,41.3302695 C20.0005925,29.8232347 29.1969792,20.0873431 41.2620354,20.0142232 Z M50.6394074,31.2424127 C50.0983837,31.2353476 49.7550131,31.5283745 49.464908,31.947934 C45.816498,37.2237479 42.1612049,42.4947915 38.5172531,47.7737335 C38.3252316,48.0519019 38.2348915,48.0907688 37.9601168,47.8445073 C36.2354423,46.299371 34.4911355,44.7760533 32.7477672,43.2518754 C32.165367,42.7427734 31.4248911,42.7793725 30.9381496,43.3197557 C30.4596209,43.8510674 30.505534,44.6284059 31.0708048,45.1277325 C33.2354473,47.0399541 35.4032184,48.9486565 37.577638,50.8498514 C38.3063814,51.4870501 39.0727469,51.3716223 39.6319169,50.568555 C40.121787,49.8651183 40.6093889,49.1600394 41.0976165,48.4554297 L41.0976165,48.4554297 L51.5275561,33.4037624 C51.7214549,33.12403 51.9083924,32.8428118 51.8753068,32.503645 C51.869597,31.7887125 51.3277129,31.2517702 50.6394074,31.2424127 Z" id="形状结合" fill="#1CD2A9"></path>
            </g>
        </g>
    </g>
</svg>