<?xml version="1.0" encoding="UTF-8"?>
<svg width="36px" height="36px" viewBox="0 0 36 36" version="1.1" xmlns="http://www.w3.org/2000/svg" xmlns:xlink="http://www.w3.org/1999/xlink">
    <title>编组 22</title>
    <g id="页面-1" stroke="none" stroke-width="1" fill="none" fill-rule="evenodd">
        <g id="Tracing" transform="translate(-369.000000, -330.000000)" fill="#1CD2A9">
            <g id="编组-25" transform="translate(345.000000, 316.000000)">
                <g id="编组-24" transform="translate(24.000000, 12.000000)">
                    <g id="编组-22" transform="translate(0.000000, 2.000000)">
                        <path d="M10.3574076,14.3387757 C10.4739483,14.3381897 10.5351929,14.3590593 10.5143205,14.4866701 C10.5133701,14.4923362 10.5138629,14.4984599 10.5148484,14.5041964 C10.6328674,15.1768103 10.4343505,15.7917074 10.2301316,16.4255032 C9.60262108,18.3725714 9.74404677,20.2918018 10.5623658,22.1622895 C10.6101999,22.2716702 10.5970358,22.3146764 10.4957007,22.3742234 C9.84471313,22.7569504 9.23071869,23.1933471 8.65765956,23.685138 C8.5621673,23.7670679 8.51243248,23.7702353 8.41884092,23.6786976 C6.47411454,21.7767471 5.18512746,19.5070972 4.56775401,16.855917 C4.38437227,16.0684321 4.28497303,15.2709172 4.22724826,14.4660468 C4.21792078,14.3359021 4.27712387,14.3407588 4.36698444,14.3408995 C5.36833321,14.342448 6.36964678,14.3418498 7.37099555,14.341709 C8.36643105,14.3415682 9.36193695,14.3436446 10.3574076,14.3387757 Z M25.6467105,14.3382446 C26.6425332,14.3447004 27.6383911,14.3417794 28.634249,14.3418146 C29.6301068,14.3418498 30.6259647,14.3423777 31.6218226,14.3409699 C31.7153789,14.3408291 31.7809881,14.330236 31.7722942,14.4725928 C31.6815536,15.9628875 31.3808569,17.4060583 30.8338795,18.7972136 C30.1023588,20.6576712 29.0157956,22.2803278 27.5855236,23.6758469 C27.4962966,23.7629151 27.4464562,23.7730156 27.3466346,23.6874607 C26.7728715,23.1955642 26.1592642,22.7573727 25.5089454,22.3721822 C25.4101094,22.3136558 25.3890257,22.2741338 25.4397109,22.1614097 C25.9280484,21.0757673 26.1663742,19.9340973 26.1523654,18.7450219 C26.1399405,17.6838741 25.9260069,16.6601016 25.5111277,15.6814116 C25.4664262,15.5760077 25.4432659,15.4749678 25.4499183,15.3603433 C25.4666022,15.0739404 25.4820189,14.7869744 25.4817726,14.5002547 C25.481667,14.371025 25.5149995,14.3374154 25.6467105,14.3382446 Z M11.2127444,23.3358587 C11.2677589,23.4239123 11.3260117,23.5099599 11.3973229,23.6189535 L10.6094502,23.6189535 C10.7982172,23.4996835 10.9527718,23.4045208 11.1044753,23.3049942 C11.1584691,23.2695546 11.1844452,23.290565 11.2127444,23.3358587 Z M24.8900233,23.3034281 C25.0455634,23.3999281 25.2009627,23.4967096 25.3917008,23.6153462 L24.6216383,23.6153462 C24.6568363,23.4985045 24.7497239,23.4161874 24.8044217,23.3126136 C24.8283915,23.2673198 24.8594714,23.2844589 24.8900233,23.3034281 Z M23.368958,6.42328761 C23.7743337,7.88155641 24.0737633,9.35925189 24.2263116,10.8663338 C24.3006146,11.60036 24.3543972,12.3349494 24.3653438,13.0727765 C24.3669629,13.1814182 24.3443306,13.2132329 24.2261004,13.2225943 C23.9923503,13.2412116 23.8320937,13.1594224 23.6630375,12.994753 C22.4725345,11.8346417 21.0549691,11.1072318 19.4145296,10.8225533 C19.1787732,10.7816235 18.9413273,10.7447762 18.7031071,10.7266164 C18.5896638,10.7179941 18.5586895,10.6896635 18.5598865,10.5766227 C18.5659051,10.0437612 18.5625965,9.51082935 18.5625261,8.9778975 C18.5624557,8.45080773 18.5645324,7.92375315 18.5606606,7.39669857 C18.5598865,7.29403977 18.5710792,7.2457194 18.6976866,7.24061637 C20.2316519,7.17888736 21.7162345,6.86946803 23.1521381,6.32798421 C23.2691364,6.28385183 23.3271075,6.27287153 23.368958,6.42328761 Z M27.5987405,3.8952205 C29.6197762,5.88339453 30.9290373,8.25848348 31.5042436,11.0370986 C31.6443669,11.7140062 31.7190219,12.3979172 31.7718542,13.0858755 C31.7828008,13.2279859 31.7166637,13.2180966 31.622333,13.2179558 L30.1198698,13.2168912 L28.6174067,13.2169352 C27.6274621,13.2168649 26.6375175,13.214155 25.6476081,13.2201527 C25.5183961,13.2209121 25.4852396,13.1917368 25.4825997,13.0596917 C25.435364,10.64223 25.0944358,8.26844318 24.405716,5.94783342 C24.3756568,5.84668793 24.3835412,5.78858383 24.4937462,5.73596987 C25.5219863,5.24474206 26.4607882,4.61400807 27.3326082,3.88328998 C27.4427428,3.79094281 27.4983205,3.79643296 27.5987405,3.8952205 Z M8.65889501,3.8736435 C9.53624111,4.61572902 10.4884886,5.24600549 11.5240147,5.74680588 C11.6098275,5.78833396 11.6277081,5.82884142 11.601204,5.91763407 C11.2943827,6.94643925 11.0579224,7.99153893 10.8812635,9.05039918 C10.7088987,10.0837443 10.5968986,11.1234594 10.5467766,12.1697204 C10.532451,12.4680187 10.5134792,12.7667745 10.5183718,13.0650023 C10.52073,13.2099283 10.464554,13.2196768 10.346711,13.2192004 C9.35088829,13.2150665 8.35503041,13.2168613 7.35920773,13.2169669 C6.36334986,13.2170725 5.36752718,13.2168613 4.3717045,13.21753 C4.28800358,13.2175652 4.21919143,13.2330854 4.22725178,13.0970634 C4.31211423,11.6662454 4.59049546,10.2768146 5.09805106,8.93496521 C5.8264743,7.0090481 6.93049572,5.32973031 8.40638434,3.89366848 C8.49353466,3.80888786 8.5463669,3.77848087 8.65889501,3.8736435 Z M12.8038151,6.31246749 C13.8310344,6.70564683 14.8916918,6.97209516 15.979839,7.1263825 C16.4082694,7.1871613 16.8393045,7.23840271 17.2726274,7.23938813 C17.4183473,7.23974006 17.4419299,7.29003126 17.4402404,7.41957773 C17.4334472,7.94082541 17.4374246,8.46224906 17.4375654,8.98356714 C17.4377062,9.51663976 17.4368262,10.0497124 17.4386213,10.5827498 C17.4389029,10.6646446 17.4419651,10.7147598 17.3261988,10.7252122 C15.3513429,10.9037477 13.6492014,11.67983 12.2471934,13.0859423 C12.0656772,13.2680324 11.8744463,13.1997926 11.6814907,13.2127437 C11.6077508,13.217706 11.6385843,13.1422164 11.6380211,13.1030815 C11.6301719,12.5285511 11.6717056,11.9557805 11.7194694,11.3842768 C11.7900414,10.5400604 11.9034847,9.70059504 12.0596583,8.8674645 C12.2164303,8.0309906 12.4101603,7.20335021 12.6465151,6.38542316 C12.6782285,6.2757257 12.7152216,6.27854117 12.8038151,6.31246749 Z M18.6328201,0 C19.1618465,0.156469328 19.6508527,0.391032546 20.0849149,0.735785927 C20.8292828,1.32703305 21.3920289,2.06880183 21.8715317,2.88035889 C22.2846862,3.579579 22.6165332,4.3170894 22.914027,5.07163335 C22.9614387,5.19199437 22.9250791,5.22877134 22.8209634,5.26713202 C21.6781889,5.6883604 20.5057073,5.97976077 19.2896858,6.08344018 C19.1032066,6.09938273 18.9146155,6.10107201 18.7305298,6.13116226 C18.5852676,6.15491773 18.5590802,6.11032784 18.5594976,5.97321482 L18.562705,3.53117064 L18.5625296,0 L18.6328201,0 Z M17.4374985,0 C17.4374985,1.9909543 17.436161,3.98190859 17.4403166,5.97286289 C17.4405959,6.10881453 17.4150422,6.14034771 17.2699911,6.13214768 C15.9798777,6.05954394 14.7264758,5.80977722 13.5087296,5.37957455 C13.3561109,5.32569364 13.135736,5.3007768 13.0760402,5.19171282 C13.0144788,5.07927029 13.1588259,4.89700428 13.2194721,4.74824229 C13.7380447,3.47618114 14.3676319,2.26979066 15.3302628,1.26787314 C15.8931849,0.682045787 16.5355138,0.21784641 17.3427454,0.0234387252 C17.3522137,0.0211511619 17.3590773,0.00805926136 17.367208,0 L17.4374985,0 Z M21.4839204,0.475271183 C22.3034714,0.419876959 25.8609011,2.20583039 26.6026644,3.04409915 C25.8456955,3.67349579 25.0300164,4.21332553 24.15707,4.66844504 C24.0265205,4.73647365 23.9878731,4.70036535 23.9398278,4.57571074 C23.4317794,3.25730005 22.7908585,2.01276005 21.8776104,0.922824138 C21.7505103,0.771141097 21.6163354,0.625440913 21.4839204,0.475271183 Z M14.5157734,0.458512143 C14.1841023,0.8327223 13.867672,1.21414708 13.584891,1.6226003 C12.9504466,2.53903334 12.4589061,3.52979459 12.0621539,4.56855947 C12.0107647,4.70306819 11.9685271,4.72932238 11.8345986,4.66041393 C10.9628138,4.21208673 10.1551598,3.6690544 9.38319656,3.03272468 C10.9209985,1.80293067 12.6232809,0.944460967 14.5157734,0.458512143 Z" id="形状结合"></path>
                        <path d="M3.65291848,22.6731587 C3.87135746,22.9900742 4.08303841,23.3116704 4.29514174,23.6328443 C4.42322738,23.8268296 4.42403693,24.0309155 4.3084114,24.2273644 C4.20031825,24.4111085 4.03414835,24.5086995 3.82567041,24.5021535 C3.63253882,24.5035612 3.47904021,24.4334914 3.37682513,24.2868762 C3.14339179,23.9521881 2.91122558,23.6158459 2.696412,23.2691217 C2.53671854,23.0112957 2.62971173,22.6778394 2.88004013,22.5159503 C3.13832327,22.348923 3.47351412,22.4129396 3.65291848,22.6731587 Z M33.1091717,22.5037382 C33.3590425,22.6562307 33.4660445,22.9802905 33.3216974,23.2354066 C33.1093125,23.6107077 32.8651789,23.9674972 32.6035872,24.3106317 C32.5039063,24.4413747 32.3542443,24.4972968 32.1883912,24.5006575 C31.7498941,24.5039484 31.4645085,24.0325344 31.6926621,23.6579019 C31.9045895,23.3098755 32.1359461,22.9728999 32.3721601,22.6405345 C32.5380484,22.4071679 32.8671148,22.3559617 33.1091717,22.5037382 Z M1.74524154,19.3639645 C1.92017576,19.3705508 2.09683467,19.4800019 2.191095,19.6980595 C2.34557915,20.0554825 2.49499479,20.4153689 2.63659647,20.7781061 C2.7469071,21.0607081 2.61114829,21.3769902 2.34212974,21.4974568 C2.0623406,21.6227448 1.73253506,21.5099504 1.60286551,21.2226324 C1.43799794,20.8573966 1.28080353,20.4876911 1.14247527,20.1117213 C1.00478058,19.737476 1.28527368,19.3623508 1.74524154,19.3639645 Z M34.5290567,19.395707 C34.8308798,19.5135341 34.9678706,19.8254873 34.8442199,20.1438809 C34.7052228,20.5017966 34.5609109,20.8579878 34.405758,21.2091112 C34.2929835,21.4642625 34.0188261,21.593457 33.7710671,21.5313057 C33.49874,21.4630659 33.3284519,21.2494075 33.3280999,20.9655385 C33.3168365,20.8846995 33.3493243,20.8035086 33.3829736,20.7221065 L33.7881382,19.738032 L33.7881382,19.738032 C33.9176669,19.4240376 34.231211,19.2794284 34.5290567,19.395707 Z M0.788105021,16.0597717 C1.05508208,16.0578882 1.27570334,16.216258 1.33659593,16.4823544 C1.42617492,16.8738444 1.50818633,17.2675869 1.57566095,17.6634057 C1.62733166,17.9666662 1.41431318,18.2422296 1.10854789,18.3032899 C0.838121422,18.3572764 0.530842616,18.1686756 0.466887795,17.8836804 C0.376323263,17.4803654 0.296599724,17.0739886 0.231342575,16.6659225 C0.181185382,16.3522448 0.460200169,16.0620762 0.788105021,16.0597717 Z M35.2025323,16.0560956 C35.5544774,16.0536122 35.8209969,16.355465 35.7611954,16.7048639 C35.6954103,17.0893505 35.6209665,17.4726053 35.5396238,17.8541357 C35.4742963,18.1605636 35.1697981,18.3582442 34.8842717,18.2946148 C34.5525655,18.2207089 34.3646432,17.9280768 34.4322234,17.5995123 C34.5025843,17.2573984 34.5687918,16.9144047 34.6345065,16.5713406 C34.6958215,16.2513985 34.9070096,16.0582577 35.2025323,16.0560956 Z M0.623110733,12.6508795 C0.876888533,12.6705877 1.11422885,12.8705207 1.12362673,13.1259184 C1.13953624,13.5573176 1.13823391,13.9898782 1.12633698,14.4214534 C1.11993093,14.6538347 0.926376964,14.8544012 0.707621205,14.9016306 C0.455427316,14.9560746 0.204676547,14.8462363 0.0772244789,14.629868 C0.0488548663,14.5817236 0.0535010063,14.5167568 0,14.482373 L0,13.076331 C0.126642514,12.8159711 0.298479298,12.6256811 0.623110733,12.6508795 Z M35.4213268,12.6429891 C35.742896,12.6398921 35.9921332,12.8860691 35.9964978,13.2216723 C36.0012495,13.5904275 36.0010031,13.9592882 35.9967442,14.3280434 C35.9928724,14.6659693 35.7485981,14.9113369 35.4264305,14.9105644 C35.1017991,14.9098236 34.8673802,14.6661453 34.8638604,14.3233275 C34.8619597,14.1419414 34.8635084,13.9604848 34.8636492,13.7790634 C34.8638252,13.5918 34.8608333,13.404431 34.8644587,13.2172379 C34.8709704,12.8830425 35.1027846,12.6460509 35.4213268,12.6429891 Z M1.12461227,9.26644369 C1.44702623,9.34210924 1.63406856,9.63210188 1.56944498,9.95112897 C1.50010486,10.2934892 1.43182068,10.6360606 1.36677472,10.9792303 C1.3045798,11.3071613 1.08923825,11.503399 0.786112813,11.5016164 C0.442263253,11.499563 0.177890846,11.198414 0.236601161,10.8610161 C0.304498162,10.4710393 0.378449224,10.0818368 0.462220536,9.69502747 C0.528005655,9.39109829 0.837325947,9.19901336 1.12461227,9.26644369 Z M35.5311235,9.66890349 C35.6234128,10.0716906 35.7016228,10.4784193 35.7667039,10.8865558 C35.8184802,11.2111786 35.5388319,11.4997987 35.2003676,11.4976291 C34.9125533,11.4957515 34.6927064,11.3085233 34.6385719,10.9976962 C34.5765529,10.6419273 34.5047137,10.2885164 34.4283692,9.93563337 C34.3618097,9.62783293 34.5557861,9.33921284 34.8688374,9.26192839 C35.1455291,9.19361823 35.4640713,9.37602501 35.5311235,9.66890349 Z M2.21208358,6.02424156 C2.48782495,6.08618173 2.67229783,6.31152431 2.67169946,6.59454868 C2.68127333,6.68288381 2.644245,6.76836829 2.60823741,6.85501415 C2.47649119,7.17171849 2.34601209,7.48895072 2.21584977,7.80635892 C2.08072453,8.13587361 1.77372731,8.2825944 1.46944034,8.1621278 C1.16226712,8.04053501 1.03175283,7.72798349 1.16138717,7.39730742 C1.29922266,7.04565615 1.44177468,6.69562378 1.59365419,6.34992018 C1.7005506,6.10652345 1.97506004,5.97099412 2.21208358,6.02424156 Z M34.3931078,6.32937082 C34.5617416,6.69932259 34.7236173,7.07388468 34.8601857,7.45654123 C34.9921079,7.82621145 34.7115444,8.19493146 34.2555891,8.19426369 C34.0795638,8.18915976 33.8999482,8.07615413 33.8031888,7.85151542 C33.6515909,7.49933626 33.5052727,7.14476395 33.364375,6.78818563 C33.250263,6.49953034 33.3882041,6.17740624 33.6667261,6.05767869 C33.9407427,5.93985159 34.2657966,6.04997136 34.3931078,6.32937082 Z M32.0870244,3.05507923 C32.3780417,3.05764857 32.5354121,3.13785405 32.6442092,3.2968221 C32.8646897,3.61894621 33.0857333,3.9411055 33.2926625,4.27199273 C33.462669,4.54382563 33.3719637,4.88910691 33.1070281,5.0510312 C32.8451548,5.21109024 32.5200306,5.13760667 32.3390423,4.87267165 C32.1286989,4.56473044 31.9212417,4.25478321 31.714594,3.94430809 C31.5876347,3.75352531 31.5711973,3.55105837 31.6823174,3.34971761 C31.7890379,3.15626014 31.9574956,3.05490349 32.0870244,3.05507923 Z M4.14021057,3.15927268 C4.37772688,3.32320299 4.46705948,3.63790131 4.3149336,3.88534527 C4.09533308,4.24252188 3.85866153,4.58980917 3.6160063,4.93188786 C3.51400241,5.07568761 3.35371058,5.14044325 3.15719998,5.13206725 C2.75196505,5.12854792 2.47182393,4.6718799 2.68709508,4.30724232 C2.90004317,3.94654638 3.13935458,3.59999814 3.38623356,3.26115723 C3.5588799,3.02416568 3.89787213,2.99206941 4.14021057,3.15927268 Z M30.7345542,1.05033995 C30.8695738,1.17992161 30.998645,1.31587326 31.126801,1.45228242 C31.2342606,1.56666058 31.3019112,1.69951522 31.29459,1.78844864 C31.2836082,2.0945598 31.176043,2.26401544 30.968973,2.36431629 C30.7529979,2.46891073 30.5427601,2.44195267 30.3656436,2.28488506 C30.2041198,2.1416836 30.0523459,1.98528466 29.9109906,1.82191745 C29.7043078,1.58299026 29.7309527,1.24277681 29.9585784,1.03418624 C30.1821915,0.829255762 30.5085476,0.833478956 30.7345542,1.05033995 Z M5.9100661,0.947096944 C6.12382374,1.05327507 6.22540525,1.23216252 6.2228006,1.47045623 L6.2228006,1.48801767 L6.2228006,1.48801767 C6.20928456,1.91325809 5.48177646,2.50763741 5.11349947,2.39435024 C4.72417406,2.27458751 4.57352649,1.82376158 4.82966255,1.50821862 C4.97284814,1.33186509 5.13465349,1.16758285 5.30536394,1.01744831 C5.48276201,0.861471691 5.69574529,0.840637269 5.9100661,0.947096944 Z" id="形状结合"></path>
                        <path d="M12.271554,24.7460098 C12.3432172,24.7458705 12.4012939,24.7555487 12.4597226,24.8103446 C12.8791424,25.2034535 13.3375967,25.5458138 13.8266734,25.8716684 L13.429182,25.8716684 L13.429182,25.8716684 C12.4392726,25.871598 11.4493632,25.8691345 10.4594538,25.8718795 C7.85997363,25.8790238 5.68008921,27.5334951 4.97503746,30.0353503 C4.84938049,30.4812139 4.78324339,30.9380931 4.78204666,31.4015534 C4.77852685,32.7368569 4.78095552,34.0722308 4.77930121,35.4075342 C4.77891403,35.6996033 4.58433932,35.941909 4.31993172,35.9905109 C4.05130035,36.0399575 3.79150368,35.8924272 3.68414969,35.6349884 C3.65127473,35.5561203 3.64965562,35.4753165 3.64976122,35.3941256 C3.65152112,33.9651728 3.61822378,32.5349178 3.66707865,31.1075136 C3.717975,29.6204215 4.27068967,28.3008494 5.22825209,27.1617133 C6.24913577,25.9471932 7.54790789,25.1877573 9.10144336,24.8693989 C9.47355694,24.7931351 9.85151339,24.7472078 10.2331656,24.7471375 C10.9126284,24.7469615 11.5921264,24.7472782 12.271554,24.7460098 Z M26.254482,24.7804373 C27.5244973,24.8939005 28.6674829,25.3467676 29.6772792,26.119049 C31.0302915,27.1538018 31.875537,28.5158874 32.2257574,30.1820077 C32.3197714,30.6293143 32.3525407,31.0843282 32.3519162,31.5418761 C32.3501473,32.8184068 32.3521184,34.0950078 32.3504289,35.3715385 C32.3499361,35.7382525 32.1290684,35.9877025 31.8075696,35.9948115 C31.4732587,36.0022021 31.2214168,35.7562715 31.2208537,35.4127499 C31.2189882,34.2708687 31.2095199,33.1288819 31.2233879,31.9871767 C31.2337361,31.1332469 31.1744979,30.2918811 30.8474026,29.4942254 C30.0426348,27.5319184 28.5890969,26.3519229 26.5086469,25.9501916 C26.1764127,25.8860695 25.8354142,25.8703029 25.4951196,25.8708308 L23.8787073,25.8717634 L23.8787073,25.8717634 L22.1780573,25.8713235 C22.6666763,25.5424071 23.1293896,25.1975833 23.5526107,24.8010606 C23.5941796,24.7620665 23.634587,24.7444698 23.6912206,24.7457368 C24.5455824,24.7644596 25.4013169,24.7042439 26.254482,24.7804373 Z M18.0017793,11.8109734 C21.9081271,11.812945 25.0339938,14.9548956 25.0311447,18.8766237 C25.0282565,22.7289506 21.8679661,25.8713305 17.9967459,25.8713305 C14.128412,25.8846969 10.936373,22.7022389 10.9633699,18.7676301 C10.9895924,14.9481033 14.1430192,11.809109 18.0017793,11.8109734 Z" id="形状结合"></path>
                    </g>
                </g>
            </g>
        </g>
    </g>
</svg>