<?xml version="1.0" encoding="UTF-8"?>
<svg width="40px" height="40px" viewBox="0 0 40 40" version="1.1" xmlns="http://www.w3.org/2000/svg" xmlns:xlink="http://www.w3.org/1999/xlink">
    <title>形状结合</title>
    <g id="页面-1" stroke="none" stroke-width="1" fill="none" fill-rule="evenodd">
        <g id="官网首页2" transform="translate(-411.000000, -432.000000)" fill="#44D7B6">
            <g id="编组-34" transform="translate(345.000000, 416.000000)">
                <path d="M97.3248071,16.0000048 C98.8351767,15.9973179 100.257856,17.1235632 100.654073,18.5587091 C100.742478,18.8789459 100.793549,19.2114883 100.810419,19.5601879 L100.816708,19.8248023 L100.815802,48.1945871 L104.362777,48.1958291 C104.872215,48.1970134 105.302491,48.3774274 105.643386,48.7449223 C105.816625,48.9316668 105.922335,49.1475167 105.974798,49.4165369 L106,49.584522 L106,52.8748098 C105.96733,53.4779963 105.754467,54.0350772 105.375317,54.562955 C104.882901,55.2484787 104.212481,55.7043752 103.377498,55.9353249 C103.334855,55.9471073 103.297748,55.9547053 103.254546,55.960261 L103.079797,55.9737699 C103.025766,55.9767333 102.989759,55.9797131 102.942517,55.9865043 L102.859571,56.0000048 L74.4526453,56.0000048 C73.7666422,55.9667997 73.1444142,55.707362 72.5738796,55.2430812 C71.8007683,54.6140422 71.35083,53.7922551 71.2287587,52.7939796 C71.2123304,52.6595852 71.2016729,52.5326884 71.1953118,52.3912993 L71.1878812,52.0826823 L71.1917225,51.1694701 L71.188724,50.8109774 L71.1891358,49.4716241 L70.6132748,49.4695653 L70.0318028,49.4748327 L69.1405214,49.4734552 L68.467867,49.4887443 C68.2119284,49.4896979 68.0008519,49.4751599 67.7987572,49.43688 C66.9945156,49.2845685 66.4185298,48.8006186 66.099903,48.0272026 C66.0703525,47.9554401 66.0554489,47.8969453 66.0426782,47.8088821 L66,47.5026457 L66,19.1575705 C66.0163675,18.6647115 66.1512444,18.2038939 66.4031681,17.7809637 C66.9820148,16.8090556 67.8140645,16.2191187 68.8958984,16.0444104 C68.9577421,16.034424 69.0158159,16.0270817 69.0774955,16.0217303 L69.280727,16.010996 C69.3188603,16.0099847 69.3597389,16.0093079 69.4042848,16.0088839 L93.3041727,16.0059508 L97.3248071,16.0000048 Z M104.19358,50.0819945 L97.6322763,50.0871114 L84.6891855,50.0871788 L78.3417284,50.0819945 L78.3479726,50.7075385 L78.3481654,52.2463414 C78.3500632,52.6669904 78.304117,53.0441598 78.1984434,53.4005031 C78.1205134,53.6632544 78.013635,53.9146796 77.8725088,54.1670767 L77.8577778,54.1896488 L102.370842,54.190034 C102.485099,54.190034 102.5896,54.1833025 102.686896,54.1689504 L102.827753,54.1415958 C103.668474,53.9359924 104.182167,53.2785719 104.188013,52.3962363 L104.190545,50.3598196 L104.19358,50.0819945 Z M97.0656219,17.8370562 L72.5777778,17.8370562 L72.6369266,17.937715 C72.9057803,18.4388425 73.0504323,18.9915879 73.0822565,19.6018856 L73.0890208,19.8669826 L73.0873698,28.350941 L73.0870142,52.3246895 C73.0870142,52.5358078 73.0959514,52.6769413 73.1223297,52.8141638 C73.2845524,53.6590168 74.1598559,54.2873917 75.0072315,54.1669724 C75.866946,54.0447845 76.5274266,53.2857817 76.5316522,52.4121553 L76.5324597,49.9077474 C76.532247,48.9852276 77.1351521,48.3327099 78.0264824,48.2665411 L78.1776541,48.2609964 L98.9155556,48.2647106 L98.9130254,40.8325144 L98.9143518,19.6499492 C98.9145483,19.3246416 98.8675469,19.0697992 98.7565001,18.8466106 C98.4422214,18.2151285 97.9456251,17.8893734 97.2450325,17.8429938 L97.0656219,17.8370562 Z M68.3533067,18.3324649 C68.0223559,18.6380011 67.8502925,19.0287035 67.8162983,19.5204101 L67.8099819,19.7095656 L67.8114673,39.9348556 L67.8066973,47.074983 C67.8061823,47.4246713 68.0022639,47.6180375 68.3363963,47.6112908 L68.8514835,47.6026931 L69.6888857,47.5985576 L71.2612346,47.6079204 L71.2575448,40.613009 L71.2575277,19.7191225 C71.2586404,19.4913718 71.2496658,19.3666718 71.2165294,19.2413786 C71.0377786,18.565941 70.6366694,18.1315985 69.992377,17.927599 C69.3880146,17.7362989 68.8481674,17.8756721 68.3533067,18.3324649 Z M92.7872039,43.6230281 L92.8807064,43.8870645 L93.0667276,44.4447014 L93.1160494,44.6015007 L93.4592933,44.4296607 C93.6005277,44.3531735 93.7514291,44.3164408 93.9060997,44.3174939 L94.0227172,44.3253378 L94.1401952,44.3471668 L95.4000198,44.658557 L96.724132,44.9927576 C97.1540492,45.102285 97.4292844,45.433722 97.4355442,45.8547615 C97.4418777,46.2816082 97.2071585,46.6143847 96.8053777,46.7470381 C96.6388525,46.8020211 96.4657725,46.8035626 96.2892313,46.7598073 L94.6083373,46.3395663 L94.1103064,46.2119038 C94.0288987,46.1908794 93.9835687,46.1946119 93.9256468,46.2256165 L93.3552552,46.5166743 L93.0618641,46.6614344 C92.5055788,46.9363948 91.9893542,46.7573607 91.748552,46.2216069 L91.6995344,46.0963483 L91.5269136,45.5911303 L90.6161059,46.5024118 C90.3449772,46.771683 90.0078621,46.8575924 89.6535535,46.729779 C89.3091681,46.6055247 89.0993531,46.3353515 89.0541144,45.9700419 C89.0206359,45.6998741 89.1057774,45.4475403 89.2972386,45.2549498 L90.8967433,43.6512461 L91.3066583,43.250059 C91.7894475,42.7811584 92.5560533,42.9837881 92.7872039,43.6230281 Z M96.4106433,39.7038114 C96.692588,39.7037544 96.8992817,39.7527557 97.0883659,39.9003739 C97.3931037,40.1381221 97.5193093,40.5308586 97.4031192,40.8925314 C97.2763724,41.2868926 96.926294,41.5316665 96.4922627,41.5335342 L95.9922193,41.5350099 L75.5892145,41.5355441 C75.2892972,41.5356568 75.0655674,41.4767526 74.8703025,41.306442 C74.5887972,41.0608783 74.4839847,40.6691935 74.6081958,40.3214411 C74.7326077,39.9731649 75.016013,39.7537543 75.3830721,39.7127665 L75.5084201,39.7057802 L77.1861845,39.7043664 L96.4106433,39.7038114 Z M80.0235694,37.0783743 C80.5683162,37.0793415 80.9909771,37.4716573 80.9881387,37.9918056 C80.9852814,38.5050734 80.5723795,38.8929194 80.035815,38.8942409 C78.5239095,38.8979523 77.0138969,38.8979427 75.5059123,38.8942024 C74.9461215,38.8928392 74.5547248,38.5118265 74.5609349,37.9704459 C74.5666859,37.4859984 74.91365,37.1327572 75.3992208,37.084237 L75.5136438,37.0785283 L80.0235694,37.0783743 Z M96.4829602,37.0786866 C97.2280134,37.0789436 97.6899128,37.8162016 97.3190529,38.4457869 C97.163488,38.7098856 96.9234523,38.8571866 96.6246314,38.889148 L96.4930411,38.8957883 L82.8170464,38.8951719 C82.4049447,38.8950528 82.084286,38.738745 81.918139,38.4501941 L81.8685658,38.3491454 L81.8309571,38.238498 C81.6680401,37.6408573 82.1027095,37.0803437 82.7288447,37.0791498 L96.4829602,37.0786866 Z M96.4750618,34.4498737 C96.6170665,34.4479284 96.7063999,34.4554451 96.8108908,34.4896322 C97.2488793,34.6328715 97.5012316,35.0536901 97.4305044,35.5170056 C97.3692994,35.9175722 97.0378274,36.2084955 96.6235629,36.2542407 L96.5086699,36.260536 L75.4839118,36.26015 C75.0305296,36.2600983 74.6478298,35.9610274 74.5717347,35.5352784 C74.4898837,35.0773687 74.7372869,34.6488902 75.1719134,34.4954745 C75.2534737,34.4666646 75.3254832,34.4547137 75.4190289,34.4512469 L96.4750618,34.4498737 Z M86.7658659,19.4683146 C87.7826053,19.7845143 88.8698566,20.0228773 90.172518,20.2322588 C90.9743331,20.3611281 91.5153976,20.9916896 91.5231592,21.8091756 L91.5266116,24.3831727 L91.5294423,24.9979184 L91.5243798,25.3203368 L91.5122602,25.6071705 L91.4894647,25.9141122 L91.4852996,25.9587785 C91.3521113,27.3427548 90.9113591,28.6171362 90.1623834,29.7683928 C89.3280679,31.0509225 88.2174086,32.0428793 86.8357017,32.7467994 C86.2706298,33.0347388 85.722218,33.035648 85.1642204,32.7441509 C82.7318478,31.4736053 81.2195584,29.4885765 80.6375069,26.807045 C80.5486163,26.3974777 80.4988551,25.9678854 80.4821311,25.5034912 L80.4756875,25.1484392 L80.4750079,21.9871167 C80.474641,20.9393946 80.9692716,20.3566393 81.9967112,20.2004402 C83.1569493,20.0239683 84.2502129,19.7780271 85.2883269,19.4537041 C85.7815192,19.2996048 86.2523659,19.3086061 86.7658659,19.4683146 Z M85.974321,21.1476735 L85.9566331,21.1507433 C84.9270658,21.4680194 83.9017902,21.7180497 82.8771992,21.8993608 L82.3022222,21.992118 L82.3087714,23.5336779 L82.3043826,25.0466672 C82.3006587,25.6074979 82.3484216,26.1047286 82.4589861,26.5712014 C82.9215787,28.5225515 84.0093993,29.986989 85.7289164,30.9799068 L85.9984189,31.1291743 L86.0293076,31.1133845 C86.5435479,30.8478079 86.9895604,30.5489873 87.376083,30.2033626 C88.8777883,28.8605529 89.651233,27.2010343 89.692362,25.2100891 L89.6970791,24.7988103 L89.6918225,22.7969189 L89.6967901,21.9901427 L89.2262447,21.9156418 C88.3734568,21.7695566 87.5038334,21.570257 86.6011407,21.3184993 L86.0554269,21.1611558 L86.0241249,21.1500137 L85.974321,21.1476735 Z M87.600054,23.9635041 C87.9803011,24.0891855 88.2196787,24.4321709 88.2212293,24.8379391 C88.2320227,24.99566 88.1847148,25.1489884 88.0925035,25.3008908 L88.0151317,25.4145965 L86.0835559,27.9850986 C85.7264921,28.4572415 85.1188255,28.5029837 84.6942256,28.0921359 C84.47241,27.8775484 84.2569313,27.6620885 84.0477748,27.4455537 C83.6941234,27.0794905 83.6874114,26.5265518 84.0347171,26.1681011 C84.3579518,25.8343649 84.8666294,25.7976412 85.2295205,26.0738334 L85.2424691,26.0849575 L86.142992,24.8753699 L86.5869843,24.285094 C86.8264401,23.9673992 87.2291267,23.8409112 87.600054,23.9635041 Z" id="形状结合"></path>
            </g>
        </g>
    </g>
</svg>