<?xml version="1.0" encoding="UTF-8"?>
<svg width="40px" height="40px" viewBox="0 0 40 40" version="1.1" xmlns="http://www.w3.org/2000/svg" xmlns:xlink="http://www.w3.org/1999/xlink">
    <title>形状结合</title>
    <g id="页面-1" stroke="none" stroke-width="1" fill="none" fill-rule="evenodd">
        <g id="官网首页2" transform="translate(-607.000000, -432.000000)" fill="#44D7B6">
            <g id="编组-34" transform="translate(345.000000, 416.000000)">
                <path d="M287.327173,37.8242336 C287.798289,40.3882519 286.562353,43.0223192 284.34462,44.1461857 C284.113133,44.2635318 284.005349,44.3832876 283.995954,44.6712731 C283.983218,45.0618104 283.869797,45.4445022 283.684921,45.7831472 C283.573327,45.9874662 283.569099,46.1780556 283.603653,46.3925176 C283.695204,46.9608113 283.781587,47.5300016 283.873138,48.1188617 C283.984419,48.0732458 284.000182,47.9713665 284.040477,47.8961058 C284.80039,46.477417 285.558999,45.0578877 286.311867,43.6347718 C286.405766,43.4572395 286.46861,43.4023772 286.65192,43.5446607 C287.137025,43.9211882 287.644678,44.265269 288.091263,44.6957062 C288.201291,44.8017885 288.27426,44.7808858 288.383087,44.7117895 C288.763279,44.4704846 289.144097,44.2292918 289.534467,44.007993 C289.692411,43.9184423 289.750452,43.8173475 289.748312,43.6237321 C289.739439,42.8202978 289.807189,42.0229718 289.980999,41.2395436 C290.282376,39.8810409 290.970051,38.7932077 292.000912,37.9514426 C292.283968,37.7203369 292.584353,37.5132159 292.862816,37.2762821 C293.009798,37.1511466 293.060323,37.1907103 293.140652,37.3512066 C294.001825,39.0706578 294.870253,40.7859062 295.736907,42.5021632 C295.780334,42.5881834 295.825848,42.6728586 295.890466,42.7967053 C296.88124,40.9220815 297.854268,39.0811372 298.820668,37.2528017 C300.686447,38.454955 301.822951,40.1420156 301.952552,42.5281654 C301.989559,43.209266 301.981677,43.8890777 301.999827,44.5692257 C302.002869,44.6924559 301.965914,44.7716954 301.876817,44.8528402 C299.976223,46.584508 297.77514,47.3780233 295.294342,47.2334421 C293.642929,47.1372228 292.122997,46.5720673 290.752188,45.5705344 C290.609015,45.4659092 290.508278,45.4572231 290.361191,45.5576454 C290.076622,45.7519334 289.779003,45.9249825 289.482115,46.0974712 C289.372035,46.1613559 289.356846,46.214425 289.427206,46.3307064 C290.306125,47.783411 290.523519,49.4211571 290.570652,51.1036785 C290.584536,51.5976642 290.567781,52.0927146 290.583231,52.5867003 C290.589181,52.7764491 290.527643,52.8902647 290.390734,53.0015026 C288.433978,54.5910549 286.242551,55.5617662 283.805493,55.8764825 C280.35104,56.3224986 277.153128,55.5687151 274.247876,53.4831596 C273.967325,53.2816987 273.609264,53.1070244 273.462177,52.8174698 C273.384719,52.6649791 273.383207,52.4674191 273.396137,52.2618888 L273.418678,51.952253 C273.421677,51.9011966 273.423657,51.8508013 273.423657,51.8016469 C273.423762,50.4749185 273.499341,49.1587815 273.890754,47.8851782 C274.051569,47.3620521 274.260455,46.8634152 274.534742,46.3988501 C274.601866,46.2852025 274.597429,46.2379054 274.487923,46.1735724 C274.153715,45.977267 273.82123,45.7768148 273.495583,45.5648184 C273.380335,45.4898379 273.306217,45.5359022 273.215815,45.6005714 C272.149775,46.3634893 270.988269,46.8758559 269.722738,47.0979393 C266.864618,47.5993782 264.329536,46.8352835 262.114047,44.8370371 C262.053918,44.7829032 262,44.7359424 262,44.6345114 C262.001932,43.4320219 261.985751,42.2286918 262.284622,41.0530451 C262.609643,39.7746225 263.284165,38.7533078 264.258707,37.9536842 C264.534351,37.7275659 264.827899,37.526217 265.099106,37.2943828 C265.255536,37.1606732 265.316344,37.1756917 265.413793,37.3711565 C266.267763,39.0839952 267.133686,40.7900531 267.996111,42.4980723 C268.040739,42.5863901 268.085992,42.6743717 268.149357,42.7986106 C269.135382,40.9332333 270.108619,39.0922329 271.086135,37.2429948 C272.632844,38.2866692 273.787094,39.6247736 274.102825,41.6300809 C274.213114,42.3306832 274.267188,43.0359367 274.253617,43.7456734 C274.250329,43.9184423 274.302733,44.0087215 274.444653,44.0886894 C274.812526,44.2958664 275.175442,44.5147556 275.529014,44.7486633 C275.66968,44.8417444 275.754707,44.8465638 275.882273,44.7212041 C276.402818,44.20951 277.008077,43.8212703 277.589639,43.3981182 C277.760631,43.2737111 277.789443,43.404955 277.845971,43.5156324 C278.557969,44.9095519 279.27002,46.3034153 279.982122,47.6972787 C280.026854,47.784868 280.072525,47.8718969 280.142623,48.0072316 C280.236888,47.3587458 280.324577,46.7644499 280.407515,46.1694255 C280.414562,46.1189342 280.40193,46.0558901 280.377973,46.0112829 C280.126077,45.5418423 280.006811,45.0308768 279.973771,44.4963187 C279.963123,44.3247826 279.895269,44.2430214 279.754028,44.169554 C277.97766,43.24642 276.886357,41.7441207 276.629033,39.641025 C276.264082,36.6583377 278.02949,33.9845946 280.670946,33.2707111 C283.717439,32.4473269 286.719983,34.519545 287.327173,37.8242336 Z M286.839693,46.259559 C285.948508,47.9488051 285.044378,49.6302058 284.148391,51.3165378 C283.64768,52.2590054 283.122645,53.1869027 282.630233,54.2145499 C283.014653,54.1684296 283.350635,54.1336853 283.685156,54.0870606 C285.516904,53.8319141 287.204227,53.1606764 288.744932,52.0639329 C288.866183,51.9776325 288.916029,51.889763 288.914649,51.7295469 C288.909035,51.0768581 288.875108,50.426523 288.804435,49.7785416 C288.65192,48.3799708 288.13769,47.1745673 287.162836,46.2090116 C287.010059,46.0576497 286.948051,46.0542873 286.839693,46.259559 Z M277.165895,45.9062485 C276.401492,46.5753007 275.837729,47.3527888 275.518241,48.3167194 C275.170097,49.3668943 275.12761,50.4652629 275.088828,51.5647523 C275.079381,51.8317792 275.146191,51.991491 275.368022,52.1453747 C276.739823,53.0969766 278.232718,53.7060668 279.834232,54.0157956 C280.304513,54.1067472 280.780014,54.1733218 281.290903,54.1873316 C280.017751,51.3447424 278.528405,48.6730167 277.165895,45.9062485 Z M281.980697,47.024371 C281.838882,48.03459 281.736057,49.0536631 281.541264,50.0520578 C281.414637,50.7009358 281.792585,51.1039139 281.982733,51.654331 C282.164791,51.2766267 282.320177,50.9556901 282.474153,50.633969 C282.509124,50.5608938 282.539815,50.4936468 282.524992,50.3985482 L282.266259,48.7123983 L282.266259,48.7123983 L282.011127,47.0256599 L281.980697,47.024371 Z M299.30656,39.9686583 C298.349087,41.7824796 297.398555,43.5832437 296.422291,45.432762 C297.859441,45.3074583 299.100597,44.8208138 300.222121,43.9716515 C300.315394,43.9010421 300.328756,43.8210181 300.329592,43.7125822 C300.333819,43.1523021 300.299527,42.5940395 300.215022,42.0425015 C300.096382,41.2682077 299.832064,40.5606005 299.30656,39.9686583 Z M292.381005,40.0197436 C292.053321,40.4252434 291.815414,40.8843166 291.671773,41.399317 C291.457928,42.1657093 291.436893,42.9562546 291.40876,43.7467437 C291.404271,43.874233 291.468837,43.9282548 291.546973,43.9882167 C291.857119,44.2263273 292.183497,44.4361382 292.525377,44.6162482 C293.387281,45.0702219 294.293081,45.3522112 295.30917,45.4242216 C294.379569,43.582773 293.476953,41.7984283 292.579347,40.0111696 C292.491816,39.8368876 292.440507,39.9461081 292.381005,40.0197436 Z M271.5678,39.9669659 C270.610014,41.7808432 269.659899,43.5803185 268.70253,45.3934673 C268.755769,45.4065805 268.779362,45.4189651 268.801806,45.4170038 C270.153825,45.2996577 271.377287,44.8069609 272.484248,43.9688944 C272.588117,43.8902714 272.592293,43.7946685 272.591562,43.6804606 C272.587909,43.1392898 272.558001,42.5995201 272.47835,42.0656345 C272.361432,41.2815338 272.094192,40.5677623 271.5678,39.9669659 Z M264.710397,39.9352022 L264.690334,39.9577651 L264.650852,40.0092643 C264.390448,40.3253254 264.184955,40.6786527 264.04006,41.0712634 C263.730854,41.9091058 263.699537,42.7916113 263.672291,43.6760222 C263.667332,43.8364065 263.719893,43.9266857 263.838951,44.0149474 C264.56452,44.5525316 265.349436,44.948897 266.20351,45.1848781 C266.636211,45.3044098 267.071469,45.4083065 267.518523,45.4149191 C267.52463,45.3815197 267.530528,45.3699196 267.527344,45.3635872 C266.628799,43.5755439 265.728531,41.7885094 264.832231,39.9991772 C264.78183,39.8985518 264.744396,39.902387 264.710397,39.9352022 Z M282.000511,34.9933059 C280.007113,34.9881617 278.371568,36.7297485 278.361235,38.8683731 C278.350795,41.0514928 279.976266,42.8000845 282.021859,42.8063215 C284.036604,42.8124691 285.628148,41.1047861 285.63732,38.9271022 C285.646312,36.7526685 284.024703,34.998585 282.000511,34.9933059 Z M268.158314,29.6886142 C270.138297,29.696939 271.822018,31.4871117 271.802915,33.6143603 C271.78569,35.5363934 271.066489,37.0830197 269.500573,38.0847767 C268.518202,38.7132565 267.50467,38.6494839 266.552207,37.9886134 C265.375826,37.1723462 264.758614,35.9571358 264.510477,34.5030302 C264.466529,34.245418 264.447164,33.9860124 264.454054,33.7887544 C264.450452,31.4773609 266.100247,29.6800151 268.158314,29.6886142 Z M295.9041,29.6885779 C297.900628,29.7055578 299.567125,31.5076108 299.544942,33.6485891 C299.52683,35.3957798 298.894117,36.8366041 297.56736,37.8692387 C296.392754,38.7834064 295.040734,38.712853 293.927614,37.7108719 C292.77566,36.6739782 292.247859,35.3112726 292.193627,34.0646242 C292.192323,31.4725863 293.8512,29.6711497 295.9041,29.6885779 Z M295.868006,31.5018109 C294.981414,31.5038898 294.19462,32.0980737 293.968144,33.0230009 C293.664522,34.2631488 294.055049,35.3197121 294.862513,36.2045153 C295.463596,36.8630882 296.128462,36.867067 296.780018,36.2608347 C297.418107,35.6671553 297.765834,34.900763 297.868502,34.0095713 C298.024567,32.6548793 297.096114,31.4989024 295.868006,31.5018109 Z M268.155777,31.5011047 C267.272787,31.4887761 266.473465,32.0776922 266.235715,32.9953344 C265.924003,34.1987765 266.285196,35.2418905 267.04986,36.1241719 C267.724747,36.9028928 268.443688,36.8921894 269.156156,36.1493895 C269.733072,35.5479767 270.051151,34.8066339 270.132681,33.9548378 C270.25915,32.6319761 269.35382,31.5177483 268.155777,31.5011047 Z M291.282864,23.7059545 C292.331001,27.9253152 290.675309,32.5306179 287.259794,34.9093145 C287.134734,34.9963995 287.071212,35.0138277 286.973345,34.8660523 C286.696083,34.446935 286.351593,34.0908058 285.978134,33.736694 C286.611056,33.3299613 287.177325,32.8614174 287.689728,32.3159317 C287.827211,32.1695573 287.815102,32.1057286 287.659037,31.9960599 C287.194706,31.6696314 286.723538,31.3587819 286.224967,31.0944449 C286.044109,30.9985618 285.963102,31.0099938 285.895352,31.2330299 C285.71794,31.8165663 285.467454,32.3679361 285.212218,32.9168402 C285.141389,33.0692109 285.089872,33.095213 284.94576,33.006559 C284.592553,32.7892389 284.218051,32.6119308 283.822357,32.5076419 C283.61535,32.4530597 283.659925,32.3719709 283.732529,32.2288468 C283.968504,31.7637213 284.169457,31.2810555 284.349844,30.7875181 C284.417542,30.6023085 284.448703,30.5022785 284.203018,30.4859711 C283.796781,30.4590162 283.392162,30.4003432 282.987804,30.3468818 C282.834558,30.3266516 282.799952,30.3897518 282.80251,30.5445321 C282.810913,31.0480444 282.800213,31.5519491 282.809086,32.0554054 C282.811853,32.2152292 282.770618,32.2707081 282.619826,32.2487967 C282.213484,32.1899556 281.805472,32.1881623 281.398921,32.2473957 C281.247554,32.2694192 281.185859,32.2338343 281.190818,32.047728 C281.204076,31.5537984 281.185807,31.05886 281.199535,30.5649864 C281.204911,30.3708666 281.143529,30.3293415 280.979635,30.3483388 C280.514626,30.4023606 280.046641,30.4290353 279.566913,30.5337726 C279.765882,31.1477943 280.001544,31.714687 280.282199,32.2590519 C280.353029,32.3964601 280.357674,32.4519949 280.196651,32.4999645 C279.787699,32.6215696 279.393676,32.7909761 279.027525,33.0240432 C278.904448,33.1023861 278.855175,33.0628784 278.796768,32.9395361 C278.526031,32.3677119 278.277945,31.7851843 278.078768,31.1805772 C278.026937,31.0232751 277.982571,30.9821423 277.827342,31.0547131 C277.286179,31.3077862 276.768505,31.6038414 276.269412,31.9420941 C276.107397,32.0518749 276.128066,32.1179452 276.247803,32.2442015 C276.514522,32.5255184 276.785416,32.8003907 277.079955,33.0481401 C277.373659,33.295273 277.684953,33.5146666 278.019891,33.7342282 C277.63521,34.1117084 277.269007,34.4931113 276.970606,34.9410327 C276.8837,35.071492 276.816159,34.9548184 276.755717,34.9122846 C275.400775,33.9594498 274.334004,32.7191899 273.561719,31.1906643 C272.63859,29.3635056 272.276876,27.4042625 272.449225,25.34286 C272.826077,20.8355138 275.990897,17.0693983 280.103534,16.1995575 C285.11409,15.1397999 289.963885,18.3961827 291.282864,23.7059545 Z M277.136112,27.1533974 L276.680159,27.158581 L276.680159,27.158581 L276.224049,27.1565356 L274.051621,27.1565356 C274.08774,27.4093285 274.115404,27.6391453 274.154081,27.8668887 C274.315365,28.8166413 274.620604,29.7103547 275.069328,30.5473565 C275.11526,30.6330404 275.136921,30.7404116 275.271533,30.6325361 C275.934781,30.1011162 276.656227,29.6814385 277.433679,29.3754083 C277.529457,29.337694 277.570692,29.2892761 277.548248,29.172042 C277.430964,28.5607102 277.348965,27.9436064 277.31342,27.3202822 C277.306113,27.1918403 277.258041,27.1495867 277.136112,27.1533974 Z M286.852805,27.1543514 C286.747266,27.1539634 286.691991,27.1808062 286.685466,27.3028035 C286.6518,27.9357105 286.566408,28.5615004 286.454293,29.1478387 C286.446254,29.3217284 286.444375,29.3271642 286.5995,29.3890315 C287.350906,29.6886732 288.050326,30.0924357 288.692278,30.6063714 C288.823967,30.7117811 288.867863,30.6737305 288.93744,30.5408055 C289.465762,29.5318194 289.797047,28.4558104 289.926909,27.3059417 C289.942933,27.1641065 289.900968,27.1549161 289.79736,27.1551402 C288.815824,27.1574378 287.834289,27.1580543 286.852805,27.1543514 Z M281.006678,27.1538345 C280.686406,27.1638095 280.365665,27.1569727 280.045133,27.1569727 C279.715884,27.1569727 279.386687,27.1591022 279.05749,27.1557398 C278.957118,27.1546751 278.903148,27.1627447 278.917972,27.3049162 C278.966148,27.7663431 279.017247,28.2263691 279.092252,28.6842655 C279.118611,28.8452101 279.178583,28.8602286 279.296597,28.8353472 C279.875341,28.7133498 280.461705,28.6596082 281.049165,28.6241914 C281.184299,28.6160097 281.198861,28.5559917 281.196982,28.4364601 C281.191397,28.0737743 281.186804,27.7106401 281.198653,27.3483466 C281.204133,27.1819662 281.146561,27.1494634 281.006678,27.1538345 Z M282.968851,27.1542324 C282.851568,27.1517106 282.799321,27.1759756 282.802818,27.3196041 C282.811952,27.7017916 282.808089,28.0843713 282.804488,28.4667269 C282.803548,28.5660844 282.821451,28.6145583 282.929339,28.6214511 C283.527082,28.6596699 284.123363,28.7152608 284.712754,28.835577 C284.81892,28.8572081 284.879571,28.8444872 284.904259,28.6967118 C284.982553,28.2287843 285.035844,27.7584472 285.080732,27.2859806 C285.091519,27.1720809 285.050111,27.1578453 284.988586,27.1563613 L283.959156,27.1566421 C283.62902,27.1567541 283.298831,27.1613494 282.968851,27.1542324 Z M275.05593,22.0649133 C274.533923,23.0670626 274.205613,24.1350019 274.072515,25.2752879 C274.060734,25.3762866 274.08217,25.4121242 274.120647,25.424281 L274.152448,25.4296065 L274.229153,25.4291716 C274.707003,25.4288354 275.184852,25.4290035 275.662702,25.4290595 C276.114454,25.4291155 276.567197,25.4107907 277.017696,25.4364006 C277.265781,25.4505225 277.325911,25.3495959 277.333061,25.1113172 C277.349085,24.5800654 277.425969,24.0552581 277.535423,23.5371756 C277.573996,23.3545998 277.537876,23.2544017 277.360882,23.1860338 C276.623046,22.9007942 275.940121,22.4992172 275.313984,21.9939116 C275.166271,21.8747162 275.126759,21.9290182 275.05593,22.0649133 Z M279.093724,23.9147118 C279.013395,24.3631936 278.970282,24.8159905 278.919809,25.2684511 C278.901749,25.4307407 278.969134,25.4310769 279.075664,25.4301243 C279.396823,25.4270981 279.718034,25.4290035 280.039193,25.4290595 C280.360404,25.4290595 280.681719,25.4227271 281.002669,25.4320856 C281.138899,25.4360084 281.20524,25.4142652 281.199081,25.2409359 C281.186188,24.8779699 281.188537,24.5139391 281.198298,24.1506929 C281.202369,23.9980421 281.148451,23.9668843 281.018171,23.9631857 C280.436922,23.946542 279.859536,23.8810322 279.289718,23.7544396 C279.1502,23.7233939 279.118935,23.7741094 279.093724,23.9147118 Z M288.840372,21.8817323 C288.136046,22.4459351 287.392574,22.8942489 286.585162,23.2151294 C286.48098,23.2565424 286.426958,23.2981795 286.452064,23.4318331 C286.566581,24.0423803 286.652286,24.6576349 286.684334,25.2802866 C286.690493,25.3998743 286.744933,25.4313123 286.851411,25.43092 C287.831016,25.4273895 288.810725,25.4264369 289.790329,25.431825 C289.928908,25.4325451 289.933449,25.3859766 289.918939,25.2533317 C289.787876,24.0558297 289.424648,22.9460851 288.840372,21.8817323 Z M284.762272,23.7514599 L284.709027,23.7595448 C284.13874,23.8764426 283.562554,23.9489013 282.981723,23.9632473 C282.849773,23.9664416 282.799247,24.0010738 282.80311,24.1518193 C282.812557,24.5145611 282.815115,24.8781436 282.802223,25.2407173 C282.796064,25.4139906 282.863135,25.4357338 282.998739,25.431811 C283.310606,25.4227327 283.622892,25.428897 283.935021,25.4287289 C284.264479,25.4285047 284.593989,25.4262071 284.923446,25.4298497 C285.032848,25.4310265 285.09042,25.4254226 285.075805,25.2664393 C285.034205,24.81297 284.978304,24.3627509 284.905804,23.9137087 C284.888915,23.8091955 284.866381,23.760836 284.804437,23.7520878 L284.762272,23.7514599 Z M281.195239,18.8649732 C281.160007,18.8817289 281.141843,18.8840265 281.134379,18.8947861 C280.491748,19.8259897 279.988741,20.8373294 279.61001,21.9228091 C279.546175,22.105665 279.662049,22.0891334 279.74029,22.1009017 C280.169441,22.1652347 280.599219,22.2220585 281.033224,22.2427369 C281.188662,22.2501902 281.199258,22.1788522 281.196961,22.049962 L281.194065,21.6028111 L281.194065,21.6028111 L281.195239,21.1555761 L281.195239,18.8649732 Z M282.805861,18.7999565 L282.806167,20.4738129 C282.806095,21.018535 282.805572,21.5533313 282.803769,22.0881135 C282.803355,22.2097186 282.835455,22.2451354 282.950964,22.241661 C283.394051,22.2284918 283.831658,22.163038 284.26963,22.100162 C284.364522,22.0864884 284.443754,22.0811086 284.386026,21.9148403 C284.006409,20.8209548 283.49197,19.808102 282.805861,18.7999565 Z M279.680474,18.0980429 C278.244942,18.5862565 277.087873,19.385768 276.10023,20.5257178 C276.679444,20.9506631 277.273793,21.3006841 277.909639,21.5723622 C278.058604,21.6359667 278.041693,21.5085335 278.065912,21.439157 C278.256999,20.8922142 278.470322,20.3560871 278.715276,19.834362 C278.98664,19.2563735 279.303519,18.7066288 279.680474,18.0980429 Z M284.321059,18.1070204 C285.018233,19.2079108 285.558665,20.3050465 285.941154,21.4876421 C285.985572,21.6250503 286.055253,21.5830209 286.136991,21.5426166 C286.681338,21.273124 287.188364,20.93588 287.687353,20.5812638 C287.839451,20.4732202 287.814293,20.4161723 287.703482,20.2983779 C287.145147,19.7048105 286.531276,19.1926121 285.84073,18.7878408 C285.378539,18.5169472 284.902881,18.2819748 284.321059,18.1070204 Z" id="形状结合"></path>
            </g>
        </g>
    </g>
</svg>