<?xml version="1.0" encoding="UTF-8"?>
<svg width="40px" height="40px" viewBox="0 0 40 40" version="1.1" xmlns="http://www.w3.org/2000/svg" xmlns:xlink="http://www.w3.org/1999/xlink">
    <title>形状结合</title>
    <g id="页面-1" stroke="none" stroke-width="1" fill="none" fill-rule="evenodd">
        <g id="官网首页2" transform="translate(-803.000000, -432.000000)" fill="#44D7B6">
            <g id="编组-34" transform="translate(345.000000, 416.000000)">
                <path d="M478.18454,16 C478.333748,16.0316146 478.464128,16.1000268 478.589365,16.1780163 L478.83704,16.3386996 C480.42113,17.3395539 482.005455,18.3399783 483.588763,19.3420443 C485.441428,20.5146914 487.294914,21.6859314 489.148009,22.857914 C490.929573,23.9846715 492.711137,25.1115073 494.494108,26.236154 C495.336029,26.7671677 496.176504,27.3005658 497.01784,27.8325958 C497.312878,28.019164 497.56398,28.2489637 497.755239,28.5451353 C498.015137,28.9475878 498.011033,29.3942491 497.992544,29.8454055 C497.956739,30.7175032 497.063377,31.4893395 496.240765,31.5242453 C496.039852,31.5327275 495.839916,31.5681414 495.637673,31.5604801 C495.513255,31.5557505 495.460134,31.6171972 495.462753,31.7379407 C495.464004,31.7964558 495.461854,31.8550882 495.461854,31.9136424 C495.461815,38.5505906 495.46287,45.1874997 495.457633,51.8244479 C495.457437,52.065505 495.524474,52.2018057 495.745557,52.3307969 C496.370929,52.6957247 496.726398,53.2541784 496.746763,53.9902099 C496.76275,54.5688721 496.751883,55.1483553 496.749225,55.7274084 C496.748148,55.9615904 496.739937,55.9930772 496.551473,55.9971831 L489.171384,55.9977817 C488.921728,55.9977817 488.903043,55.9839054 488.901675,55.7382358 C488.898157,55.1200945 488.876971,54.5008586 488.906913,53.8840853 C488.941076,53.1803016 489.298851,52.6510468 489.917422,52.3201649 C490.127756,52.207669 490.19319,52.0757462 490.192916,51.8459855 C490.187131,47.0635006 490.18889,42.2809765 490.188186,37.4984916 C490.188108,36.8298482 490.005175,36.2385995 489.450904,35.8119514 C489.121078,35.5580733 488.752319,35.4212254 488.330166,35.4231016 C487.276113,35.4277531 486.221981,35.4242351 485.167889,35.4249387 C484.911118,35.4250951 484.908382,35.4331473 484.960643,35.6756116 C485.473246,38.05331 484.917059,40.1622768 483.347706,42.0066944 C483.032381,42.3772899 482.674841,42.7122761 482.254681,43.0146236 C482.848119,43.0191579 483.414977,43.018767 483.981834,43.0202523 C484.330892,43.0212296 484.6821,42.9915616 485.032057,43.0290081 C485.303642,43.0580507 485.575696,43.0139201 485.849744,43.0295163 C486.675796,43.0765003 487.419176,43.6545763 487.641314,44.4517809 C487.700885,44.6655935 487.735986,44.8826896 487.732898,45.1066261 C487.727895,45.4644008 487.726136,45.822449 487.732937,46.1801846 C487.741341,46.6235234 487.632285,47.0321127 487.383097,47.3979786 C487.290184,47.5344356 487.279943,47.6458371 487.379345,47.7856557 C487.628376,48.1360818 487.734305,48.5336873 487.73196,48.962368 C487.729888,49.3397259 487.730631,49.7171228 487.731725,50.0945588 C487.733015,50.5298064 487.621535,50.9329234 487.371683,51.2898771 C487.282445,51.4173439 487.282562,51.5158072 487.372934,51.6401078 C487.631073,51.995068 487.729263,52.4018984 487.731139,52.8351524 C487.73282,53.2320544 487.740989,53.62923 487.729497,54.0258583 C487.704793,54.8797409 487.294289,55.4891656 486.533905,55.8694941 C486.324001,55.9744852 486.097954,55.9968045 485.869874,55.9968436 C480.618878,55.9981335 475.367881,55.9932475 470.116924,56.0020446 C469.168956,56.003645 468.280754,55.1343226 468.250304,54.1102498 C468.236349,53.64209 468.239086,53.1731484 468.250499,52.7049104 C468.259333,52.3403735 468.358617,51.995068 468.571609,51.6959648 C468.685278,51.5362894 468.698607,51.4132005 468.579192,51.2438703 C468.35678,50.9285455 468.254916,50.563774 468.249053,50.1776604 C468.242369,49.7352598 468.240297,49.2926246 468.249131,48.8503021 C468.267894,47.9123798 468.975313,47.0842173 469.885834,46.9227047 C470.008532,46.9009326 470.131777,46.9003072 470.255374,46.9003072 L475.701577,46.9002681 C475.753643,46.9002681 475.805708,46.9011671 475.857735,46.8999554 C476.060368,46.895343 476.065919,46.8845546 476.035899,46.6845401 C475.938804,46.0373952 475.95827,45.3884132 476.015495,44.7395485 C476.026362,44.6163424 476.054271,44.4938007 476.103717,44.3803667 C476.16106,44.2487566 476.134206,44.1792577 475.988602,44.1395831 C475.336689,43.9620834 474.730977,43.6777947 474.163143,43.3149386 C473.09963,42.6353505 472.267246,41.7403471 471.670681,40.625746 C471.08682,39.5348324 470.810075,38.3694557 470.827001,37.1359482 C470.833802,36.641052 470.908812,36.1511982 471.01951,35.6679112 C471.072123,35.4382287 471.063015,35.4252124 470.822349,35.4250169 C469.761729,35.424157 468.701109,35.4228671 467.640527,35.4252124 C466.760378,35.4271277 466.007147,36.0570346 465.846612,36.9239336 C465.809908,37.12215 465.788839,37.3220863 465.788879,37.5251497 C465.790481,42.2946574 465.791615,47.064126 465.785712,51.8336336 C465.7854,52.069492 465.850755,52.2051673 466.067265,52.3244646 C466.729693,52.6895097 467.075976,53.2620351 467.078126,54.0278518 C467.079729,54.5938886 467.080628,55.1600035 467.077383,55.7261185 C467.076063,55.9609259 467.06733,55.9929454 466.879934,55.997162 L459.500324,55.9977817 C459.245625,55.9977817 459.231436,55.9883615 459.229911,55.7401121 C459.226315,55.1480425 459.211032,54.5552694 459.233468,53.9639426 C459.261299,53.2295528 459.626618,52.6777832 460.255235,52.3162952 C460.455562,52.2011021 460.520722,52.0758243 460.520566,51.8552885 L460.516994,41.8705891 L460.516579,31.7882864 C460.511732,31.5806497 460.496722,31.5575485 460.295144,31.56177 C460.066087,31.5665779 459.839727,31.5384344 459.614657,31.5110335 C458.797908,31.411593 457.995231,30.6136067 458.01716,29.9096666 C458.017746,29.8913733 458.007192,29.8759725 458,29.8598682 L458,29.2742091 C458.056912,28.6214746 458.430049,28.1816538 458.960007,27.8469412 C460.301476,26.9996255 461.643376,26.1528961 462.984415,25.3048377 C464.732128,24.1996569 466.480076,23.0947496 468.227633,21.9892561 C470.041132,20.8420554 471.855256,19.695871 473.668403,18.5480449 C474.948543,17.7376285 476.232826,16.9337398 477.508197,16.1157794 C477.598412,16.0578897 477.701214,16.0440524 477.794127,16 L478.18454,16 Z M492.81709,53.4001407 L490.8667,53.4050511 C490.512638,53.4069274 490.254265,53.6909425 490.247737,54.049538 C490.244806,54.2120278 490.256728,54.3753775 490.24375,54.5368901 C490.232923,54.6715882 490.285692,54.6935167 490.406748,54.6927349 C491.212865,54.6876926 492.01906,54.690116 492.825255,54.6902724 C493.481898,54.6904287 494.13862,54.6962138 494.795146,54.6869499 C494.995434,54.6841355 495.272061,54.7904164 495.377052,54.6348453 C495.473561,54.4918214 495.408714,54.2319237 495.395697,54.024756 C495.373456,53.6706948 495.111604,53.4060674 494.76751,53.4045821 L492.81709,53.4001407 Z M463.15525,53.40064 L461.214499,53.4041873 C460.906601,53.4052818 460.680202,53.6066253 460.602651,53.9061584 C460.577596,54.0030973 460.576188,54.099567 460.580605,54.1962713 C460.587915,54.356494 460.508996,54.5683523 460.612541,54.661695 C460.700137,54.7406141 460.908126,54.6895258 461.062837,54.6897994 C461.75849,54.6912066 462.454183,54.6904248 463.149875,54.6903466 C463.949582,54.6902685 464.749327,54.6852261 465.548916,54.6945291 C465.707458,54.6963662 465.746898,54.6488349 465.734507,54.5016286 C465.72196,54.3531324 465.733686,54.2027209 465.731223,54.0532475 C465.725126,53.6863653 465.460459,53.4055554 465.096,53.4041873 L463.15525,53.40064 Z M485.087418,52.2773516 C485.099066,52.6085853 485.0873,52.9406399 485.093242,53.2722254 C485.09504,53.3734248 485.06674,53.4059072 484.963586,53.4041482 C484.618984,53.3982459 484.274031,53.3954706 483.929624,53.4053208 C483.800789,53.4090342 483.780659,53.361112 483.782848,53.248577 C483.789336,52.9170306 483.780815,52.5851714 483.787577,52.253625 C483.789766,52.1458587 483.764437,52.1082168 483.650065,52.1109139 C483.318558,52.1186533 482.986503,52.1207641 482.655152,52.1102494 C482.525653,52.1061451 482.508337,52.1536373 482.510643,52.2655469 C482.517444,52.5970543 482.509118,52.9289525 482.515138,53.2604989 C482.517053,53.3669753 482.491255,53.4069625 482.376844,53.4045782 C482.032281,53.3973859 481.687406,53.3976205 481.342882,53.4046173 C481.230464,53.4069235 481.199702,53.3711968 481.201695,53.2619061 C481.207832,52.9238319 481.20322,52.5855623 481.203923,52.2473709 C481.204079,52.1743541 481.215181,52.1098976 481.100769,52.1115002 C480.678616,52.1174025 480.256307,52.1138455 479.809958,52.1138455 C479.980539,52.5826698 479.928278,53.0402367 479.932735,53.4927221 C479.936096,53.8361905 479.966859,54.1847403 479.85878,54.5178893 C479.809138,54.6707634 479.842089,54.6943336 479.993751,54.6937956 C481.522101,54.688275 483.050491,54.6904639 484.578841,54.6904248 C484.949553,54.6903857 485.320344,54.6949981 485.690979,54.6885877 C486.054304,54.6822945 486.325499,54.4648857 486.351101,54.1294695 C486.388196,53.6435246 486.388118,53.1543744 486.351219,52.6683903 C486.326593,52.3442315 486.058682,52.122953 485.729129,52.1143927 C485.573128,52.1103275 485.416267,52.1226794 485.261126,52.1107966 C485.128265,52.1006336 485.082375,52.1349531 485.087418,52.2773516 Z M470.317181,52.1155302 C469.87306,52.1121686 469.618478,52.3650695 469.612302,52.8135288 C469.60726,53.1776749 469.61027,53.541899 469.610817,53.9060842 C469.611575,54.4087709 469.815465,54.6515047 470.274508,54.6859969 L470.394614,54.6903115 L476.013592,54.6905216 L477.906123,54.6894515 C478.36541,54.6887479 478.62046,54.4352607 478.62261,53.9830098 C478.624604,53.5668373 478.628317,53.1504694 478.621047,52.7344142 C478.614988,52.3864507 478.348914,52.1259276 477.9997,52.1147875 C477.830761,52.1094324 477.661157,52.1202599 477.492569,52.1111914 C477.381754,52.1051718 477.350014,52.1403903 477.352399,52.2511273 C477.359552,52.5826346 477.348334,52.914611 477.358106,53.2460011 C477.362054,53.3789793 477.317337,53.4078264 477.193114,53.4046993 C476.861646,53.3964126 476.529591,53.3946146 476.198279,53.405442 C476.061314,53.4098981 476.039659,53.3581843 476.0422,53.2386525 C476.049236,52.9071452 476.041106,52.5753251 476.046813,52.2437005 C476.048493,52.1450418 476.026096,52.1087679 475.919619,52.1109959 C475.581584,52.1179536 475.243197,52.1193999 474.905241,52.1108787 C474.783481,52.1078298 474.771637,52.1582145 474.773201,52.2587104 C474.778438,52.5902959 474.769409,52.9221941 474.777696,53.2536233 C474.780745,53.3755004 474.743767,53.4075137 474.62447,53.4046993 C474.286474,53.3968035 473.948009,53.3957481 473.610091,53.4054811 C473.482194,53.4091945 473.46093,53.3631095 473.463354,53.2493236 C473.47039,52.9177772 473.461712,52.5859571 473.468044,52.2544107 C473.470077,52.1482861 473.446819,52.1082988 473.331353,52.1110741 C472.999884,52.1188918 472.667869,52.1204553 472.336518,52.1100969 C472.208035,52.1061099 472.188764,52.1528204 472.19111,52.2652381 L472.194701,52.7626897 L472.194701,52.7626897 L472.194721,53.3006197 C472.1928,53.3641453 472.177637,53.4070772 472.07705,53.4048948 C471.71951,53.3972335 471.361657,53.3988752 471.004039,53.4039567 C470.907491,53.4053247 470.883139,53.3715134 470.885758,53.2806724 C470.891582,53.0792507 470.889041,52.8775163 470.887165,52.6759382 C470.885484,52.495077 470.949824,52.2504628 470.858044,52.1500842 C470.751216,52.0332494 470.503436,52.1169374 470.317181,52.1155302 Z M462.056147,31.482002 C461.90042,31.482002 461.86567,31.5252734 461.865944,31.6756458 L461.869149,35.638084 L461.869149,35.638084 L461.868954,39.6005514 L461.869061,45.7492631 L461.864536,51.8979455 C461.864263,52.0840837 461.920394,52.1171914 462.089998,52.1150416 C462.799097,52.1058558 463.50851,52.103276 464.217492,52.1165043 C464.407188,52.1198103 464.447683,52.0717318 464.447448,51.88489 C464.441624,47.0504959 464.443344,42.2161409 464.441702,37.3817467 C464.441585,37.1467873 464.449598,36.912766 464.497442,36.6835526 C464.828793,35.0969611 466.125037,34.0468946 467.751225,34.0453702 C469.006974,34.0441585 470.262762,34.0447057 471.518511,34.0459956 C471.611423,34.0460738 471.685652,34.0446666 471.73975,33.9414737 C472.198314,33.0667727 472.821897,32.3340735 473.622439,31.6952188 L473.895857,31.485677 L467.873,31.4855694 L462.056147,31.482002 Z M493.890132,31.4816892 L488.102669,31.4855156 L488.102669,31.4855156 L482.084233,31.485677 C482.156898,31.5410259 482.181016,31.5597101 482.205446,31.5779252 C483.045647,32.2059168 483.722069,32.977245 484.219076,33.9012519 C484.282165,34.0185557 484.3501,34.0479891 484.47401,34.0475591 C485.749264,34.0432594 487.024556,34.0410705 488.299771,34.046152 C489.694205,34.0516634 490.915673,34.9338849 491.368041,36.2457644 C491.545541,36.7604783 491.537176,37.2918047 491.536981,37.8249292 C491.5353,42.5160258 491.537254,47.2072006 491.531352,51.8983364 C491.531118,52.0823247 491.584356,52.117426 491.755093,52.1152949 C492.477209,52.1056995 493.199521,52.1065203 493.921637,52.1148461 C494.07412,52.1166051 494.113443,52.0779468 494.113365,51.9237046 C494.109182,45.1830553 494.108948,38.442406 494.114264,31.7016786 C494.114264,31.5193319 494.063449,31.4816892 493.890132,31.4816892 Z M485.234182,48.2437816 C485.1048,48.2335014 485.086194,48.2859578 485.088618,48.3985319 C485.095575,48.723707 485.085842,49.0492338 485.093699,49.3743698 C485.09667,49.4971459 485.069308,49.543661 484.935509,49.5395958 C484.603963,49.529511 484.271634,49.5283384 483.940205,49.540143 C483.801012,49.5450681 483.780725,49.4914391 483.782953,49.3728063 C483.789207,49.0411035 483.782132,48.7091271 483.78694,48.3773852 C483.788387,48.2804855 483.767201,48.2418272 483.659474,48.2441334 C483.321282,48.2515211 482.9827,48.2525765 482.644587,48.2440552 C482.524507,48.2410454 482.509185,48.2877559 482.510944,48.3904016 C482.51669,48.7221044 482.507621,49.0541199 482.515674,49.3857445 C482.518605,49.5050027 482.487413,49.5424101 482.364832,49.5392831 C482.033207,49.5307618 481.700996,49.5289638 481.369528,49.5401039 C481.225996,49.5449118 481.19754,49.4941752 481.201019,49.3628779 C481.209736,49.0312923 481.202895,48.6993159 481.204263,48.3674959 C481.204576,48.2974107 481.207038,48.2439771 481.10666,48.2452279 C480.709797,48.2499966 480.312895,48.2471041 479.915954,48.2466351 C479.860722,48.246596 479.806624,48.2436643 479.83508,48.3278995 C479.906342,48.53911 479.930241,48.7537023 479.936391,48.969533 L479.938138,49.1316047 L479.931605,49.537497 L479.932801,49.7400793 C479.940931,50.045163 479.956567,50.3545855 479.858846,50.64849 C479.805725,50.8083218 479.853452,50.8237226 479.998039,50.8228626 L481.413195,50.8191737 L481.413195,50.8191737 L484.243569,50.8199163 L485.658759,50.818602 C486.066175,50.8175075 486.341552,50.5945873 486.357813,50.2155878 C486.37763,49.7546983 486.376653,49.2915418 486.355428,48.8306915 C486.339402,48.4822199 486.06942,48.2540618 485.721925,48.2477295 C485.559318,48.2447588 485.395851,48.2565635 485.234182,48.2437816 Z M477.489462,48.2442507 C477.373643,48.2373711 477.350464,48.28115 477.352536,48.3876654 C477.359063,48.7191728 477.350542,49.0509928 477.357304,49.3824611 C477.359689,49.4965987 477.336588,49.5429574 477.209199,49.5394394 C476.871281,49.5301755 476.532894,49.5313091 476.194898,49.5390095 C476.076305,49.5417456 476.038389,49.5109832 476.041555,49.3880507 C476.050311,49.0501329 476.040656,48.711746 476.047028,48.37375 C476.048943,48.2703225 476.017086,48.2427262 475.916082,48.2445634 C475.578047,48.250583 475.239777,48.2510129 474.901742,48.2447588 C474.818281,48.2431953 474.784878,48.2642216 474.775735,48.3241486 L474.773025,48.3766425 L474.77666,49.3909823 C474.778184,49.4940971 474.75907,49.5417847 474.639851,49.5390876 C474.295366,49.5313091 473.95053,49.5323645 473.606006,49.5389704 C473.495973,49.5411202 473.46095,49.5102796 473.463295,49.3978227 C473.47037,49.0598658 473.461184,48.721479 473.468377,48.3835221 C473.470761,48.2715343 473.435933,48.2424135 473.327151,48.2446416 C472.995682,48.2513256 472.663862,48.2511693 472.332316,48.244407 C472.241696,48.2425829 472.202082,48.2621216 472.192887,48.3340132 L472.190856,48.3836784 L472.196523,49.3979791 C472.198751,49.5102014 472.16236,49.5411202 472.052679,49.5389704 C471.714683,49.5323254 471.376335,49.5315436 471.038339,49.5389704 C470.921231,49.5415502 470.881048,49.5136412 470.88437,49.3893015 C470.893439,49.0514228 470.883432,48.7129968 470.889725,48.3750008 C470.891641,48.2729414 470.86467,48.2380356 470.760422,48.2445634 C470.617906,48.2535537 470.474452,48.2464396 470.331389,48.2470259 C469.861548,48.2489803 469.616192,48.4930864 469.611736,48.9690639 C469.608296,49.3332099 469.60982,49.697395 469.610954,50.0615019 C469.612423,50.5341113 469.819272,50.7772985 470.255044,50.8146681 L470.379585,50.8197746 L476.017477,50.8197698 L477.909778,50.8189147 C478.368009,50.8184066 478.621144,50.5654275 478.622786,50.1104404 C478.62431,49.694307 478.628532,49.2780173 478.620753,48.8620012 C478.614187,48.5129432 478.346667,48.2558208 477.996553,48.2481204 C477.827536,48.2443679 477.657971,48.2543354 477.489462,48.2442507 Z M481.056537,44.3767313 L480.992929,44.3771458 C480.700666,44.3900449 480.407191,44.3880514 480.114772,44.3774194 C479.976205,44.3724161 479.922966,44.3987225 479.929768,44.5535119 C479.943957,44.878257 479.929924,45.2040965 479.936686,45.5293107 C479.938993,45.6414157 479.902836,45.6737417 479.792568,45.67167 C479.454337,45.6651814 479.115677,45.6618198 478.777642,45.6724909 C478.637472,45.6769079 478.619217,45.6192136 478.621406,45.5017926 C478.627465,45.1765784 478.616755,44.8509734 478.626683,44.5259156 C478.630514,44.4004424 478.590722,44.3708526 478.473653,44.378123 C478.311593,44.3882078 478.148439,44.3789048 477.985792,44.3815628 C477.625203,44.3873478 477.362491,44.6448611 477.357488,45.0091244 C477.351468,45.4449974 477.356706,45.8810266 477.355182,46.3169387 C477.354713,46.4519104 477.394114,46.5721067 477.472212,46.6806938 C477.629073,46.8988453 477.855277,46.9518098 478.106536,46.9515761 L479.970752,46.950994 L479.970752,46.950994 L481.834968,46.9511453 L484.333566,46.9514434 L485.641419,46.9496991 C486.053175,46.9482919 486.325072,46.7439777 486.352395,46.3826069 C486.388708,45.9029551 486.387184,45.4199809 486.352825,44.9401728 C486.328669,44.602724 486.062947,44.3860188 485.718892,44.3814064 C485.562774,44.3792956 485.406069,44.3885986 485.250576,44.378123 C485.14722,44.3711848 485.100162,44.3933186 485.089745,44.4773013 L485.087734,44.535375 L485.094223,45.5111737 C485.098171,45.6429793 485.0549,45.6748362 484.929661,45.6717482 C484.598037,45.6636179 484.265904,45.663227 483.934279,45.6719827 C483.810487,45.6752662 483.780115,45.6343408 483.782539,45.5172324 C483.789497,45.1855296 483.780897,44.8535141 483.787542,44.5218114 C483.789653,44.4147878 483.765614,44.3752305 483.650264,44.3779276 C483.318601,44.3857452 482.98639,44.3880123 482.654882,44.3774194 C482.524132,44.373237 482.508692,44.4232308 482.510842,44.5338505 C482.517214,44.8655924 482.508575,45.1976079 482.515259,45.5293107 C482.517526,45.6414939 482.481917,45.673429 482.371649,45.6713573 C482.033458,45.665025 481.694914,45.6644778 481.356723,45.6718655 C481.23852,45.6744844 481.198298,45.6414939 481.201347,45.5198904 C481.209087,45.2077318 481.190559,44.8945177 481.20893,44.5832581 C481.216636,44.4528709 481.185892,44.3999422 481.108578,44.3829479 L481.056537,44.3767313 Z M478.010825,31.4856183 C474.830606,31.455364 472.229791,34.0343278 472.195589,37.2519933 C472.1617,40.4374501 474.752585,43.0468245 477.976779,43.0744599 C481.152542,43.1017044 483.761095,40.5055419 483.782867,37.2959676 C483.804444,34.1083218 481.229467,31.5162244 478.010825,31.4856183 Z M478.49582,32.7517763 C478.620589,32.7486883 478.649749,32.7920371 478.647091,32.9086764 C478.639938,33.2207178 478.655261,33.533541 478.640094,33.8449961 C478.63346,33.9812912 478.668152,34.0323803 478.775503,34.0570941 L478.835379,34.0675254 C479.749888,34.1888944 480.372798,34.7807294 480.547757,35.6759673 C480.555223,35.7141565 480.556864,35.7534793 480.564643,35.7915121 C480.597203,35.9508358 480.541229,36.0018069 480.373775,35.9937938 C480.055792,35.9786275 479.736558,35.9882041 479.417872,35.9905494 C479.33567,35.9911358 479.287278,35.9887905 479.260542,35.8807897 C479.168841,35.5100377 478.958038,35.35689 478.573996,35.3550138 C478.17725,35.3530985 477.780466,35.3516913 477.38372,35.3552092 C476.983418,35.3588053 476.695767,35.6321494 476.701083,35.9964518 C476.706321,36.3554772 476.987248,36.6145932 477.378991,36.6244825 C477.879203,36.637108 478.38047,36.59458 478.879822,36.6507889 C479.761067,36.7499557 480.508668,37.5165542 480.564486,38.3766518 C480.627536,39.3474864 480.047075,40.1984373 479.159499,40.4358593 C479.103329,40.4509082 479.046847,40.4660745 478.989582,40.4754556 C478.644707,40.5320554 478.644589,40.5314691 478.64455,40.8881883 C478.644511,41.1483206 478.640993,41.4086091 478.646309,41.6686241 C478.648342,41.7676346 478.621293,41.8064101 478.515403,41.8047293 C478.164234,41.7991006 477.812909,41.7990615 477.461779,41.8052182 C477.353661,41.8070355 477.331264,41.7641167 477.332476,41.6673733 C477.336775,41.3291818 477.330052,40.9908731 477.336463,40.652799 C477.338456,40.5470653 477.310352,40.513254 477.200435,40.5025438 C476.158069,40.4006017 475.550404,39.6313061 475.430637,38.8814764 C475.426533,38.8558345 475.420123,38.8304663 475.417113,38.8047071 C475.389438,38.5664252 475.389595,38.566347 475.6226,38.5663079 C475.941325,38.5662689 476.260051,38.5696304 476.578659,38.564119 C476.665669,38.5626336 476.693226,38.5848749 476.715976,38.6738788 C476.810374,39.0426372 477.019848,39.2012573 477.401466,39.2040716 C477.817678,39.2071205 478.234124,39.2109902 478.65014,39.2005537 C479.009283,39.1915634 479.28204,38.9046166 479.277233,38.5636109 C479.272347,38.2161164 478.99912,37.9449613 478.640681,37.9350329 L478.445601,37.9331762 L478.445601,37.9331762 L477.948819,37.9338993 L477.948819,37.9338993 C477.601676,37.9252999 477.224787,37.9582904 476.852941,37.8639314 C475.943084,37.6329981 475.3482,36.7816172 475.414181,35.7932711 C475.470976,34.9419684 476.207594,34.1766989 477.083913,34.078861 C477.282599,34.056698 477.35714,34.0003327 477.33998,33.7880445 C477.316528,33.497228 477.338495,33.20305 477.331928,32.9104745 C477.329388,32.796845 477.354678,32.7486101 477.481324,32.7517763 C477.81932,32.7602584 478.157824,32.7601802 478.49582,32.7517763 Z M477.821849,17.5150679 C472.43674,20.9255166 467.0487,24.3313139 461.661012,27.7376192 C460.975874,28.1707951 460.29093,28.6043618 459.605127,29.0365605 C459.380409,29.178138 459.2676,29.380107 459.301021,29.6429363 C459.335614,29.914795 459.531759,30.1061319 459.810419,30.163787 C460.029,30.208973 460.214435,30.126106 460.396625,30.0130628 C466.112381,26.467486 471.8297,22.9244109 477.544127,19.3766452 C477.849953,19.1867936 478.12447,19.1817904 478.43057,19.3721501 C481.26005,21.1320589 484.092931,22.8865344 486.924795,24.6426908 C489.828309,26.4432904 492.731705,28.2440855 495.635375,30.0444897 C495.757799,30.12036 495.885227,30.1838002 496.035795,30.1747318 C496.322937,30.177077 496.567277,30.010483 496.651004,29.7554322 C496.741025,29.4813846 496.649519,29.2139429 496.389113,29.0457462 C495.909618,28.7360892 495.424415,28.4353052 494.941949,28.1302606 C489.348813,24.5941041 483.755443,21.0582603 478.164535,17.5185858 C478.037655,17.4382595 477.953146,17.4319272 477.821849,17.5150679 Z M477.845059,20.7211438 C473.14079,23.6398234 468.434879,26.5557668 463.729241,29.4722184 C463.489448,29.6208319 463.250124,29.7702098 463.001818,29.9252047 L462.621441,30.1625167 L493.355467,30.1625167 C493.299884,30.1267509 493.274281,30.1097476 493.248209,30.093565 C488.204654,26.9662324 483.160786,23.8393688 478.11938,20.7085965 C478.009816,20.6405438 477.942545,20.6606352 477.845059,20.7211438 Z M478.071888,22.4435748 C479.79353,22.4568648 481.23784,23.9500355 481.222517,25.7009149 C481.207038,27.4677814 479.739705,28.9138898 477.974832,28.9016161 C476.192682,28.8892252 474.746026,27.4291231 474.755904,25.6528754 C474.766,23.8526276 476.2365,22.4294639 478.071888,22.4435748 Z M477.988841,23.7406744 C476.925172,23.7414958 476.064488,24.6090201 476.066907,25.6778489 C476.069296,26.7411272 476.920482,27.5953224 477.979968,27.5977905 C479.053331,27.6002866 479.910145,26.7482803 479.911594,25.6770281 C479.913038,24.6075348 479.051494,23.7398541 477.988841,23.7406744 Z" id="形状结合"></path>
            </g>
        </g>
    </g>
</svg>