<?xml version="1.0" encoding="UTF-8"?>
<svg width="16px" height="16px" viewBox="0 0 16 16" version="1.1" xmlns="http://www.w3.org/2000/svg" xmlns:xlink="http://www.w3.org/1999/xlink">
    <title>Icon / platform / discord</title>
    <path d="M10.3237814,2.00027054 C10.8539971,2.01866748 11.3612317,2.1400598 11.8645496,2.29278657 C12.5776226,2.50919154 13.2303881,2.83850147 13.8452137,3.24621634 C13.9879604,3.3408161 14.0814418,3.46748434 14.1528388,3.61195313 C14.3564593,4.02379699 14.5534262,4.4388064 14.7194371,4.86656982 C14.8523213,5.20886313 14.9994567,5.54748623 15.1050185,5.89771635 C15.191044,6.18302957 15.2966058,6.46265402 15.3648883,6.75443598 C15.4273666,7.02158169 15.5182998,7.28354318 15.5782298,7.55201928 C15.6563748,7.90220359 15.7276302,8.25371828 15.7843986,8.60826091 C15.8394682,8.95280225 15.8805698,9.29890341 15.9296463,9.64404112 C15.9505039,9.79048266 15.961027,9.93779586 15.9664065,10.0860266 C15.9742399,10.3023398 15.9551756,10.5198 15.9920774,10.735058 C16.030442,10.9588493 15.9245499,11.1283214 15.7807178,11.2900402 C15.3474756,11.7771693 14.8326436,12.1555225 14.2379205,12.4415698 C13.8034514,12.6504508 13.3496347,12.7843677 12.8782637,12.8854362 C12.5703083,12.9514083 12.2605125,12.9649881 11.9504336,12.9942581 C11.8687022,13.0019655 11.8058937,12.9722827 11.7558733,12.9122747 C11.5341794,12.6462301 11.3114473,12.3808736 11.0916881,12.1132691 C11.0147228,12.0195869 11.0206214,11.9838023 11.1353851,11.9353096 C11.3951606,11.8255703 11.6683849,11.7465689 11.9206573,11.6195795 C12.4392644,11.3584438 12.9078041,11.0329418 13.2835701,10.5933878 C13.3220764,10.5483818 13.406639,10.4913099 13.3578456,10.4341005 C13.3084387,10.3762029 13.2525669,10.4582322 13.2042454,10.4859882 C12.4769213,10.9034291 11.7078821,11.2260867 10.8989682,11.4635496 C10.7093156,11.519245 10.5190495,11.5733348 10.3268959,11.6160011 C9.9636821,11.696654 9.5982505,11.7707006 9.22597644,11.8034114 C8.88328986,11.8335071 8.54230214,11.8771827 8.1964539,11.8760816 C7.79728213,11.8747053 7.40113042,11.8569506 7.00375185,11.8132292 C6.712926,11.7812524 6.42549781,11.7353289 6.13802237,11.6870197 C5.98937702,11.6620622 5.84186418,11.6294891 5.69524798,11.5947138 C5.0217193,11.4350136 4.36937851,11.2153972 3.74058503,10.9319191 C3.45056141,10.8011677 3.163086,10.6647276 2.89160766,10.4991551 C2.86187858,10.4809875 2.82927098,10.4672701 2.79873969,10.4502036 C2.77047348,10.4344217 2.74201851,10.4173552 2.71705553,10.4525433 C2.6957261,10.4826849 2.72375637,10.500669 2.73899842,10.5215892 C2.85744282,10.6845008 3.0012749,10.8249324 3.15397852,10.9566472 C3.57240342,11.3174292 4.04216995,11.5965948 4.56483536,11.7929512 C4.65468323,11.8267172 4.7432098,11.8627771 4.83456771,11.8937904 C4.99878544,11.9494859 5.00628849,11.9825636 4.89822567,12.1145078 C4.74707929,12.2988902 4.59262968,12.4807493 4.4389351,12.6632048 L4.33971585,12.7715644 C4.32371528,12.7899189 4.30866198,12.8088511 4.2955749,12.8290067 C4.20199911,12.9731085 4.06840704,13.0205001 3.90381179,12.9921936 C3.71467826,12.9596205 3.52233588,12.9649422 3.33254171,12.9319562 C2.92983075,12.8620386 2.53759575,12.7623923 2.1558839,12.6179235 C1.5370001,12.383718 0.981491151,12.0545916 0.505825991,11.603293 C0.335190553,11.4414365 0.170170605,11.2737536 0.0440343951,11.0745069 C0.0169479076,11.0317031 -0.000228888197,10.9888533 2.30503565e-06,10.9365069 C0.00198899548,10.5136065 0.00651913768,10.090018 0.0534250109,9.66991612 C0.0928278281,9.3172086 0.134684473,8.96431753 0.202306315,8.61390386 C0.237886824,8.42956743 0.26657774,8.24041376 0.300317878,8.05474682 C0.366995943,7.68745022 0.457032558,7.32414489 0.55457223,6.9629041 C0.67268631,6.52555231 0.812460141,6.09499037 0.960020154,5.66607998 C1.20035375,4.9674548 1.50104209,4.29369533 1.8176803,3.62562468 C1.9236668,3.40197103 2.10756235,3.2586033 2.3112301,3.12693439 C2.68600517,2.88470028 3.08928239,2.69513375 3.49586285,2.51176069 C3.8385494,2.35719882 4.20086657,2.25668084 4.56582633,2.16501725 C4.91025887,2.07849197 5.25827775,2.0151349 5.61493227,2.00412426 C5.6345629,2.00348197 5.65471261,2.00150924 5.67382415,2.00462892 C5.73413169,2.01440086 5.81944939,2.01518078 5.82718842,2.08023532 C5.83554087,2.15084105 5.74658957,2.1476755 5.69463449,2.16235635 C5.28040941,2.27943617 4.88090731,2.43500735 4.48164115,2.59172548 C3.88951352,2.82414176 3.33140917,3.11826351 2.80223168,3.46422703 C2.6858636,3.54029221 2.57879175,3.6298913 2.46898294,3.71513201 C2.453269,3.7272896 2.42316241,3.74036473 2.43717755,3.76802897 C2.45251397,3.79844587 2.48342277,3.79514268 2.50923516,3.78362738 C2.60842644,3.73944718 2.70497514,3.68934876 2.80553491,3.64847176 C3.40341959,3.40536598 3.99922796,3.15868174 4.62509572,2.98544765 C5.01407468,2.87772688 5.40984888,2.80230399 5.80453768,2.72500011 C6.10909552,2.66531326 6.42483713,2.66168892 6.73378354,2.62016963 C7.22879621,2.55364701 7.72616831,2.5470865 8.22368195,2.55603265 C8.62115498,2.56318956 9.01725944,2.58778 9.41345835,2.63819956 C9.81890624,2.68985782 10.2239766,2.74358057 10.6204115,2.83496889 C11.0776258,2.94039578 11.5279976,3.0751385 11.9677991,3.23951819 C12.3849499,3.3954564 12.7886047,3.58158212 13.1974502,3.75614665 C13.2339745,3.77174506 13.2681393,3.7874811 13.3285884,3.76252365 C13.1029306,3.56878224 12.8697697,3.40894444 12.6273126,3.26465916 C12.1258351,2.96636254 11.5969407,2.71807258 11.0503033,2.5088704 C10.7973703,2.41202264 10.5438709,2.3122387 10.2773474,2.25062499 C10.2064696,2.23424666 10.1143094,2.20516022 10.1283245,2.11909371 C10.1430003,2.02908172 10.2194465,1.9966462 10.3237814,2.00027054 Z M6.3191056,7.27825187 C5.95521725,6.97300927 5.52992252,6.87442899 5.06994895,6.97232404 C4.5811402,7.0763404 4.25145175,7.38555728 4.05611985,7.81911868 C3.87922904,8.21179526 3.88981471,8.60675594 4.05516187,9.00477725 C4.3219111,9.6471023 4.91111605,9.89739022 5.47637149,9.89743593 C5.70015541,9.89743593 5.9266216,9.81310817 6.1187922,9.68826114 C6.5948119,9.37904432 6.83468981,8.94717315 6.83636633,8.39758121 C6.83617473,8.28040859 6.82937307,8.16794118 6.79344885,8.05223042 C6.70133915,7.75530186 6.56904225,7.4878834 6.3191056,7.27825187 Z M11.548744,7.43220528 C11.0995009,6.91051658 10.4070098,6.8021553 9.81950835,7.09742837 C9.31044934,7.35328905 9.05582383,7.79002615 9.02130727,8.33059806 C8.99831224,8.69052214 9.10243794,9.02607635 9.32864374,9.32194378 C9.80942704,9.95080503 10.6426727,10.0769064 11.2989192,9.63779178 C11.7273756,9.35102301 11.9250656,8.92845975 11.9272739,8.42830612 C11.9250176,8.01173243 11.83683,7.76670789 11.548744,7.43220528 Z" id="形状结合" fill-rule="nonzero"></path>
</svg>