<?xml version="1.0" encoding="UTF-8"?>
<svg width="16px" height="16px" viewBox="0 0 16 16" version="1.1" xmlns="http://www.w3.org/2000/svg" xmlns:xlink="http://www.w3.org/1999/xlink">
    <title>Icon / system / Link</title>
    <g id="Icon-/-system-/-Link" stroke="none" stroke-width="1" fill="none" fill-rule="evenodd">
        <path d="M6.93553803,5.45121531 C7.89797508,5.44176594 8.82201295,5.82780639 9.49116225,6.51889265 C9.62636558,6.65669736 9.70086272,6.84274292 9.69816981,7.03567743 C9.69097433,7.22665122 9.61785136,7.40926498 9.49116225,7.55246221 C9.35769329,7.68980536 9.17424122,7.76731062 8.98262407,7.76731062 C8.79100691,7.76731062 8.60755484,7.68980536 8.47408589,7.55246221 C7.61815642,6.718764 6.25291964,6.718764 5.39699017,7.55246221 L2.08606002,10.8598848 C1.68142453,11.2684616 1.45778892,11.822118 1.46526061,12.3968027 C1.46983905,12.9691661 1.691713,13.5184611 2.08606002,13.9337206 C2.49507015,14.3379274 3.04931374,14.5613261 3.62460787,14.5538624 C4.19757823,14.5492888 4.74745582,14.3276499 5.16315573,13.9337206 L7.95675305,11.1430828 C8.23761093,10.8625225 8.69297152,10.8625225 8.9738294,11.1430828 C9.25468728,11.4236432 9.25468728,11.8785214 8.97382941,12.1590817 L6.18023209,14.9497195 C5.50009907,15.6223902 4.58170088,15.9997602 3.62460787,15.9998262 C2.66214691,16.0093977 1.73806267,15.6233379 1.06898366,14.9321488 C0.387231567,14.2568876 0.0026454067,13.3382801 0.000174018967,12.379232 C-0.00940768104,11.4177907 0.377061557,10.4946854 1.06898366,9.82631522 L4.37991382,6.51889265 C5.05589119,5.83786281 5.97547281,5.45368408 6.93553803,5.45121531 Z M12.3892608,0.000169483404 C13.3516978,-0.00927987975 14.2757357,0.376760565 14.944885,1.06784683 C16.351705,2.47928592 16.351705,4.76120777 14.944885,6.17264685 L11.6339549,9.48006942 C10.9579775,10.1610993 10.0383959,10.545278 9.07833064,10.5477468 L9.07419198,10.5611832 C8.11173101,10.5707547 7.18764678,10.1846949 6.51856776,9.49350583 C6.23770989,9.21294549 6.23770989,8.7580673 6.51856777,8.47750697 C6.79942565,8.19694663 7.25478624,8.19694662 7.53564412,8.47750696 C8.39157359,9.31120517 9.75681037,9.31120517 10.6127398,8.47750696 L13.92367,5.17008439 C14.3283055,4.76150756 14.5519411,4.20785113 14.5444694,3.63316646 C14.539891,3.06080311 14.318017,2.51150806 13.92367,2.09624854 C13.5146599,1.69204172 12.9604163,1.46864302 12.3851221,1.47610681 C11.8121518,1.48068039 11.2622742,1.70231929 10.8465743,2.09624854 L8.05297696,4.88688633 C7.7686905,5.16630501 7.31147697,5.16260305 7.03176195,4.87861776 C6.75204693,4.59463248 6.75575281,4.13790332 7.04003926,3.85848463 L9.83363658,1.06784683 C10.509614,0.386816984 11.4291956,0.00263825296 12.3892608,0.000169483404 Z" id="形状结合" fill="#000000" fill-rule="nonzero"></path>
    </g>
</svg>