<?xml version="1.0" encoding="UTF-8"?>
<svg width="16px" height="16px" viewBox="0 0 16 16" version="1.1" xmlns="http://www.w3.org/2000/svg" xmlns:xlink="http://www.w3.org/1999/xlink">
    <title>Icon / platform / telegram</title>
    <path d="M1.25166128,6.54263401 L14.4324178,1.03165937 C14.5754335,0.971849898 14.7398378,0.998068781 14.8573244,1.09942266 C14.9748109,1.20077654 15.0252971,1.35994036 14.9878069,1.51078514 L11.7046581,14.6888005 C11.6703557,14.8259972 11.5681937,14.9358794 11.4341678,14.9797312 C11.300142,15.023583 11.1530617,14.9952502 11.0447492,14.9047155 L8.19402508,12.5214246 C8.03101063,12.3853512 7.79147143,12.3964991 7.64171009,12.5471288 L6.1794587,14.0132948 C6.06226547,14.1301895 5.88657584,14.1650397 5.73386808,14.1016831 C5.58116032,14.0383266 5.48130495,13.8891563 5.48061115,13.7233517 L5.48061115,10.6244567 C5.48052565,10.5153491 5.52365337,10.410679 5.60050143,10.3334854 L11.5468538,4.36703282 L4.52661252,9.65078258 C4.37457457,9.76503195 4.16422438,9.7595001 4.01835977,9.63741642 L1.14714155,7.23767484 C1.03727281,7.14560177 0.983237248,7.00268617 1.00459486,6.86066117 C1.02595248,6.71863618 1.11960862,6.59808076 1.25166128,6.54263401 Z" id="路径"></path>
</svg>