<svg t="1650435215817" class="icon" viewBox="0 0 1024 1024" version="1.1" xmlns="http://www.w3.org/2000/svg" p-id="1646" width="200" height="200"><path d="M679.423019 746.836044l84.010282-395.944852c3.413318-16.81059 1.407994-28.799868-5.973306-36.053168-7.466632-7.2533-17.279921-8.533294-29.439865-3.967982L234.24106 501.162503c-11.050616 4.181314-18.559915 8.959959-22.570563 14.250601-4.010648 5.333309-4.479979 10.410619-1.407994 15.146598 3.029319 4.778645 9.130625 8.490628 18.26125 11.135949l126.292754 39.466485 293.118657-184.575154c8.021297-5.333309 14.079935-6.485304 18.346582-3.413317 2.645321 1.877325 1.877325 4.693312-2.346656 8.533294l-237.140246 214.313684-9.130625 130.260737c8.789293 0 17.322587-4.181314 25.727882-12.586609l61.695717-59.391728 127.999414 94.292901c24.405221 13.653271 39.807818 6.442637 46.293121-21.7599zM1023.99744 511.999787a500.477706 500.477706 0 0 1-40.533148 198.825755c-27.093209 63.274377-63.487709 117.75946-109.183499 163.455251-45.695791 45.738457-100.180874 82.09029-163.412584 109.140833A500.477706 500.477706 0 0 1 511.999787 1023.99744a500.477706 500.477706 0 0 1-198.825756-40.533148c-63.274377-27.093209-117.75946-63.487709-163.455251-109.183499-45.695791-45.695791-82.09029-100.180874-109.140833-163.412584A500.477706 500.477706 0 0 1 0.002133 511.999787c0-69.333016 13.525271-135.636712 40.533148-198.825756 27.093209-63.274377 63.487709-117.75946 109.183499-163.455251C195.414571 104.02299 249.899655 67.62849 313.131365 40.535281A500.477706 500.477706 0 0 1 511.999787 0.002133c69.333016 0 135.636712 13.525271 198.825755 40.533148 63.274377 27.093209 117.75946 63.487709 163.455251 109.183499 45.738457 45.695791 82.09029 100.180874 109.140833 163.412585A500.477706 500.477706 0 0 1 1023.99744 511.999787z"  p-id="1647"></path></svg>