<?xml version="1.0" standalone="no"?><!DOCTYPE svg PUBLIC "-//W3C//DTD SVG 1.1//EN" "http://www.w3.org/Graphics/SVG/1.1/DTD/svg11.dtd"><svg t="1646034054161" class="icon" viewBox="0 0 1024 1024" version="1.1" xmlns="http://www.w3.org/2000/svg" p-id="1932" xmlns:xlink="http://www.w3.org/1999/xlink" width="200" height="200"><defs><style type="text/css"></style></defs><path d="M650.820267 170.666667c31.6416 1.160533 61.952 8.635733 92.023466 18.0224 42.5984 13.346133 81.578667 33.621333 118.306134 58.743466 8.533333 5.8368 14.1312 13.653333 18.363733 22.528 12.1856 25.3952 23.927467 50.961067 33.860267 77.312 7.953067 21.0944 16.725333 41.984 23.04 63.522134 5.12 17.578667 11.434667 34.816 15.530666 52.804266 3.720533 16.452267 9.147733 32.597333 12.731734 49.152 4.676267 21.538133 8.9088 43.2128 12.288 65.058134 3.310933 21.230933 5.768533 42.530133 8.704 63.829333 1.2288 8.977067 1.877333 18.090667 2.184533 27.204267 0.477867 13.312-0.682667 26.7264 1.536 39.970133 2.286933 13.789867-4.027733 24.234667-12.629333 34.2016a290.133333 290.133333 0 0 1-92.16 70.9632c-25.941333 12.868267-53.0432 21.0944-81.237334 27.306667-18.363733 4.096-36.864 4.9152-55.3984 6.724266a12.526933 12.526933 0 0 1-11.605333-5.051733c-13.243733-16.384-26.555733-32.733867-39.697067-49.220267-4.573867-5.802667-4.232533-7.9872 2.628267-10.9568 15.530667-6.7584 31.8464-11.605333 46.8992-19.456 30.993067-16.0768 58.9824-36.1472 81.408-63.214933 2.321067-2.798933 7.3728-6.314667 4.437333-9.8304-2.935467-3.549867-6.280533 1.501867-9.181866 3.208533a623.957333 623.957333 0 0 1-137.693867 60.2112c-11.332267 3.413333-22.698667 6.7584-34.133333 9.386667-21.742933 4.983467-43.554133 9.557333-65.809067 11.5712-20.48 1.8432-40.823467 4.539733-61.474133 4.437333a650.4448 650.4448 0 0 1-71.236267-3.857066 889.685333 889.685333 0 0 1-51.712-7.748267 395.605333 395.605333 0 0 1-26.453333-5.700267 632.661333 632.661333 0 0 1-116.770134-40.823466 453.632 453.632 0 0 1-50.722133-26.658134c-1.774933-1.1264-3.720533-1.979733-5.5296-3.037866-1.706667-0.955733-3.413333-2.013867-4.881067 0.136533-1.262933 1.877333 0.4096 2.9696 1.297067 4.266667 7.099733 10.0352 15.701333 18.705067 24.7808 26.794666a275.7632 275.7632 0 0 0 84.309333 51.541334c5.358933 2.048 10.6496 4.3008 16.0768 6.212266 9.8304 3.413333 10.274133 5.461333 3.822934 13.585067-9.045333 11.3664-18.261333 22.562133-27.4432 33.792l-5.9392 6.690133a31.573333 31.573333 0 0 0-2.628267 3.549867c-5.597867 8.874667-13.550933 11.810133-23.381333 10.0352-11.298133-1.979733-22.801067-1.672533-34.133334-3.6864a372.9408 372.9408 0 0 1-70.314666-19.3536c-36.932267-14.4384-70.109867-34.7136-98.542934-62.498133-10.171733-10.001067-20.036267-20.309333-27.579733-32.597334A15.5648 15.5648 0 0 1 34.133333 721.237333c0.1024-26.043733 0.375467-52.155733 3.1744-78.0288 2.389333-21.742933 4.881067-43.485867 8.9088-65.058133 2.116267-11.3664 3.822933-23.005867 5.870934-34.474667 3.959467-22.596267 9.352533-44.987733 15.1552-67.242666 7.0656-26.965333 15.428267-53.486933 24.234666-79.872 14.336-43.076267 32.324267-84.5824 51.2-125.7472 6.3488-13.789867 17.339733-22.596267 29.525334-30.72 22.357333-14.916267 46.455467-26.624 70.7584-37.888 20.48-9.557333 42.0864-15.701333 63.8976-21.367467 20.5824-5.3248 41.3696-9.216 62.6688-9.898667 1.160533-0.068267 2.389333-0.170667 3.515733 0 3.618133 0.6144 8.704 0.682667 9.181867 4.676267 0.477867 4.334933-4.8128 4.164267-7.918934 5.051733-24.746667 7.202133-48.605867 16.7936-72.465066 26.453334a545.109333 545.109333 0 0 0-100.352 53.76c-6.929067 4.676267-13.312 10.205867-19.8656 15.4624-0.955733 0.750933-2.730667 1.536-1.911467 3.242666 0.9216 1.877333 2.7648 1.706667 4.3008 0.955734 5.9392-2.730667 11.707733-5.802667 17.7152-8.328534 35.703467-14.9504 71.304533-30.173867 108.680533-40.823466 23.210667-6.656 46.865067-11.264 70.4512-16.042667 18.193067-3.6864 37.034667-3.925333 55.5008-6.485333 29.559467-4.096 59.2896-4.5056 88.9856-3.925334 23.7568 0.443733 47.445333 1.9456 71.099734 5.051734 24.234667 3.1744 48.401067 6.485333 72.0896 12.117333 27.306667 6.485333 54.203733 14.813867 80.4864 24.917333 24.917333 9.6256 49.015467 21.0944 73.454933 31.8464 2.1504 0.955733 4.1984 1.911467 7.816533 0.375467a294.980267 294.980267 0 0 0-41.8816-30.651733 602.9312 602.9312 0 0 0-94.208-46.592c-15.121067-5.9392-30.242133-12.0832-46.1824-15.906134-4.232533-1.024-9.728-2.798933-8.874666-8.0896 0.853333-5.563733 5.4272-7.543467 11.6736-7.338666z m-239.240534 325.188266c-21.7088-18.773333-47.104-24.8832-74.615466-18.8416-29.184 6.417067-48.878933 25.463467-60.552534 52.155734-10.581333 24.200533-9.898667 48.5376-0.034133 73.045333 15.906133 39.594667 51.0976 54.9888 84.8896 55.022933 13.346133 0 26.897067-5.2224 38.365867-12.9024 28.433067-19.0464 42.769067-45.6704 42.871466-79.530666 0-7.202133-0.443733-14.1312-2.56-21.265067-5.5296-18.295467-13.4144-34.781867-28.330666-47.684267z m312.388267 9.489067c-26.8288-32.1536-68.1984-38.8096-103.287467-20.616533-30.378667 15.735467-45.602133 42.666667-47.684266 75.946666-1.365333 22.186667 4.846933 42.871467 18.363733 61.098667 28.706133 38.741333 78.506667 46.4896 117.691733 19.456 25.6-17.681067 37.410133-43.690667 37.546667-74.513067-0.136533-25.668267-5.4272-40.7552-22.6304-61.371733z" p-id="1933"></path></svg>