<?xml version="1.0" standalone="no"?><!DOCTYPE svg PUBLIC "-//W3C//DTD SVG 1.1//EN" "http://www.w3.org/Graphics/SVG/1.1/DTD/svg11.dtd"><svg t="1650435280089" class="icon" viewBox="0 0 1030 1024" version="1.1" xmlns="http://www.w3.org/2000/svg" p-id="1906" xmlns:xlink="http://www.w3.org/1999/xlink" width="201.171875" height="200"><defs><style type="text/css">@font-face { font-family: feedback-iconfont; src: url("//at.alicdn.com/t/font_1031158_u69w8yhxdu.woff2?t=1630033759944") format("woff2"), url("//at.alicdn.com/t/font_1031158_u69w8yhxdu.woff?t=1630033759944") format("woff"), url("//at.alicdn.com/t/font_1031158_u69w8yhxdu.ttf?t=1630033759944") format("truetype"); }
</style></defs><path d="M255.11401 71.914514A510.228021 510.228021 0 1 1 765.342031 955.544407 510.228021 510.228021 0 0 1 255.11401 71.914514zM376.420722 359.002813h-109.699024v329.947453h109.699024V359.002813z m269.272838-7.780977c-58.251032 0-84.31518 32.101846-98.856679 54.551879v-46.770902h-109.699024c0.382671 8.291205 0.552747 35.886037 0.595266 71.857113v64.501326c-0.085038 72.154746-0.42519 151.410165-0.552747 181.301023l-0.042519 7.738458v4.592052h109.699024v-184.319872c0-9.864408 0.722823-19.686298 3.614115-26.744452 7.951053-19.728817 25.97911-40.095419 56.295159-40.095419 39.712748 0 55.572335 30.273529 55.572335 74.620848v176.538895h109.699024v-189.209557c0-101.3653-54.126689-148.561392-126.281435-148.561392zM322.294033 199.981747c-37.50176 0-62.077743 24.618502-62.077742 56.975462 0 31.676656 23.810641 57.0605 60.632096 57.0605h0.765342c38.267102 0 62.077743-25.383844 62.077742-57.0605-0.765342-32.35696-23.810641-56.975462-61.397438-56.975462z"  p-id="1907"></path></svg>