<?xml version="1.0" encoding="utf-8"?>
<!-- Generator: Adobe Illustrator 25.0.0, SVG Export Plug-In . SVG Version: 6.00 Build 0)  -->
<svg version="1.1" id="图层_1" xmlns="http://www.w3.org/2000/svg" xmlns:xlink="http://www.w3.org/1999/xlink" x="0px" y="0px"
	 viewBox="0 0 16 16" style="enable-background:new 0 0 16 16;" xml:space="preserve">
<style type="text/css">
	.st0{fill-rule:evenodd;clip-rule:evenodd;}
</style>
<path class="st0" d="M13.1,13.5c0.4,0,0.7,0.3,0.7,0.8S13.5,15,13.1,15l0,0H2.5c-0.4,0-0.7-0.3-0.7-0.8s0.3-0.8,0.7-0.8l0,0H13.1z"
	/>
<path class="st0" d="M7.8,0c0.4,0,0.8,0.3,0.8,0.8l0,0v9L12.3,6c0.3-0.3,0.8-0.3,1.1,0c0.3,0.3,0.3,0.8,0,1.1l0,0l-5,5
	c-0.1,0.1-0.3,0.2-0.5,0.2s-0.4-0.1-0.5-0.2l0,0l-5-5C2,6.8,2,6.3,2.3,6C2.5,5.7,3,5.7,3.3,6l0,0l3.8,3.8v-9C7.1,0.3,7.4,0,7.8,0z"
	/>
</svg>
