<?xml version="1.0" standalone="no"?><!DOCTYPE svg PUBLIC "-//W3C//DTD SVG 1.1//EN" "http://www.w3.org/Graphics/SVG/1.1/DTD/svg11.dtd"><svg t="1650435294419" class="icon" viewBox="0 0 1024 1024" version="1.1" xmlns="http://www.w3.org/2000/svg" p-id="2036" xmlns:xlink="http://www.w3.org/1999/xlink" width="200" height="200"><defs><style type="text/css">@font-face { font-family: feedback-iconfont; src: url("//at.alicdn.com/t/font_1031158_u69w8yhxdu.woff2?t=1630033759944") format("woff2"), url("//at.alicdn.com/t/font_1031158_u69w8yhxdu.woff?t=1630033759944") format("woff"), url("//at.alicdn.com/t/font_1031158_u69w8yhxdu.ttf?t=1630033759944") format("truetype"); }
</style></defs><path d="M1024 512c0-282.581333-229.376-512-512-512C229.418667 0 0 229.418667 0 512s229.418667 512 512 512c282.624 0 512-229.418667 512-512z m-460.586667 0c0 125.866667-101.333333 227.882667-226.304 227.882667-125.013333 0-226.346667-102.058667-226.346666-227.84 0-125.866667 101.333333-227.925333 226.346666-227.925334 125.013333 0 226.304 102.016 226.304 227.882667z m248.32 0c0 118.485333-50.688 214.528-113.194666 214.528S585.386667 630.485333 585.386667 512c0-118.485333 50.645333-214.528 113.152-214.528s113.152 96 113.152 214.528z m101.546667 0c0 106.112-17.834667 192.213333-39.808 192.213333-21.973333 0-39.808-86.058667-39.808-192.213333s17.834667-192.213333 39.808-192.213333c21.973333 0 39.808 86.058667 39.808 192.213333z"  p-id="2037"></path></svg>