<svg t="1650435238697" class="icon" viewBox="0 0 1024 1024" version="1.1" xmlns="http://www.w3.org/2000/svg" p-id="1776" width="200" height="200"><path d="M512 0c282.752 0 512 229.248 512 512s-229.248 512-512 512S0 794.752 0 512 229.248 0 512 0z m81.066667 280.32l-7.253334 7.253333 0.426667 0.128c5.674667 1.706667 72.064 22.186667 114.645333 56.917334l5.376 4.608-0.853333-0.426667C695.381333 342.869333 618.496 300.373333 512 300.373333c-114.346667 0-194.56 49.066667-194.56 49.066667 43.946667-39.253333 120.746667-61.866667 120.746667-61.866667l-7.253334-7.253333-8.618666 0.384C353.706667 285.525333 293.546667 331.52 293.546667 331.52c-62.378667 130.176-68.352 245.290667-68.693334 276.906667v8.533333l5.888 7.253333c59.477333 69.632 142.592 64.426667 142.592 64.426667l30.293334-38.4-7.850667-2.005333C347.008 634.112 316.586667 591.36 316.586667 591.36l1.066666 0.682667c9.813333 6.357333 86.826667 53.930667 194.346667 53.930666 107.52 0 184.576-47.573333 194.346667-53.930666l1.066666-0.682667c-3.413333 4.650667-36.352 47.914667-87.04 58.88l30.293334 38.4c5.674667 0.256 90.666667 3.029333 148.48-71.936l0.042666-1.92v-4.266667c-0.128-28.16-4.864-145.664-68.736-278.997333 0 0-65.28-49.92-137.386666-51.2z m-169.386667 181.76c27.733333 0 50.346667 24.32 49.92 54.186667 0 29.44-22.186667 54.186667-49.92 54.186666-27.306667 0-49.493333-24.746667-49.493333-54.186666 0-29.866667 21.76-54.186667 49.493333-54.186667z m177.92 0c27.733333 0 49.92 24.32 49.92 54.186667 0 29.44-22.186667 54.186667-49.92 54.186666-27.306667 0-49.493333-24.746667-49.493333-54.186666 0-29.866667 21.76-54.186667 49.493333-54.186667z"  p-id="1777"></path></svg>