<?xml version="1.0" standalone="no"?><!DOCTYPE svg PUBLIC "-//W3C//DTD SVG 1.1//EN" "http://www.w3.org/Graphics/SVG/1.1/DTD/svg11.dtd"><svg t="1650436472571" class="icon" viewBox="0 0 1024 1024" version="1.1" xmlns="http://www.w3.org/2000/svg" p-id="2166" xmlns:xlink="http://www.w3.org/1999/xlink" width="200" height="200"><defs><style type="text/css">@font-face { font-family: feedback-iconfont; src: url("//at.alicdn.com/t/font_1031158_u69w8yhxdu.woff2?t=1630033759944") format("woff2"), url("//at.alicdn.com/t/font_1031158_u69w8yhxdu.woff?t=1630033759944") format("woff"), url("//at.alicdn.com/t/font_1031158_u69w8yhxdu.ttf?t=1630033759944") format("truetype"); }
</style></defs><path d="M1024 512c0-282.752-229.248-512-512-512S0 229.248 0 512s229.248 512 512 512 512-229.248 512-512zM236.330667 693.930667a218.368 218.368 0 0 0 167.466666-49.450667c-49.536-1.109333-91.306667-36.138667-105.685333-84.181333a107.093333 107.093333 0 0 0 51.072-1.706667c-51.754667-11.434667-90.752-60.586667-90.752-119.04v-1.578667c15.274667 9.216 32.682667 14.805333 51.2 15.658667-30.293333-21.930667-50.218667-59.178667-50.218667-101.034667 0-22.186667 5.546667-42.837333 15.317334-60.544 55.808 73.813333 139.136 122.752 233.130666 128.853334a125.994667 125.994667 0 0 1-2.944-27.306667c0-66.133333 50.645333-118.954667 113.109334-117.930667a112.554667 112.554667 0 0 1 82.56 38.997334 216.448 216.448 0 0 0 71.850666-27.733334 115.925333 115.925333 0 0 1-49.792 64.981334 215.466667 215.466667 0 0 0 64.981334-17.749334 232.533333 232.533333 0 0 1-56.448 60.672c0.256 5.12 0.341333 10.24 0.341333 15.36 0 157.013333-113.834667 338.176-321.877333 338.048a304.64 304.64 0 0 1-173.312-54.314666z"  p-id="2167"></path></svg>