<?xml version="1.0" encoding="UTF-8"?>
<svg width="56px" height="56px" viewBox="0 0 56 56" version="1.1" xmlns="http://www.w3.org/2000/svg" xmlns:xlink="http://www.w3.org/1999/xlink">
    <title>icon/home_security-expert</title>
    <g id="icon/home_security-expert" stroke="none" stroke-width="1" fill="none" fill-rule="evenodd">
        <g id="编组" transform="translate(0.138113, 4.000000)" fill-rule="nonzero">
            <path d="M54.3445599,11.184179 L29.6631328,0.39828234 C28.9391768,-0.0532203118 27.9718741,-0.142406021 27.1323284,0.24220735 L1.50184963,12.0648879 C1.47143131,12.0760361 1.44709665,12.0927584 1.41667833,12.1039067 C0.917817838,12.3212968 0.498044984,12.6891879 0.242531073,13.1797093 C-0.347584389,14.3168271 0.175610763,15.6824832 1.41667833,16.2231716 L26.4813763,27.1762915 C26.6030496,27.2264584 26.7247229,27.2710513 26.8463961,27.3044959 C27.4486789,27.4884415 28.136133,27.4605709 28.7444995,27.1762915 L49.7939788,17.4661974 L49.7939788,32.0146162 C49.7939788,33.2743643 50.9072894,34.3 52.2882813,34.3 C53.6631895,34.3 54.7825838,33.2799385 54.7825838,32.0146162 L54.7825838,15.1250726 C55.2936116,14.7683297 55.6160458,14.2555119 55.7194681,13.6981012 C55.93848,12.694762 55.3970339,11.6468299 54.3445599,11.184179 L54.3445599,11.184179 Z" id="路径" fill="#3B4652"></path>
            <path d="M44.6309531,25.4818467 L44.5531558,25.4818467 C44.1641691,25.5039297 43.7991201,25.6033027 43.4819464,25.7578831 L27.2522259,32.5262939 L13.2606748,26.0200466 C12.913579,25.8654662 12.5245924,25.7826553 12.1056837,25.7826553 C10.753207,25.7826553 9.65207547,26.6935752 9.65207547,27.808762 L9.65207547,38.9412361 C9.65207547,38.9743605 9.65207547,39.0130056 9.65805988,39.0461299 C9.79570132,44.5558151 18.1439536,49 28.4132015,49 C38.6345741,49 46.9469199,44.5999809 47.1683431,39.1344616 C47.1743275,39.0902958 47.1743275,39.0516507 47.1743275,39.0074849 L47.1743275,27.7066996 C47.2222028,27.3368109 47.1444054,26.95036 46.9289667,26.5970335 C46.4801359,25.8627769 45.5645211,25.4487224 44.6309531,25.4818467 Z" id="路径" fill="#1CD2A9"></path>
        </g>
    </g>
</svg>