<?xml version="1.0" encoding="UTF-8"?>
<svg width="56px" height="56px" viewBox="0 0 56 56" version="1.1" xmlns="http://www.w3.org/2000/svg" xmlns:xlink="http://www.w3.org/1999/xlink">
    <title>icon/home_safety-experience</title>
    <g id="icon/home_safety-experience" stroke="none" stroke-width="1" fill="none" fill-rule="evenodd">
        <g id="编组" transform="translate(0.115385, 20.063492)" fill-rule="nonzero">
            <path d="M54.1539818,15.1329901 C53.4500672,16.7417417 52.5641056,18.2754183 51.5203701,19.7125697 C51.5082336,19.7232947 51.4960972,19.7447447 51.4839607,19.7554698 C49.9790398,21.8039468 47.9279781,23.4984985 45.5492321,24.7425997 C44.6632705,25.2145002 43.6316715,25.8472758 42.6850276,26.6623767 L32.4297194,26.6623767 L32.4297194,23.4019734 C32.4297194,19.004719 34.2380519,14.7468897 37.5148959,11.4328614 L41.3014713,7.59330759 C41.7869297,7.0999571 42.7093006,7.29300729 42.879211,7.93650794 C43.1219402,8.82668383 43.2433048,9.73830974 43.2433048,10.6392106 C43.2433048,12.6555127 42.6486183,14.6503647 41.5077911,16.4307164 C41.5077911,16.4307164 43.6923538,16.0875161 45.8890529,14.5752896 C48.7775303,12.5804376 51.6660076,8.54783355 49.5178543,0.600600601 C50.1489502,0.182325182 50.8528648,0 51.5567795,0 C53.5592953,0 55.5375382,1.49077649 55.6710392,3.46417846 C55.9380413,7.37880738 55.7317215,11.979837 54.1539818,15.1329901 Z" id="路径" fill="#3B4652"></path>
            <path d="M43.935083,29.3972544 L43.935083,31.9283569 C43.935083,32.4860575 43.4253517,32.9365079 42.7942558,32.9365079 L31.3738475,32.9365079 C30.7427516,32.9365079 30.2330203,32.4860575 30.2330203,31.9283569 L30.2330203,29.3972544 C30.2330203,28.8395538 30.7427516,28.3891034 31.3738475,28.3891034 L42.7942558,28.3891034 C43.4253517,28.3783784 43.935083,28.8395538 43.935083,29.3972544 Z" id="路径" fill="#1CD2A9"></path>
            <path d="M23.3395113,23.4019734 L23.3395113,26.6623767 L13.0842031,26.6623767 C12.1375593,25.8472758 11.1180967,25.2145002 10.2199987,24.7425997 C7.84125265,23.4877735 5.79019101,21.8039468 4.28527004,19.7554698 C4.27313358,19.7447447 4.26099712,19.7232947 4.24886066,19.7125697 C3.19298869,18.2754183 2.31916361,16.7417417 1.61524897,15.1329901 C0.0375092434,11.979837 -0.168810567,7.37880738 0.0981915405,3.45345345 C0.231692594,1.49077649 2.22207194,0 4.22458774,0 C4.92850239,0 5.63241704,0.182325182 6.26351293,0.600600601 C4.12749607,8.54783355 7.00383695,12.5804376 9.89231429,14.5752896 C12.076877,16.0875161 14.2735761,16.4307164 14.2735761,16.4307164 C13.1206125,14.6503647 12.5380624,12.6555127 12.5380624,10.6392106 C12.5380624,9.73830974 12.659427,8.82668383 12.9021562,7.93650794 C13.0720667,7.29300729 13.9944376,7.0999571 14.479896,7.59330759 L18.2664713,11.4328614 C21.5311789,14.7468897 23.3395113,19.004719 23.3395113,23.4019734 Z" id="路径" fill="#3B4652"></path>
            <path d="M11.8462843,29.3972544 L11.8462843,31.9283569 C11.8462843,32.4860575 12.3560156,32.9365079 12.9871114,32.9365079 L24.4075198,32.9365079 C25.0386157,32.9365079 25.5483469,32.4860575 25.5483469,31.9283569 L25.5483469,29.3972544 C25.5483469,28.8395538 25.0386157,28.3891034 24.4075198,28.3891034 L12.9871114,28.3891034 C12.3560156,28.3783784 11.8462843,28.8395538 11.8462843,29.3972544 Z" id="路径" fill="#1CD2A9"></path>
        </g>
        <path d="M43.8562842,8.72715573 C43.6014186,8.75933076 43.3465529,8.77005577 43.0916873,8.77005577 C40.627986,8.77005577 38.5162421,7.45087945 37.6181441,5.57400257 C37.3147326,4.94122694 37.1448222,4.24410124 37.1448222,3.51480051 C37.1448222,3.34320034 37.1569586,3.17160017 37.1690951,3 L18.8551778,3 C18.8794507,3.17160017 18.8794507,3.34320034 18.8794507,3.51480051 C18.8794507,4.24410124 18.7095403,4.94122694 18.4061288,5.57400257 C17.4958944,7.45087945 15.3841504,8.77005577 12.9325856,8.77005577 C12.67772,8.77005577 12.4228543,8.75933076 12.1679887,8.72715573 C12.2650804,11.2153582 10.3353833,26.4126984 28.0182047,31.3676534 C45.6888896,26.4126984 43.7591926,11.2153582 43.8562842,8.72715573 Z" id="路径" fill="#1CD2A9" fill-rule="nonzero"></path>
        <path d="M28.0060682,25.3616474 C22.8966188,25.3616474 18.7459497,21.6936937 18.7459497,17.1784642 C18.7459497,12.6632347 22.8966188,8.995281 28.0060682,8.995281 C33.1155176,8.995281 37.2661868,12.6632347 37.2661868,17.1784642 C37.2661868,21.6936937 33.1155176,25.3616474 28.0060682,25.3616474 Z" id="路径" fill="#FFFFFF" fill-rule="nonzero"></path>
        <path d="M31.7198248,14.1111111 L26.8409681,18.4225654 L24.2923116,16.1703132 C23.9160814,15.8378378 23.297122,15.8378378 22.9208917,16.1703132 C22.5446615,16.5027885 22.5446615,17.049764 22.9208917,17.3822394 L26.1491899,20.2350922 C26.3433733,20.4066924 26.5861025,20.4817675 26.8409681,20.4817675 C27.0958338,20.4817675 27.338563,20.3959674 27.5327463,20.2350922 L33.1033812,15.3123123 C33.4796114,14.979837 33.4796114,14.4328614 33.1033812,14.1003861 C32.7150145,13.7786358 32.0960551,13.7786358 31.7198248,14.1111111 Z" id="路径" fill="#3B4652" fill-rule="nonzero"></path>
    </g>
</svg>