<?xml version="1.0" encoding="UTF-8"?>
<svg width="56px" height="56px" viewBox="0 0 56 56" version="1.1" xmlns="http://www.w3.org/2000/svg" xmlns:xlink="http://www.w3.org/1999/xlink">
    <title>icon/home_technology</title>
    <g id="icon/home_technology" stroke="none" stroke-width="1" fill="none" fill-rule="evenodd">
        <path d="M34.2883009,45.3649251 L33.9170566,46.0996061 C33.0635025,47.7887091 33.8529775,49.7679766 35.6743235,50.5995079 L35.859875,50.678782 L35.9520847,50.7154441 C36.4556299,50.9160077 36.8693708,51.2402162 37.1580272,51.6377491 C37.4106017,51.9849613 37.5661805,52.3894133 37.6011287,52.8159493 L37.6086521,53 L18.3913479,53 C18.3913479,52.0697029 18.9666632,51.2221874 19.8739651,50.7912763 L20.0479153,50.7154441 L20.140125,50.678782 C22.0295833,49.9253641 22.9075425,47.97628 22.1628447,46.2694303 L22.0829434,46.0996061 L21.7116991,45.3649251 L34.2883009,45.3649251 Z M55.8846154,40.438537 L55.8846154,41.4111625 C55.8846154,42.5526917 54.8956343,43.4869153 53.6438515,43.5627855 L53.4791448,43.5677603 L2.52085515,43.5677603 C1.24759282,43.5677603 0.205559135,42.6811003 0.120933519,41.5588285 L0.115384615,41.4111625 L0.115384615,40.438537 C0.730472341,40.7995674 1.45199471,41.0259835 2.22757913,41.0718411 L2.52085515,41.0804842 L53.4791448,41.0804842 C54.3667635,41.0804842 55.1926417,40.8446962 55.8846154,40.438537 Z M53.4791448,3 C54.8077664,3 55.8846154,3.96543693 55.8846154,5.15659775 L55.8846154,5.15659775 L55.8846154,6.12922334 C55.1926417,5.72306409 54.3667635,5.48727607 53.4791448,5.48727607 L53.4791448,5.48727607 L2.52085515,5.48727607 C1.63403835,5.48727607 0.807358307,5.72306409 0.115384615,6.12922334 L0.115384615,6.12922334 L0.115384615,5.15659775 C0.115384615,3.96543693 1.19223359,3 2.52085515,3 L2.52085515,3 Z M53.4791448,7.28444087 L2.52085515,7.28444087 C1.19223359,7.28444087 0.115384615,8.24987779 0.115384615,9.44103862 L0.115384615,37.1267217 C0.115384615,38.3171636 1.19223359,39.2833194 2.52085515,39.2833194 L53.4791448,39.2833194 C54.8077664,39.2833194 55.8846154,38.3171636 55.8846154,37.1267217 L55.8846154,9.44103862 C55.8846154,8.24987779 54.8077664,7.28444087 53.4791448,7.28444087 Z" id="形状结合" fill="#3B4652" fill-rule="nonzero"></path>
        <path d="M20.2781065,30.1149948 L35.7218935,30.1149948 L35.7218935,16.26904 L20.2781065,16.26904 L20.2781065,30.1149948 Z M30.5739645,32.4226539 L25.4260355,32.4226539 L25.4260355,34.730313 L22.852071,34.730313 L22.852071,32.4226539 L18.9911243,32.4226539 C18.2803436,32.4226539 17.704142,31.9060668 17.704142,31.2688243 L17.704142,27.8073356 L15.1301775,27.8073356 L15.1301775,25.4996765 L17.704142,25.4996765 L17.704142,20.8843583 L15.1301775,20.8843583 L15.1301775,18.5766991 L17.704142,18.5766991 L17.704142,15.1152104 C17.704142,14.477968 18.2803436,13.9613809 18.9911243,13.9613809 L22.852071,13.9613809 L22.852071,11.6537217 L25.4260355,11.6537217 L25.4260355,13.9613809 L30.5739645,13.9613809 L30.5739645,11.6537217 L33.147929,11.6537217 L33.147929,13.9613809 L37.0088757,13.9613809 C37.7196564,13.9613809 38.295858,14.477968 38.295858,15.1152104 L38.295858,18.5766991 L40.8698225,18.5766991 L40.8698225,20.8843583 L38.295858,20.8843583 L38.295858,25.4996765 L40.8698225,25.4996765 L40.8698225,27.8073356 L38.295858,27.8073356 L38.295858,31.2688243 C38.295858,31.9060668 37.7196564,32.4226539 37.0088757,32.4226539 L33.147929,32.4226539 L33.147929,34.730313 L30.5739645,34.730313 L30.5739645,32.4226539 Z" id="形状" fill="#FFFFFF" fill-rule="nonzero"></path>
        <polygon id="路径" fill="#1CD2A9" points="22.637574 18.3843942 33.362426 18.3843942 33.362426 27.9996406 22.637574 27.9996406"></polygon>
    </g>
</svg>