<?xml version="1.0" encoding="UTF-8"?>
<svg width="56px" height="56px" viewBox="0 0 56 56" version="1.1" xmlns="http://www.w3.org/2000/svg" xmlns:xlink="http://www.w3.org/1999/xlink">
    <title>icon/home_encrypted</title>
    <g id="icon/home_encrypted" stroke="none" stroke-width="1" fill="none" fill-rule="evenodd">
        <g id="编组" transform="translate(-0.000000, 3.084746)">
            <path d="M13.1292951,11.0740948 C20.3804045,11.0740948 26.2585901,16.9522804 26.2585901,24.2033898 C26.2585901,31.4544993 20.3804045,37.3326849 13.1292951,37.3326849 C5.87818562,37.3326849 0,31.4544993 0,24.2033898 C0,16.9522804 5.87818562,11.0740948 13.1292951,11.0740948 Z M13.1292951,14.9693748 C8.02948935,14.9693748 3.89527997,19.1035841 3.89527997,24.2033898 C3.89527997,29.3031955 8.02948935,33.4374049 13.1292951,33.4374049 C18.2291008,33.4374049 22.3633101,29.3031955 22.3633101,24.2033898 C22.3633101,19.1035841 18.2291008,14.9693748 13.1292951,14.9693748 Z" id="形状结合" fill="#3B4652"></path>
            <circle id="椭圆形备份" fill="#3B4652" cx="37.9661017" cy="9.49152542" r="9.49152542"></circle>
            <circle id="椭圆形备份-2" fill="#3B4652" cx="37.9661017" cy="40.3389831" r="9.49152542"></circle>
            <circle id="椭圆形备份-3" fill="#3B4652" cx="51.7288136" cy="29.3562592" r="4.27118644"></circle>
            <path d="M16.9769899,19.9784802 L18.3292,23.0648783 L20.0165059,23.6830729 C21.3069533,24.101112 21.6584754,25.5073475 20.1761692,25.7961433 C19.2990067,25.9671333 18.4441838,26.1049547 17.6005309,26.211323 C17.3883035,28.3135279 16.7069421,30.1229338 14.8777132,29.0249378 C14.1615281,28.6400673 13.6332594,28.0945005 13.0031479,28.0945005 C12.3730364,28.0945005 10.7172689,29.6974603 9.7218372,29.2897149 C8.90052396,28.9706098 8.58382557,27.4208343 8.47672633,26.1627139 C7.67534747,26.0596263 6.87719715,25.9383479 6.08309101,25.7990027 C5.39121673,25.680625 4.99764343,25.0475617 5.14416571,24.5980696 C5.29134504,24.1474337 5.64023891,23.8386223 6.08703331,23.6922229 L7.91034871,23.0585877 C8.4491302,21.8147641 8.8893541,20.8036928 9.23102041,20.0248019 C9.74351987,18.8564655 11.0911306,18.8564655 11.9203285,19.4289103 C12.3480684,19.7245686 12.6306002,19.975049 12.9926351,19.9813396 C13.3540129,19.9870583 13.7022497,19.7239967 14.1490441,19.4289103 C15.0130656,18.8564655 16.2673752,18.854178 16.9769899,19.9779083 L16.9769899,19.9784802 Z M14.2232908,26.9713421 C13.9998936,27.1354697 13.8895091,27.3007409 14.52422,27.633571 C16.030837,28.1957221 16.2194105,26.7185743 16.1852439,26.5630249 C16.1155965,26.4612315 14.4473451,26.8072146 14.2232908,26.9713421 L14.2232908,26.9713421 Z M9.74417692,26.5595937 C9.73563527,26.9164423 9.98465744,28.1602659 11.4052008,27.6301397 C12.1667225,27.2304006 11.8165145,27.0462575 11.6890467,26.9559016 C11.1298966,26.7294399 9.81382429,26.4583721 9.74417692,26.5595937 Z" id="形状" fill="#1CD2A9" fill-rule="nonzero"></path>
            <path d="M37.8625596,12.1249301 C37.7501638,12.1356345 37.6065471,12.1731001 37.4441977,12.2319746 C37.3005809,12.2854969 37.1569641,12.3390192 37.0133474,12.4032459 L36.8385095,12.4835294 C36.8260211,12.4942338 36.8135327,12.499586 36.7948001,12.5049383 C36.7573348,12.5209949 36.7261138,12.5370516 36.6886486,12.5584605 L36.5387876,12.638744 C36.4888339,12.6655051 36.4388803,12.6922662 36.3764382,12.7190274 C36.3264845,12.7457885 36.2702867,12.7725497 36.2265772,12.804663 C36.189112,12.8314242 36.1516467,12.8581853 36.1204257,12.8849465 C36.0954489,12.9117076 36.0767162,12.9384687 36.0767162,12.9545254 C36.0767162,12.991991 36.1454025,13.0508655 36.2827751,13.1257967 C36.4139034,13.2007279 36.551276,13.2703069 36.6886486,13.3345336 C36.8260211,13.3934081 36.8884632,13.4255215 36.8884632,13.414817 C37.4129766,13.6449628 37.7751407,13.7627119 37.9749553,13.7627119 C38.0686184,13.7627119 38.1997468,13.7305985 38.3745846,13.6770762 C38.5306898,13.6235539 38.6930392,13.5646794 38.8491444,13.5058049 L39.048959,13.4255215 C39.5172746,13.2328413 39.7857755,13.0829789 39.860706,12.9759343 C39.8794386,12.9384687 39.860706,12.8902987 39.7920197,12.8314242 C39.7233334,12.7725497 39.6296703,12.7136752 39.4922977,12.6494484 L39.230041,12.5263472 C39.1925758,12.5102905 39.1363779,12.4888816 39.0676916,12.4567682 C38.4682477,12.2052135 38.0748626,12.0981689 37.8625596,12.1249301 M37.2693599,11.8733754 C37.2880925,11.8359098 37.2693599,11.7930919 37.2069178,11.7449219 C37.1444757,11.6967518 37.0570568,11.6378773 36.9446611,11.5736506 C36.8572422,11.5254805 36.7698233,11.4826627 36.6761602,11.4451971 C36.6137181,11.4130837 36.551276,11.3916748 36.4825897,11.3649137 C36.4763455,11.3595615 36.4701013,11.3595615 36.4638571,11.3542092 C35.88939,11.1080067 35.4960049,10.9956099 35.2774577,11.0223711 C35.0401778,11.0544845 34.6967464,11.1775857 34.2596518,11.3863226 C34.2471634,11.3970271 34.234675,11.4023793 34.2159424,11.4023793 C34.1972098,11.4077315 34.1597445,11.4237882 34.1097909,11.4505493 C34.0036393,11.5040716 33.8912436,11.5575939 33.7913363,11.6164684 C33.7413826,11.6485818 33.6851848,11.6753429 33.6352311,11.7021041 C33.5915216,11.723513 33.5603006,11.7502741 33.5353238,11.7823875 C33.5103469,11.8091486 33.4916143,11.8359098 33.4916143,11.8519664 C33.4916143,11.889432 33.5603006,11.9536588 33.691429,12.02859 C33.8163131,12.1035212 33.9536857,12.1731001 34.0910582,12.2319746 C34.2221866,12.2908491 34.2908729,12.3122581 34.2971171,12.3122581 C34.3595592,12.3390192 34.4344897,12.3711326 34.5281528,12.4139504 C34.6218159,12.4567682 34.7654327,12.5049383 34.9652473,12.5638128 C35.1650619,12.6226873 35.3024345,12.6548007 35.3960976,12.6548007 C35.4897607,12.6548007 35.6208891,12.6226873 35.7957269,12.569165 C35.9518321,12.5156427 36.1079373,12.4621204 36.2577982,12.3978937 C36.3826824,12.3443714 36.4576129,12.3176103 36.4576129,12.3122581 C36.9259285,12.1302823 37.2006736,11.9750677 37.2693599,11.8733754 M42.901635,10.5834884 C42.9078792,10.5299661 42.9141235,10.4550349 42.9078792,10.364047 C42.901635,10.2677069 42.8829024,10.1339012 42.8454372,9.96262993 C42.8079719,9.79135863 42.7517741,9.67360961 42.689332,9.60403065 C42.6206457,9.53445168 42.5144942,9.45952049 42.358389,9.36853261 C42.2272606,9.29360142 42.0961323,9.22402245 41.9650039,9.15979571 L41.7901661,9.07951229 C41.7651893,9.06880784 41.7402124,9.05275115 41.7089914,9.0420467 C41.6777704,9.03134224 41.6153283,8.99922887 41.5216652,8.96176328 C41.4404905,8.92429768 41.3530716,8.88683208 41.2656527,8.85471871 C41.1969664,8.82795757 41.1157917,8.80654866 41.0408612,8.78513975 C40.9721749,8.76908306 40.9222213,8.76373084 40.8910002,8.77443529 C40.8472908,8.7958442 40.8098255,8.87612763 40.7973371,9.0045811 C40.7786045,9.13303457 40.7661161,9.26148805 40.7661161,9.38994152 L40.7786045,9.56656505 C40.7786045,10.0429133 40.8285581,10.3533426 40.9284655,10.4871483 C40.9721749,10.5460228 41.0720822,10.6263062 41.215699,10.7226463 C41.3530716,10.808282 41.4904441,10.8885654 41.6340609,10.9634966 L41.8338756,11.0544845 C41.877585,11.0758934 41.9400271,11.1080067 42.0212018,11.1454723 C42.1023765,11.1829379 42.2210164,11.2364602 42.3833658,11.2953347 C42.5457152,11.3542092 42.6581109,11.3863226 42.720553,11.3863226 C42.8579256,11.3863226 42.9203677,11.113359 42.901635,10.5834884 M33.2730671,9.07416007 C33.3417533,9.07416007 33.4479049,9.04739892 33.5915216,8.99387664 C33.7288942,8.94035436 33.8600226,8.88683208 33.9911509,8.82260535 L34.1597445,8.74232192 C34.6655253,8.49611943 34.9652473,8.31414368 35.0589104,8.17498575 C35.1026199,8.11611124 35.1400851,8.00371445 35.1650619,7.85385206 C35.1900388,7.71469413 35.2025272,7.58088843 35.2087714,7.4417305 L35.2212598,7.25440252 C35.2337482,6.77805422 35.196283,6.51044281 35.1026199,6.46762499 C35.0651546,6.45156831 34.9714915,6.46762499 34.8216305,6.52114727 C34.6780137,6.56931732 34.534397,6.62819183 34.3970244,6.68706634 C34.2596518,6.74594085 34.1972098,6.77270199 34.203454,6.77270199 C33.7663595,6.9653822 33.4666375,7.1366535 33.3167765,7.29186811 C33.1669155,7.4417305 33.0857408,7.76821641 33.0857408,8.27667808 C33.0670082,8.80119643 33.1294503,9.07416007 33.2730671,9.07416007 M41.6465493,11.2953347 C41.0720822,11.0491322 40.6786972,10.9367354 40.4601499,10.9634966 C40.3539984,10.9795533 40.2166258,11.0223711 40.041788,11.0758934 C39.8669502,11.1347679 39.7295776,11.1936424 39.6046935,11.2471647 L39.4360999,11.3274481 C39.4236115,11.3381525 39.4048788,11.3381525 39.3923904,11.348857 C39.3549252,11.3649137 39.3237041,11.3863226 39.2862389,11.4023793 L39.1301337,11.4773105 C39.08018,11.4987194 39.0302264,11.5308328 38.9677843,11.5575939 C38.9178306,11.584355 38.867877,11.6164684 38.8179233,11.6485818 C38.7804581,11.6699907 38.7429928,11.6967518 38.7117718,11.7288652 C38.6805508,11.7556263 38.6680623,11.7770352 38.6680623,11.7930919 C38.6743066,11.8733754 38.9490517,12.0392944 39.4798093,12.2694402 C39.5422514,12.2908491 39.6171819,12.3229625 39.710845,12.3604281 C39.8045081,12.3978937 39.9481249,12.451416 40.1479395,12.5102905 C40.34151,12.569165 40.4851267,12.6012784 40.5725456,12.6012784 C40.6662088,12.6012784 40.7973371,12.5745172 40.9721749,12.5209949 C41.1345243,12.4728249 41.2906295,12.4085982 41.4404905,12.3443714 L41.6403051,12.264088 C42.1148649,12.0714078 42.3833658,11.9215454 42.4520521,11.8145008 C42.4770289,11.7823875 42.4582963,11.7342174 42.3833658,11.6753429 C42.3146795,11.6164684 42.2147722,11.5575939 42.1023765,11.5040716 C41.9837365,11.4451971 41.8963176,11.4023793 41.8213871,11.3702659 C41.7339682,11.3274481 41.6777704,11.3060392 41.6465493,11.2953347 M35.015201,10.4817961 C35.0589104,10.4229215 35.0838872,10.3105248 35.1088641,10.1606624 C35.1338409,10.0108 35.1525735,9.87164205 35.1588177,9.7485408 L35.1588177,9.56121282 C35.1713061,9.08486452 35.1338409,8.81725312 35.0401778,8.77443529 C35.0027125,8.75837861 34.9090494,8.77443529 34.7591884,8.82795757 C34.6155717,8.87612763 34.4719549,8.93500214 34.3345823,8.99387664 C34.1972098,9.05275115 34.1347677,9.07951229 34.1410119,9.07951229 C33.6976732,9.27754473 33.4041954,9.45416826 33.2543344,9.60403065 C33.1044735,9.75389303 33.0232988,10.0803789 33.0232988,10.5888406 C33.0108103,11.1187112 33.0732524,11.3863226 33.210625,11.3916748 C33.2793113,11.3916748 33.3854628,11.3649137 33.5290796,11.3113914 C33.6664521,11.2578691 33.7975805,11.2043468 33.9287088,11.1401201 L34.0973024,11.0598367 C34.6155717,10.808282 34.9215378,10.620954 35.015201,10.4817961 M38.3308751,6.94397329 C38.3745846,7.0028478 38.4807361,7.08313122 38.6243529,7.17947132 C38.7554813,7.25975475 38.899098,7.34003817 39.0427148,7.41496936 L39.2425294,7.51666169 C39.2862389,7.53807061 39.348681,7.57018397 39.4298557,7.60764957 C39.5110304,7.64511517 39.6296703,7.69863745 39.7920197,7.75751196 C39.9543691,7.81638647 40.0667648,7.84849983 40.1292069,7.83779538 C40.2665795,7.83779538 40.3290215,7.57018397 40.3040447,7.04031339 C40.3040447,6.5264995 40.2353584,6.20001359 40.0854975,6.05550343 C40.0168112,5.98592446 39.9106596,5.91099327 39.7670429,5.82000539 C39.6421587,5.7450742 39.5047862,5.67549523 39.3674136,5.6112685 L39.19882,5.53098508 C39.1675989,5.52028062 39.1363779,5.50422393 39.1051569,5.48816725 C39.0739358,5.47211057 39.0114938,5.44534943 38.9178306,5.40788383 C38.836656,5.37041823 38.749237,5.33830486 38.6618181,5.3061915 C38.5931319,5.27943036 38.5119572,5.25802144 38.4370267,5.23661253 C38.3683404,5.22055585 38.3121425,5.21520362 38.2871657,5.22590807 C38.2434562,5.24196476 38.205991,5.31689595 38.1935026,5.45070165 C38.17477,5.57915513 38.1685257,5.7076086 38.17477,5.83606208 L38.17477,6.0126856 C38.1872584,6.49973836 38.2309678,6.80481536 38.3308751,6.94397329 M40.1354511,8.37837041 C40.0667648,8.30879145 39.9606133,8.23386026 39.8107523,8.14287238 C39.679624,8.06794119 39.5484956,7.99300999 39.4173672,7.92343103 L39.2487736,7.84314761 C39.2175526,7.83244315 39.1863316,7.81638647 39.1551105,7.80032978 C39.0926685,7.76821641 39.0302264,7.74145527 38.9677843,7.72004636 C38.8866096,7.68258076 38.7991907,7.6504674 38.7117718,7.61835403 C38.6368413,7.59159289 38.5619108,7.57018397 38.4869803,7.54877506 C38.418294,7.53271838 38.3620962,7.52736615 38.3371194,7.53807061 C38.2934099,7.55412729 38.2559447,7.62905848 38.2434562,7.76286419 C38.2247236,7.89131766 38.2184794,8.01977113 38.2247236,8.14822461 L38.2247236,8.32484813 C38.2309678,8.80119643 38.2809215,9.11162566 38.3745846,9.24543136 C38.418294,9.30430587 38.5244456,9.38458929 38.6680623,9.4809294 C38.7991907,9.56121282 38.9428075,9.64149624 39.0864243,9.71642743 L39.2862389,9.80741531 C39.3299483,9.83417645 39.3923904,9.86628982 39.4735651,9.90375542 C39.5547398,9.93586879 39.6733798,9.98939107 39.8357292,10.0536178 C39.9980785,10.1178445 40.1104743,10.1499579 40.1729164,10.1392535 C40.22287,10.1392535 40.2665795,10.1017879 40.2915563,10.0268567 C40.3227773,9.94657324 40.3352658,9.85558537 40.3477542,9.74318858 C40.3539984,9.63079179 40.3602426,9.54515614 40.3602426,9.48628163 C40.3602426,9.42740712 40.3539984,9.37923707 40.3477542,9.3471237 C40.3352658,8.82260535 40.2665795,8.49611943 40.1354511,8.37837041 M40.8722676,8.16963352 C40.9159771,8.22850803 41.0221286,8.30879145 41.1657454,8.40513155 C41.3031179,8.48541498 41.4404905,8.57105063 41.5841073,8.64598182 L41.7839219,8.7369697 C41.8276313,8.75837861 41.8900734,8.79049198 41.9712481,8.82795757 C42.0524228,8.86542317 42.1710628,8.91894545 42.3334122,8.97781996 C42.4957616,9.03669447 42.6081573,9.06880784 42.6705994,9.06880784 C42.8079719,9.06345561 42.870414,8.7958442 42.8454372,8.26597362 C42.8454372,7.75751196 42.7767509,7.43102604 42.6268899,7.28116366 C42.5582036,7.21158469 42.4520521,7.1366535 42.3021911,7.04566562 C42.1710628,6.97073443 42.0399344,6.90115546 41.908806,6.83692873 L41.7402124,6.75664531 L41.6527935,6.72988417 C41.5903515,6.6977708 41.5279094,6.67100966 41.4654673,6.64424852 C41.3842926,6.60678292 41.2968737,6.56931732 41.2094548,6.54255618 C41.1345243,6.51579504 41.0595938,6.49438613 40.9846633,6.47297722 C40.9159771,6.45692053 40.8660234,6.45156831 40.8348024,6.46227276 C40.7910929,6.48368167 40.7536277,6.56396509 40.7411392,6.69241857 C40.7224066,6.82087204 40.7161624,6.94397329 40.7224066,7.07777899 L40.7224066,7.25440252 C40.734895,7.73075082 40.7848487,8.03582782 40.8722676,8.16963352 M35.7645059,10.1553101 C35.8331921,10.1606624 35.9393437,10.1339012 36.0829604,10.0750267 C36.220333,10.0215044 36.3514614,9.96798215 36.4825897,9.90375542 L36.6511833,9.81276754 C37.1569641,9.57191728 37.4566861,9.38994152 37.5503492,9.25078359 C37.5940587,9.19190908 37.6315239,9.07951229 37.6565007,8.92964991 C37.6814776,8.79049198 37.693966,8.65668627 37.7002102,8.51752834 L37.7126986,8.33020036 C37.725187,7.85385206 37.6877218,7.58624066 37.5940587,7.54342283 C37.5503492,7.52201392 37.4566861,7.53271838 37.3130693,7.58624066 C37.1694525,7.63441071 37.03208,7.68793299 36.8947074,7.75751196 L36.6948928,7.84849983 C36.251554,8.04653227 35.9580763,8.2231558 35.8082153,8.37301819 C35.6583543,8.51217612 35.5771796,8.84401426 35.5771796,9.35782815 L35.5771796,9.49163386 C35.5771796,9.55050836 35.5834238,9.64149624 35.589668,9.75389303 C35.5959123,9.86628982 35.6146449,9.96262993 35.6458659,10.0375611 C35.677087,10.1124923 35.7145522,10.1553101 35.7645059,10.1553101 M36.0892046,10.7012374 C36.0892046,10.738703 36.1578909,10.7922253 36.2952635,10.8725087 C36.4263919,10.9474399 36.5637644,11.0170189 36.701137,11.0865978 L36.9009516,11.1668812 C37.4317093,11.3970271 37.8001175,11.5147761 37.9936879,11.5147761 C38.0811068,11.5147761 38.2122352,11.4826627 38.387073,11.4291404 C38.5431782,11.3756181 38.6992834,11.3220959 38.8553886,11.2578691 L39.0552032,11.1775857 C39.529763,10.9795533 39.7982639,10.8296909 39.8669502,10.7226463 C39.8794386,10.7119419 39.8794386,10.6958852 39.8731944,10.6744763 C39.860706,10.6530673 39.8482176,10.6316584 39.8294849,10.6102495 C39.8045081,10.5834884 39.7795313,10.5620795 39.7483102,10.5406706 C39.710845,10.5192616 39.679624,10.4978527 39.6484029,10.4764438 C39.6109377,10.4550349 39.5734724,10.433626 39.5235188,10.4068649 L39.4048788,10.3426381 C39.3611694,10.3265814 39.3299483,10.3051725 39.2862389,10.2891158 C39.2487736,10.2784114 39.2175526,10.2623547 39.1863316,10.246298 L39.1176453,10.2195369 C39.0989127,10.2088324 39.0864243,10.198128 39.0864243,10.1927757 C38.5306898,9.94657324 38.1373047,9.83417645 37.9000248,9.86093759 C37.7938733,9.87699428 37.6565007,9.9198121 37.4816629,9.97333438 C37.3068251,10.0322089 37.1694525,10.0910834 37.0445684,10.1499579 L36.8759748,10.2302413 C36.8634864,10.2409458 36.8447538,10.2409458 36.8322653,10.2516502 C36.7948001,10.2677069 36.7635791,10.2891158 36.7261138,10.3051725 C36.6699159,10.3319337 36.6199623,10.3586948 36.5700086,10.3854559 C36.520055,10.4122171 36.4701013,10.4389782 36.4076592,10.4657394 C36.3577056,10.4925005 36.3015077,10.5192616 36.2577982,10.551375 C36.220333,10.5781362 36.1828678,10.6048973 36.1516467,10.6316584 C36.1079373,10.6637718 36.0892046,10.6851807 36.0892046,10.7012374 M35.6333775,7.04566562 C35.6208891,7.5755362 35.6833312,7.84314761 35.8207037,7.84314761 C35.88939,7.84849983 35.9955415,7.81638647 36.1578909,7.75751196 C36.2765309,7.7093419 36.3951708,7.66117185 36.5138108,7.60764957 C36.5762528,7.5755362 36.6386949,7.54877506 36.7073812,7.52201392 L36.9071958,7.42032159 C37.0508126,7.34539039 37.1881852,7.2704592 37.3255577,7.18482355 C37.4754187,7.09383568 37.575326,7.01355225 37.6065471,6.94932552 C37.7002102,6.81551981 37.7564081,6.50509059 37.7626523,6.02874229 L37.7626523,5.85211876 C37.7688965,5.72366529 37.7564081,5.59521181 37.7439196,5.46675834 C37.7314312,5.33830486 37.7002102,5.25802144 37.6502565,5.24196476 C37.6252797,5.2312603 37.575326,5.2312603 37.5003955,5.25266922 C37.4254651,5.2687259 37.3505346,5.29548704 37.2756041,5.32224818 C37.2006736,5.35436155 37.1194989,5.38112269 37.0195916,5.42394051 C36.9259285,5.46140611 36.8634864,5.49351948 36.8260211,5.50422393 C36.7948001,5.51492839 36.7698233,5.53098508 36.7386022,5.54704176 L36.5700086,5.62732518 C36.4326361,5.69155192 36.2952635,5.76113088 36.1703793,5.83606208 C36.0205184,5.92169773 35.9143668,6.00198115 35.8519248,6.07156011 C35.708308,6.20001359 35.6333775,6.53185173 35.6333775,7.04566562" id="形状" fill="#FFFFFF" fill-rule="nonzero"></path>
            <path d="M34.1928365,36.4864045 L34.1928365,40.5692032 C34.1928365,40.5692032 34.1692667,44.3917925 38.584389,44.183332 C38.584389,44.183332 41.1745868,40.8296219 35.6880663,37.6841631 C35.6880663,37.6841631 40.9979913,39.0962405 40.044376,44.1915616 C40.044376,44.1915616 43.1525344,42.3398969 40.9510043,38.9965087 C40.9510043,38.9965087 39.4438727,36.6009915 34.1928365,36.4864045" id="路径" fill="#FFFFFF" fill-rule="nonzero"></path>
            <polygon id="路径-5" fill="#3B4652" fill-rule="nonzero" points="31.9395031 12.7437528 32.8591365 14.4044264 23.0916361 19.8133876 22.1720027 18.1527141"></polygon>
            <polygon id="路径-5" fill="#3B4652" fill-rule="nonzero" points="21.6053745 29.2630002 34.6533413 36.5027296 33.7323316 38.1626402 20.6843648 30.9229108"></polygon>
            <polygon id="路径-5" fill="#3B4652" fill-rule="nonzero" points="49.8759509 30.1284514 51.1151773 31.5664639 44.5716789 37.2054107 43.3324525 35.7673982"></polygon>
        </g>
    </g>
</svg>