<?xml version="1.0" encoding="UTF-8"?>
<svg width="56px" height="56px" viewBox="0 0 56 56" version="1.1" xmlns="http://www.w3.org/2000/svg" xmlns:xlink="http://www.w3.org/1999/xlink">
    <title>icon/home_beosin-alert</title>
    <defs>
        <polygon id="path-1" points="0 0 45.7214051 0 45.7214051 28.7534781 0 28.7534781"></polygon>
        <polygon id="path-3" points="0 0 1.64284208 0 1.64284208 4.24958379 0 4.24958379"></polygon>
        <polygon id="path-5" points="0 0 39.4002069 0 39.4002069 23.2630338 0 23.2630338"></polygon>
    </defs>
    <g id="icon/home_beosin-alert" stroke="none" stroke-width="1" fill="none" fill-rule="evenodd">
        <g id="编组" transform="translate(0.000000, 0.160938)">
            <path d="M0.782939103,26.5231076 C0.803283012,26.5246145 0.823626921,26.525368 0.84397083,26.525368 C1.23276553,26.525368 1.56203547,26.2262372 1.59443503,25.8329216 C1.67430371,24.8443583 1.81068324,23.8520277 2.00055973,22.8815479 C2.08118188,22.4724092 1.81445063,22.0775867 1.4060655,21.9969646 C0.991652539,21.9170959 0.601350879,22.1838271 0.521482199,22.5914588 C0.321057022,23.6184494 0.176389225,24.667291 0.0919996771,25.7108582 C0.0588466403,26.1260246 0.367772665,26.489201 0.782939103,26.5231076" id="Fill-1" fill="#1CD2A9"></path>
            <g transform="translate(0.000000, 27.246145)">
                <mask id="mask-2" fill="white">
                    <use xlink:href="#path-1"></use>
                </mask>
                <g id="Clip-4"></g>
                <path d="M44.4986088,21.4839213 C39.7682732,25.2543258 34.062937,27.2465219 28.0004521,27.2465219 C13.3920185,27.2465219 1.50665483,15.3619117 1.50665483,0.753478109 C1.50665483,0.337558193 1.16985011,0 0.753176718,0 C0.337256801,0 -0.000301391244,0.337558193 -0.000301391244,0.753478109 C-0.000301391244,16.192998 12.5609322,28.7534781 28.0004521,28.7534781 C34.4080299,28.7534781 40.4373618,26.6475068 45.4374425,22.6623611 C45.762945,22.4031646 45.816442,21.9292269 45.5572455,21.6037243 C45.2988025,21.2789753 44.8241113,21.2247248 44.4986088,21.4839213" id="Fill-3" fill="#1CD2A9" mask="url(#mask-2)"></path>
            </g>
            <g transform="translate(54.357158, 24.503593)">
                <mask id="mask-4" fill="white">
                    <use xlink:href="#path-3"></use>
                </mask>
                <g id="Clip-6"></g>
                <path d="M1.50322258,0.678097551 C1.46178129,0.263684591 1.09634441,-0.0331857837 0.678917533,0.00298116552 C0.264504573,0.0436689834 -0.0376401481,0.412873257 0.00380114783,0.826532738 C0.0912046085,1.70960908 0.136413295,2.60850847 0.136413295,3.49610568 C0.136413295,3.91277907 0.47321801,4.24958379 0.889891404,4.24958379 C1.30581132,4.24958379 1.64336951,3.91277907 1.64336951,3.49610568 C1.64336951,2.55802543 1.59590039,1.61014997 1.50322258,0.678097551" id="Fill-5" fill="#1CD2A9" mask="url(#mask-4)"></path>
            </g>
            <g transform="translate(16.046721, 0.000000)">
                <mask id="mask-6" fill="white">
                    <use xlink:href="#path-5"></use>
                </mask>
                <g id="Clip-8"></g>
                <path d="M38.7975193,23.2472108 C39.205151,23.1643282 39.4688683,22.7657383 39.3844788,22.3581066 C36.7337428,9.40280401 25.1972394,-0.000602782487 11.9533547,-0.000602782487 C7.94334423,-0.000602782487 4.07046675,0.829730093 0.443976617,2.4677915 C0.06422365,2.63807755 -0.104555446,3.08489007 0.0672375624,3.46388956 C0.237523615,3.84213557 0.682829177,4.0131751 1.06333562,3.84062862 C4.49467493,2.29147762 8.15883897,1.50635344 11.9533547,1.50635344 C24.4844492,1.50635344 35.4000865,10.4026695 37.9084151,22.6602513 C37.9815025,23.0166465 38.2957029,23.2630338 38.6460702,23.2630338 C38.6957998,23.2630338 38.7470363,23.2577595 38.7975193,23.2472108" id="Fill-7" fill="#1CD2A9" mask="url(#mask-6)"></path>
            </g>
            <path d="M30.4900945,20.9889615 C31.3528269,22.1500713 32.880127,24.0081483 34.7186136,25.3839994 C33.9666424,25.3485859 32.9456796,25.1504211 32.0995237,24.4481795 C31.2058987,23.7052501 30.6664083,22.5448938 30.4900945,20.9889615 M30.2030193,51.1167837 C30.0779419,51.1288394 29.955125,51.1333602 29.8300476,51.1439089 C15.9080326,39.3271118 22.1995748,35.103867 32.2035037,35.103867 C43.0995506,35.103867 38.2170125,42.2468394 38.2170125,42.2468394 C48.6150104,37.4848578 44.357859,32.4742284 42.6022551,30.8467156 C40.8466511,29.2192029 40.7185598,29.0911116 40.7185598,24.8347138 C40.7185598,20.576809 31.3219343,14.5640537 26.0634106,12.3036194 C22.7164608,10.8742714 16.6901429,10.5547967 12.7396572,10.5080811 C16.9794785,6.8167918 22.3789026,4.78390786 27.9998493,4.78390786 C40.8044563,4.78390786 51.2220446,15.1977288 51.2220446,27.9985684 C51.2220446,40.0489438 42.1848282,49.98732 30.2030193,51.1167837 M27.9998493,4.03042975 C22.0526466,4.03042975 16.340529,6.22983235 11.9161056,10.2240198 C6.90472269,14.7674928 4.03171066,21.2458976 4.03171066,27.9985684 C4.03171066,41.2190953 14.7838433,51.9742418 27.9998493,51.9742418 C28.7344905,51.9742418 29.4992707,51.9380749 30.2730928,51.8672479 C42.6452033,50.7008638 51.9755227,40.4392454 51.9755227,27.9985684 C51.9755227,14.7825624 41.2196227,4.03042975 27.9998493,4.03042975" id="Fill-9" fill="#1CD2A9"></path>
            <path d="M27.9971368,5.76493636 C27.8931568,5.76493636 27.8087673,5.84932591 27.8087673,5.95330589 C27.8087673,6.05728586 27.8931568,6.14167541 27.9971368,6.14167541 C40.0527865,6.14167541 49.8615645,15.946686 49.8615645,27.9985684 C49.8615645,28.1025484 49.9459541,28.1869379 50.0499341,28.1869379 C50.1531606,28.1869379 50.2383036,28.1025484 50.2383036,27.9985684 C50.2383036,15.7387261 40.2607465,5.76493636 27.9971368,5.76493636" id="Fill-11" fill="#1CD2A9"></path>
        </g>
    </g>
</svg>